<?xml version="1.0" encoding="UTF-8"?>
<svg width="23px" height="19px" viewBox="0 0 23 19" version="1.1" xmlns="http://www.w3.org/2000/svg" xmlns:xlink="http://www.w3.org/1999/xlink">
    <!-- Generator: Sketch 63.1 (92452) - https://sketch.com -->
    <title>noun_Assessment_2404411</title>
    <desc>Created with Sketch.</desc>
    <g id="Page-1" stroke="none" stroke-width="1" fill="none" fill-rule="evenodd">
        <g id="CS_Candidate2020_Job_Details_Interview_4" transform="translate(-296.000000, -461.000000)" fill="#0A7BE0" fill-rule="nonzero" stroke="#FFFFFF" stroke-width="0.3">
            <g id="noun_Assessment_2404411" transform="translate(297.000000, 462.000000)">
                <g id="Group">
                    <path d="M5.03125,0.09 C7.04375,0.09 8.771875,1.3275 9.5375,3.105 L9.5375,3.105 L14.2625,3.105 C14.875,3.105 15.4,3.42 15.75,3.8925 L15.75,3.8925 L17.434375,2.16 C17.63125,1.9575 17.89375,1.845 18.15625,1.845 C18.4625,1.8 18.68125,1.935 18.878125,2.1375 L18.878125,2.1375 L20.584375,3.87 C20.978125,4.275 21,4.9275 20.628125,5.3325 L20.628125,5.3325 L16.165625,9.9675 L16.165625,15.075 C16.165625,16.1325 15.3125,17.01 14.284375,17.01 L14.284375,17.01 L4.9,17.01 C3.85,17.01 3.01875,16.1325 3.01875,15.075 L3.01875,15.075 L3.01875,9.7425 C1.3125,8.955 0.109375,7.2 0.109375,5.1525 C0.109375,2.3625 2.31875,0.09 5.03125,0.09 Z M14.2625,4.32 L9.865625,4.32 C9.909375,4.59 9.953125,4.86 9.953125,5.13 C9.953125,7.92 7.74375,10.1925 5.03125,10.1925 C4.725,10.1925 4.4625,10.1475 4.178125,10.1025 L4.178125,10.1025 L4.178125,15.075 C4.178125,15.48 4.484375,15.8175 4.878125,15.8175 L4.878125,15.8175 L14.2625,15.8175 C14.634375,15.8175 14.9625,15.48 14.9625,15.075 L14.9625,15.075 L14.9625,11.1825 L14.30625,11.8575 C13.86875,12.3075 13.365625,12.6675 12.81875,12.9375 L12.81875,12.9375 L11.134375,13.7475 C10.959375,13.8375 10.7625,13.8825 10.565625,13.8825 C10.215625,13.8825 9.8875,13.7475 9.625,13.4775 C9.23125,13.0725 9.121875,12.465 9.3625,11.925 L9.3625,11.925 L10.15,10.17 C10.4125,9.6075 10.7625,9.09 11.2,8.64 L11.2,8.64 L14.91875,4.77 C14.809375,4.5 14.546875,4.32 14.2625,4.32 L14.2625,4.32 Z M11.178125,10.7325 L10.390625,12.42 C10.36875,12.51 10.390625,12.5775 10.434375,12.6225 C10.478125,12.645 10.54375,12.69 10.63125,12.645 L10.63125,12.645 L12.271875,11.8575 L11.178125,10.7325 Z M16.275,5.1075 L12.009375,9.5175 C11.94375,9.5625 11.9,9.6525 11.834375,9.72 L11.834375,9.72 L13.278125,11.1825 C13.34375,11.115 13.409375,11.07 13.475,11.0025 L13.475,11.0025 L17.740625,6.615 L16.275,5.1075 Z M5.03125,1.305 C2.975,1.305 1.290625,3.0375 1.290625,5.1525 C1.290625,7.2675 2.953125,9 5.03125,9 C7.0875,9 8.771875,7.2675 8.771875,5.1525 C8.771875,3.0375 7.0875,1.305 5.03125,1.305 Z M5.95,3.87 C6.16875,3.645 6.540625,3.6225 6.78125,3.8475 C7.021875,4.0725 7.04375,4.455 6.825,4.725 L6.825,4.725 L4.94375,6.795 C4.834375,6.93 4.659375,6.9975 4.50625,6.9975 C4.33125,6.9975 4.178125,6.9075 4.06875,6.795 L4.06875,6.795 L3.084375,5.6925 C2.865625,5.445 2.865625,5.0625 3.10625,4.8375 C3.346875,4.6125 3.71875,4.6125 3.9375,4.86 L3.9375,4.86 L4.50625,5.4675 Z M18.2,3.105 L17.10625,4.23 L18.571875,5.7375 L19.665625,4.6125 L18.2,3.105 Z" id="Combined-Shape"></path>
                </g>
            </g>
        </g>
    </g>
</svg>