<?xml version="1.0" encoding="UTF-8"?>
<svg width="29px" height="29px" viewBox="0 0 29 29" version="1.1" xmlns="http://www.w3.org/2000/svg" xmlns:xlink="http://www.w3.org/1999/xlink">
    <!-- Generator: Sketch 63.1 (92452) - https://sketch.com -->
    <title>Group</title>
    <desc>Created with Sketch.</desc>
    <g id="Page-2" stroke="none" stroke-width="1" fill="none" fill-rule="evenodd">
        <g id="Group" transform="translate(-1.723123, -3.039845)">
            <path d="M22,28.8647824 C22,21.9612231 16.2898164,16.3647824 9.2459479,16.3647824 C6.55454342,16.3647824 4.05784912,17.1818301 2,18.5766533" id="Oval-Copy" stroke="#F4B000" stroke-width="3" transform="translate(12.000000, 22.614782) rotate(-165.000000) translate(-12.000000, -22.614782) "></path>
            <path d="M22.6777741,17 C22.6777741,10.372583 17.2530997,5 10.5614246,5 C8.00459039,5 5.63273081,5.78436572 3.67777414,7.12339605" id="Oval-Copy-2" stroke="#3CD991" stroke-width="3" transform="translate(13.177774, 11.000000) rotate(-45.000000) translate(-13.177774, -11.000000) "></path>
            <path d="M23.1003359,30.0710759 C26.2634322,27.7962795 28.3168759,24.1264375 28.3168759,19.9865415 C28.3168759,14.8430009 25.147102,10.4250536 20.617619,8.5067092" id="Oval-Copy-3" stroke="#FF5D5D" stroke-width="3" transform="translate(24.467247, 19.288893) rotate(-345.000000) translate(-24.467247, -19.288893) "></path>
            <g id="noun_clipboard_2514609" transform="translate(11.617619, 10.077746)" fill="#ACAEC1" fill-rule="nonzero">
                <path d="M8.03571429,2.00892857 L7.34598214,2.00892857 C7.359375,2.08035714 7.36607143,2.15401786 7.36607143,2.22767857 L7.36607143,2.45535714 L7.36607143,2.90178571 C7.36607143,3.39508929 6.96651786,3.79464286 6.47321429,3.79464286 L2.45535714,3.79464286 C1.96205357,3.79464286 1.5625,3.39508929 1.5625,2.90178571 L1.5625,2.45535714 L1.5625,2.23214286 C1.5625,2.15625 1.56919643,2.08258929 1.58258929,2.00892857 L0.892857143,2.00892857 C0.399553571,2.00892857 0,2.40848214 0,2.90178571 L0,11.6071429 C0,12.1004464 0.399553571,12.5 0.892857143,12.5 L8.03571429,12.5 C8.52901786,12.5 8.92857143,12.1004464 8.92857143,11.6071429 L8.92857143,2.90178571 C8.92857143,2.40848214 8.52901786,2.00892857 8.03571429,2.00892857 Z M7.36607143,5.35714286 C7.48883929,5.35714286 7.58928571,5.45758929 7.58928571,5.58035714 C7.58928571,5.703125 7.48883929,5.80357143 7.36607143,5.80357143 L1.5625,5.80357143 C1.43973214,5.80357143 1.33928571,5.703125 1.33928571,5.58035714 C1.33928571,5.45758929 1.43973214,5.35714286 1.5625,5.35714286 L7.36607143,5.35714286 Z M1.5625,8.48214286 L7.36607143,8.48214286 C7.48883929,8.48214286 7.58928571,8.58258929 7.58928571,8.70535714 C7.58928571,8.828125 7.48883929,8.92857143 7.36607143,8.92857143 L1.5625,8.92857143 C1.43973214,8.92857143 1.33928571,8.828125 1.33928571,8.70535714 C1.33928571,8.58258929 1.43973214,8.48214286 1.5625,8.48214286 Z M1.33928571,7.14285714 C1.33928571,7.02008929 1.43973214,6.91964286 1.5625,6.91964286 L7.36607143,6.91964286 C7.48883929,6.91964286 7.58928571,7.02008929 7.58928571,7.14285714 C7.58928571,7.265625 7.48883929,7.36607143 7.36607143,7.36607143 L1.5625,7.36607143 C1.43973214,7.36607143 1.33928571,7.265625 1.33928571,7.14285714 Z M1.5625,10.0446429 L7.36607143,10.0446429 C7.48883929,10.0446429 7.58928571,10.1450893 7.58928571,10.2678571 C7.58928571,10.390625 7.48883929,10.4910714 7.36607143,10.4910714 L1.5625,10.4910714 C1.43973214,10.4910714 1.33928571,10.390625 1.33928571,10.2678571 C1.33928571,10.1450893 1.43973214,10.0446429 1.5625,10.0446429 Z" id="Shape"></path>
                <path d="M2.45535714,3.34821429 L6.47321429,3.34821429 C6.71875,3.34821429 6.91964286,3.14732143 6.91964286,2.90178571 L6.91964286,2.22991071 C6.91964286,2.19196429 6.91741071,2.15401786 6.91071429,2.11830357 C6.90625,2.08035714 6.89955357,2.04464286 6.890625,2.00892857 C6.88169643,1.97544643 6.87053571,1.94196429 6.85714286,1.91071429 C6.84821429,1.88392857 6.83482143,1.859375 6.82366071,1.83482143 C6.81473214,1.81919643 6.80803571,1.80580357 6.79910714,1.79241071 C6.78571429,1.76785714 6.77008929,1.74330357 6.75446429,1.72321429 C6.73883929,1.69866071 6.71875,1.67410714 6.69642857,1.64955357 C6.67857143,1.62946429 6.65848214,1.60935268 6.63839286,1.58928571 C6.62946429,1.58035714 6.62276786,1.57589286 6.61607143,1.56919643 C6.59375,1.54910714 6.57142857,1.53125 6.546875,1.51339286 C6.54241071,1.51116071 6.53794643,1.50892857 6.53571429,1.50669643 C6.51116071,1.48883929 6.484375,1.47321429 6.45535714,1.45758929 C6.45535714,1.45758929 6.453125,1.45535714 6.45089286,1.45535714 C6.421875,1.4375 6.390625,1.42410714 6.35714286,1.41071429 L5.90848214,1.22991071 L5.79464286,1.18526786 C5.79017857,1.14508929 5.78348214,1.10714286 5.77678571,1.06919643 C5.77455357,1.06696429 5.77455357,1.06473214 5.77455357,1.0625 C5.765625,1.02232143 5.75669643,0.982142857 5.74330357,0.944196429 C5.734375,0.912946429 5.72321429,0.883928571 5.71205357,0.854910714 C5.70089286,0.823660714 5.6875,0.794642857 5.67410714,0.767857143 C5.66294643,0.743303571 5.64955357,0.71875 5.63616071,0.694196429 C5.63169643,0.683035714 5.625,0.671875 5.61830357,0.662946429 C5.60714286,0.642857143 5.59598214,0.625 5.58258929,0.604910714 C5.58258929,0.600446429 5.578125,0.598214286 5.57589286,0.59375 C5.55803571,0.566964286 5.54017857,0.542410714 5.52008929,0.517857143 C5.47767857,0.462053571 5.43080357,0.408459821 5.37723214,0.361607143 C5.35491071,0.341517857 5.33258929,0.321428571 5.31026786,0.303571429 C5.28571429,0.283482143 5.26116071,0.263392857 5.234375,0.245535714 C5.17410714,0.203125 5.11160714,0.165178571 5.04464286,0.133928571 C5.02904018,0.125 5.01116071,0.116071429 4.99330357,0.109375 C4.99107143,0.107142857 4.98883929,0.107142857 4.984375,0.107142857 C4.94196429,0.0892857143 4.89732143,0.0714285714 4.85267857,0.0580357143 C4.80803571,0.0446428571 4.76339286,0.0334821429 4.71651786,0.0245535714 C4.67410714,0.015625 4.63392857,0.00892857143 4.59151786,0.00669642857 C4.54910714,0.00223214286 4.50669643,0 4.46428571,0 C4.42410714,0 4.38616071,0.00223214286 4.34821429,0.00669642857 C4.29910714,0.00892857143 4.25446429,0.015625 4.20758929,0.0245535714 C4.17410714,0.03125 4.140625,0.0401785714 4.10714286,0.0491071429 C3.97767857,0.0825892857 3.85491071,0.138392857 3.74107143,0.212053571 C3.71428571,0.229910714 3.6875,0.25 3.66071429,0.270089286 C3.64285714,0.28125 3.62723214,0.292410714 3.61160714,0.308035714 C3.578125,0.334821429 3.546875,0.361607143 3.515625,0.392857143 C3.46205357,0.446428571 3.41294643,0.504464286 3.37053571,0.566964286 C3.30357143,0.658482143 3.25223214,0.758928571 3.20982143,0.863839286 C3.18526786,0.930803571 3.16517857,1 3.15178571,1.06919643 C3.14508929,1.10714286 3.13839286,1.14732143 3.13392857,1.18526786 L3.015625,1.23214286 L2.57142857,1.41071429 C2.53794643,1.42410714 2.50669643,1.4375 2.47767857,1.45535714 C2.47546875,1.45535714 2.47321429,1.45758929 2.47321429,1.45758929 C2.44419643,1.47321429 2.41741071,1.48883929 2.39285714,1.50669643 C2.39064732,1.50892857 2.38616071,1.51116071 2.38169643,1.51339286 C2.35714286,1.53125 2.33482143,1.54910714 2.3125,1.56919643 C2.30580357,1.57589286 2.29910714,1.58258929 2.29017857,1.58928571 C2.27008929,1.609375 2.25,1.62946429 2.23214286,1.64955357 C2.20982143,1.67410714 2.18973214,1.69866071 2.17410714,1.72321429 C2.15848214,1.74330357 2.14285714,1.76785714 2.12946429,1.79241071 C2.12053571,1.80580357 2.11383929,1.81919643 2.10491071,1.83482143 C2.09375,1.859375 2.08035714,1.88392857 2.07142857,1.91071429 C2.05801339,1.94196429 2.046875,1.97321429 2.03794643,2.00669643 C2.03794643,2.00669643 2.03794643,2.00669643 2.03794643,2.00892857 C2.02901786,2.04464286 2.02232143,2.08035714 2.01785714,2.11830357 C2.01116071,2.15625 2.00892857,2.19419643 2.00892857,2.23214286 L2.00892857,2.90178571 C2.00892857,3.14732143 2.20982143,3.34821429 2.45535714,3.34821429 Z M4.46428571,0.892857143 C4.70982143,0.892857143 4.91071429,1.09375 4.91071429,1.33928571 C4.91071429,1.58482143 4.70982143,1.78571429 4.46428571,1.78571429 C4.21875,1.78571429 4.01785714,1.58482143 4.01785714,1.33928571 C4.01785714,1.09375 4.21875,0.892857143 4.46428571,0.892857143 Z" id="Shape"></path>
            </g>
        </g>
    </g>
</svg>