<?xml version="1.0" encoding="UTF-8"?>
<svg width="13px" height="14px" viewBox="0 0 13 14" version="1.1" xmlns="http://www.w3.org/2000/svg" xmlns:xlink="http://www.w3.org/1999/xlink">
    <!-- Generator: Sketch 63.1 (92452) - https://sketch.com -->
    <title>Combined Shape Copy 3</title>
    <desc>Created with Sketch.</desc>
    <g id="Page-1" stroke="none" stroke-width="1" fill="none" fill-rule="evenodd">
        <g id="CS_Candidate2020_My_Profile_Resume-Uploaded" transform="translate(-147.000000, -526.000000)" fill="#A3A9AE" fill-rule="nonzero">
            <g id="Group-12" transform="translate(27.000000, 495.000000)">
                <path d="M123.570988,31 C123.771605,31 123.972222,31.1637427 123.972222,31.4093567 L123.972222,33.251462 L123.972222,33.251462 C123.972222,33.497076 123.771605,33.6608187 123.570988,33.6608187 C123.37037,33.6608187 123.169753,33.497076 123.169753,33.251462 L123.169753,32.7602339 L121.604938,32.7602339 C121.16358,32.7602339 120.762346,33.1695906 120.762346,33.619883 L120.762346,35.0116959 L132.237654,35.0116959 L132.237654,33.619883 C132.237654,33.1695906 131.876543,32.7602339 131.395062,32.7602339 C131.194444,32.7602339 131.033951,32.5964912 131.033951,32.3918129 C131.033951,32.1461988 131.194444,31.9824561 131.395062,31.9824561 C132.277778,31.9824561 133,32.7192982 133,33.619883 L133,43.3625731 C133,44.2631579 132.277778,45 131.395062,45 L121.604938,45 C120.722222,45 120,44.2631579 120,43.3625731 L120,33.619883 C120,32.7192982 120.722222,31.9824561 121.604938,31.9824561 L123.169753,31.9824561 L123.169753,31.4093567 C123.169753,31.1637427 123.37037,31 123.570988,31 Z M132.237654,35.7894737 L120.762346,35.7894737 L120.762346,43.3625731 C120.762346,43.8538012 121.16358,44.2222222 121.604938,44.2222222 L131.395062,44.2222222 C131.876543,44.2222222 132.237654,43.8538012 132.237654,43.3625731 L132.237654,35.7894737 Z M123.691358,41.7660819 C123.771605,41.7660819 123.851852,41.8479532 123.851852,41.9707602 L123.851852,42.9122807 C123.851852,43.0350877 123.771605,43.1169591 123.691358,43.1169591 L122.32716,43.1169591 C122.20679,43.1169591 122.126543,43.0350877 122.126543,42.9122807 L122.126543,41.9707602 C122.126543,41.8479532 122.20679,41.7660819 122.32716,41.7660819 L123.691358,41.7660819 Z M127.182099,41.7660819 C127.302469,41.7660819 127.382716,41.8479532 127.382716,41.9707602 L127.382716,42.9122807 C127.382716,43.0350877 127.302469,43.1169591 127.182099,43.1169591 L125.817901,43.1169591 C125.737654,43.1169591 125.617284,43.0350877 125.617284,42.9122807 L125.617284,41.9707602 C125.617284,41.8479532 125.737654,41.7660819 125.817901,41.7660819 L127.182099,41.7660819 Z M123.691358,39.3508772 C123.771605,39.3508772 123.851852,39.4327485 123.851852,39.5555556 L123.851852,40.4561404 C123.851852,40.5789474 123.771605,40.6608187 123.691358,40.6608187 L122.32716,40.6608187 C122.20679,40.6608187 122.126543,40.5789474 122.126543,40.4561404 L122.126543,39.5555556 C122.126543,39.4327485 122.20679,39.3508772 122.32716,39.3508772 L123.691358,39.3508772 Z M127.182099,39.3508772 C127.302469,39.3508772 127.382716,39.4327485 127.382716,39.5555556 L127.382716,40.4561404 C127.382716,40.5789474 127.302469,40.6608187 127.182099,40.6608187 L125.817901,40.6608187 C125.737654,40.6608187 125.617284,40.5789474 125.617284,40.4561404 L125.617284,39.5555556 C125.617284,39.4327485 125.737654,39.3508772 125.817901,39.3508772 L127.182099,39.3508772 Z M130.712963,39.3508772 C130.79321,39.3508772 130.873457,39.4327485 130.873457,39.5555556 L130.873457,40.4561404 C130.873457,40.5789474 130.79321,40.6608187 130.712963,40.6608187 L129.348765,40.6608187 C129.228395,40.6608187 129.148148,40.5789474 129.148148,40.4561404 L129.148148,39.5555556 C129.148148,39.4327485 129.228395,39.3508772 129.348765,39.3508772 L130.712963,39.3508772 Z M123.691358,36.8947368 C123.771605,36.8947368 123.851852,36.9766082 123.851852,37.0994152 L123.851852,38.0409357 C123.851852,38.1637427 123.771605,38.245614 123.691358,38.245614 L122.32716,38.245614 C122.20679,38.245614 122.126543,38.1637427 122.126543,38.0409357 L122.126543,37.0994152 C122.126543,36.9766082 122.20679,36.8947368 122.32716,36.8947368 L123.691358,36.8947368 Z M127.182099,36.8947368 C127.302469,36.8947368 127.382716,36.9766082 127.382716,37.0994152 L127.382716,38.0409357 C127.382716,38.1637427 127.302469,38.245614 127.182099,38.245614 L125.817901,38.245614 C125.737654,38.245614 125.617284,38.1637427 125.617284,38.0409357 L125.617284,37.0994152 C125.617284,36.9766082 125.737654,36.8947368 125.817901,36.8947368 L127.182099,36.8947368 Z M130.712963,36.8947368 C130.79321,36.8947368 130.873457,36.9766082 130.873457,37.0994152 L130.873457,38.0409357 C130.873457,38.1637427 130.79321,38.245614 130.712963,38.245614 L129.348765,38.245614 C129.228395,38.245614 129.148148,38.1637427 129.148148,38.0409357 L129.148148,37.0994152 C129.148148,36.9766082 129.228395,36.8947368 129.348765,36.8947368 L130.712963,36.8947368 Z M129.429012,31 C129.669753,31 129.830247,31.1637427 129.830247,31.4093567 L129.830247,33.251462 C129.830247,33.497076 129.669753,33.6608187 129.429012,33.6608187 C129.228395,33.6608187 129.067901,33.497076 129.067901,33.251462 L129.067901,32.7602339 L125.296296,32.7602339 C125.095679,32.7602339 124.895062,32.5964912 124.895062,32.3918129 C124.895062,32.1461988 125.095679,31.9824561 125.296296,31.9824561 L129.067901,31.9824561 L129.067901,31.4093567 C129.067901,31.1637427 129.228395,31 129.429012,31 Z" id="Combined-Shape-Copy-3"></path>
            </g>
        </g>
    </g>
</svg>