<?xml version="1.0" encoding="UTF-8"?>
<svg width="114px" height="29px" viewBox="0 0 114 29" version="1.1" xmlns="http://www.w3.org/2000/svg" xmlns:xlink="http://www.w3.org/1999/xlink">
    <!-- Generator: Sketch 63.1 (92452) - https://sketch.com -->
    <title>Group Copy 2</title>
    <desc>Created with Sketch.</desc>
    <g id="Page-1" stroke="none" stroke-width="1" fill="none" fill-rule="evenodd">
        <g id="Tal_Menu_inactive" transform="translate(-270.000000, -829.000000)">
            <g id="Group-22" transform="translate(91.000000, -2.000000)">
                <g id="Group-Copy-2" transform="translate(179.000000, 831.000000)">
                    <path d="M16.475107,16.4426721 C15.8690266,17.0500126 15.0509593,17.396631 14.1760725,17.396631 C12.3803791,17.396631 10.9248247,15.9383944 10.9248247,14.1394217 C10.9248247,12.3406467 12.3804077,10.8824387 14.1760725,10.8824387 C14.9345074,10.8824387 15.6511923,11.1424893 16.2270252,11.6119774 L17.1367399,10.4922611 C16.3061784,9.81508767 15.2689836,9.43873939 14.1760725,9.43873939 C11.5844659,9.43873939 9.48366755,11.5433263 9.48366755,14.1394217 C9.48366755,16.7357021 11.5844247,18.8403304 14.1760725,18.8403304 C15.4371402,18.8403304 16.6206057,18.3388912 17.4943192,17.4633612 L16.475107,16.4426721 Z" id="Stroke-1" fill="#E16240" fill-rule="nonzero"></path>
                    <path d="M11.1168268,8.39760811 L10.4433061,7.12163255 C11.5699216,6.52087224 12.8284975,6.20227595 14.131357,6.20227595 C18.4829258,6.20227595 22.0106419,9.7480539 22.0106419,14.1217306 C22.0106419,18.4955952 18.4829641,22.0414117 14.131357,22.0414117 C9.77974977,22.0414117 6.25207204,18.4955952 6.25207204,14.1217306 L7.68917644,14.1217306 C7.68917644,17.6978721 10.5734546,20.5969807 14.131357,20.5969807 C17.6892593,20.5969807 20.5735375,17.6978721 20.5735375,14.1217306 C20.5735375,10.5457841 17.6892279,7.64670692 14.131357,7.64670692 C13.0647407,7.64670692 12.0372223,7.90681324 11.1168268,8.39760811 Z M7.46167978,21.0039382 L6.45883582,22.0385416 C4.34834208,19.9719225 3.13560397,17.1429494 3.13560397,14.1217306 C3.13560397,8.01807315 8.058659,3.06991969 14.131357,3.06991969 C20.2042049,3.06991969 25.1271099,8.01799737 25.1271099,14.1217306 C25.1271099,18.5981692 22.4548645,22.5796924 18.4253492,24.2993187 L17.8636953,22.9697695 C21.3669669,21.4747217 23.6900055,18.0135006 23.6900055,14.1217306 C23.6900055,8.81572966 19.4105091,4.51435066 14.131357,4.51435066 C8.85234985,4.51435066 4.57270838,8.81581034 4.57270838,14.1217306 C4.57270838,16.7492937 5.62607129,19.2064897 7.46167978,21.0039382 Z" id="Stroke-2" fill="#465191" fill-rule="nonzero"></path>
                    <path d="M22.1276905,23.8566066 C19.8829262,25.7346248 17.0614436,26.7797948 14.078132,26.7797948 C7.12756211,26.7797948 1.49297992,21.1205399 1.49297992,14.1395349 C1.49297992,7.15852983 7.12756211,1.49927495 14.078132,1.49927495 C17.0216436,1.49927495 19.8080123,2.51665293 22.0394122,4.34925388 L22.9131375,3.27605687 C20.4373969,1.2427841 17.3430847,0.112967685 14.078132,0.112967685 C6.36526371,0.112967685 0.112716556,6.39289347 0.112716556,14.1395349 C0.112716556,21.8861763 6.36526371,28.1661021 14.078132,28.1661021 C17.3872541,28.1661021 20.5205451,27.005428 23.0110887,24.9217855 L22.1276905,23.8566066 Z" id="Stroke-3" fill="#465191" fill-rule="nonzero"></path>
                    <path d="M18.627902,11.940888 C18.627902,12.7363258 17.9849878,13.3813421 17.1919186,13.3813421 C16.3990731,13.3813421 15.7561589,12.7363258 15.7561589,11.940888 C15.7561589,11.1452257 16.3990731,10.5002093 17.1919186,10.5002093 C17.9849878,10.5002093 18.627902,11.1452257 18.627902,11.940888" id="Fill-4" fill="#E16240"></path>
                    <path d="M12.3554106,7.99828528 C12.3554106,8.79394759 11.7127202,9.43873939 10.919651,9.43873939 C10.1265817,9.43873939 9.48366755,8.79394759 9.48366755,7.99828528 C9.48366755,7.20262298 10.1265817,6.55760667 10.919651,6.55760667 C11.7127202,6.55760667 12.3554106,7.20262298 12.3554106,7.99828528" id="Fill-5" fill="#E16240"></path>
                    <path d="M19.5347682,23.5412381 C19.5347682,24.3369004 18.8920778,24.9816922 18.0990086,24.9816922 C17.3059394,24.9816922 16.6630252,24.3369004 16.6630252,23.5412381 C16.6630252,22.7455758 17.3059394,22.1005595 18.0990086,22.1005595 C18.8920778,22.1005595 19.5347682,22.7455758 19.5347682,23.5412381" id="Fill-6" fill="#E16240"></path>
                    <path d="M24.8248212,4.28314046 C24.8248212,5.07880276 24.181907,5.72359456 23.3890616,5.72359456 C22.5959923,5.72359456 21.9530781,5.07880276 21.9530781,4.28314046 C21.9530781,3.48747815 22.5959923,2.84246184 23.3890616,2.84246184 C24.181907,2.84246184 24.8248212,3.48747815 24.8248212,4.28314046" id="Fill-7" fill="#E16240"></path>
                    <path d="M24.8248212,23.6168329 C24.8248212,24.4124952 24.181907,25.0575115 23.3890616,25.0575115 C22.5959923,25.0575115 21.9530781,24.4124952 21.9530781,23.6168329 C21.9530781,22.8211706 22.5959923,22.1763788 23.3890616,22.1763788 C24.181907,22.1763788 24.8248212,22.8211706 24.8248212,23.6168329" id="Fill-8" fill="#E16240"></path>
                    <path d="M18.627902,16.262587 C18.627902,17.0582493 17.9849878,17.7030411 17.1919186,17.7030411 C16.3990731,17.7030411 15.7561589,17.0582493 15.7561589,16.262587 C15.7561589,15.4669247 16.3990731,14.8219084 17.1919186,14.8219084 C17.9849878,14.8219084 18.627902,15.4669247 18.627902,16.262587" id="Fill-9" fill="#E16240"></path>
                    <path d="M8.42565695,14.1394226 C8.42565695,14.9350849 7.78274277,15.5801012 6.98967354,15.5801012 C6.19660432,15.5801012 5.55391391,14.9350849 5.55391391,14.1394226 C5.55391391,13.3439848 6.19660432,12.6989685 6.98967354,12.6989685 C7.78274277,12.6989685 8.42565695,13.3439848 8.42565695,14.1394226" id="Fill-10" fill="#E16240"></path>
                    <path d="M8.42565695,21.5699368 C8.42565695,22.3653746 7.78274277,23.0103909 6.98967354,23.0103909 C6.19660432,23.0103909 5.55391391,22.3653746 5.55391391,21.5699368 C5.55391391,20.7742745 6.19660432,20.1292582 6.98967354,20.1292582 C7.78274277,20.1292582 8.42565695,20.7742745 8.42565695,21.5699368" id="Fill-11" fill="#E16240"></path>
                    <path d="M37.3857679,8.22563088 C38.8267489,8.22563088 40.0365395,8.93879249 40.8192387,9.74129773 L39.3782578,11.3642223 C38.7912333,10.8292944 38.2397245,10.4902875 37.4212835,10.4902875 C35.8024986,10.4902875 34.5393215,11.8991502 34.5393215,14.2354631 C34.5393215,16.6250647 35.6602102,18.0160134 37.3502524,18.0160134 C38.3107555,18.0160134 38.9869082,17.6060305 39.5562879,16.9817589 L40.9972689,18.5690821 C40.0365395,19.6924534 38.7557178,20.2808967 37.3147368,20.2808967 C34.3081312,20.2808967 31.8530344,18.2300752 31.8530344,14.32458 C31.8530344,10.4726002 34.3970332,8.22563088 37.3857679,8.22563088" id="Fill-12" fill="#465191"></path>
                    <path d="M42.5087126,7.61907662 L45.113185,7.61907662 L45.113185,17.49834 C45.113185,18.0521603 45.3612407,18.2307094 45.5739243,18.2307094 C45.6802661,18.2307094 45.7512357,18.2307094 45.8929496,18.195045 L46.2117497,20.1422754 C45.9283218,20.2674415 45.4853812,20.356716 44.9005014,20.356716 C43.1109405,20.356716 42.5087126,19.1777467 42.5087126,17.3911197 L42.5087126,7.61907662" id="Fill-13" fill="#465191"></path>
                    <path d="M47.5587659,20.1292582 L50.1726479,20.1292582 L50.1726479,11.2746754 L47.5587659,11.2746754 L47.5587659,20.1292582 Z M47.3453325,8.59675826 C47.3453325,7.79340582 47.9856329,7.23998021 48.8567762,7.23998021 C49.746007,7.23998021 50.3682199,7.79340582 50.3682199,8.59675826 C50.3682199,9.40011069 49.746007,9.97146929 48.8567762,9.97146929 C47.9856329,9.97146929 47.3453325,9.40011069 47.3453325,8.59675826 L47.3453325,8.59675826 Z" id="Fill-14" fill="#465191"></path>
                    <polyline id="Fill-15" fill="#465191" points="52.4086689 7.61907662 54.9461118 7.61907662 54.9461118 14.7931026 55.0169599 14.7931026 57.8028222 11.2775712 60.6419334 11.2775712 57.5544028 14.9181386 60.8727536 20.1292582 58.0512416 20.1292582 56.0638864 16.6849814 54.9461118 17.951907 54.9461118 20.1292582 52.4086689 20.1292582 52.4086689 7.61907662"></polyline>
                    <path d="M63.1321649,16.8035252 C63.946204,17.5166868 65.0074466,18.0160134 65.9627448,18.0160134 C67.0417573,18.0160134 67.5726035,17.5878896 67.5726035,16.8926421 C67.5726035,16.1613396 66.9180431,15.9295904 65.9096602,15.5014667 L64.4237407,14.8595079 C63.2207892,14.3780954 62.0886922,13.3794424 62.0886922,11.6853151 C62.0886922,9.75921181 63.8044951,8.22563088 66.1926282,8.22563088 C67.5192939,8.22563088 68.916814,8.76055878 69.907652,9.75921181 L68.5983063,11.4177377 C67.8378016,10.8292944 67.1126117,10.4902875 66.1926282,10.4902875 C65.3081845,10.4902875 64.7244786,10.8828098 64.7244786,11.542456 C64.7244786,12.2558444 65.4849833,12.5055076 66.4933661,12.9157173 L67.9615158,13.5220747 C69.3590359,14.092604 70.2437046,15.0377416 70.2437046,16.6785802 C70.2437046,18.6046835 68.6516159,20.2808967 65.9096602,20.2808967 C64.4059708,20.2808967 62.8138821,19.7103674 61.6284755,18.6046835 L63.1321649,16.8035252" id="Fill-16" fill="#E16240"></path>
                    <path d="M75.8072527,18.1640046 C76.8679093,18.1640046 77.4159976,17.1857421 77.4159976,15.6560336 C77.4159976,14.126099 76.8679093,13.1478365 75.8072527,13.1478365 C74.7286112,13.1478365 74.1980581,14.126099 74.1980581,15.6560336 C74.1980581,17.1857421 74.7286112,18.1640046 75.8072527,18.1640046 Z M75.8072527,11.0309443 C78.0171413,11.0309443 80.0680887,12.7207938 80.0680887,15.6560336 C80.0680887,18.5910473 78.0171413,20.2808967 75.8072527,20.2808967 C73.5796041,20.2808967 71.5284318,18.5910473 71.5284318,15.6560336 C71.5284318,12.7207938 73.5796041,11.0309443 75.8072527,11.0309443 L75.8072527,11.0309443 Z" id="Fill-17" fill="#E16240"></path>
                    <path d="M81.7306768,11.2584022 L84.3326559,11.2584022 L84.3326559,16.3912713 C84.3326559,17.6523564 84.6689324,18.0606734 85.4301688,18.0606734 C86.0851653,18.0606734 86.4745618,17.7767937 86.98798,17.0839196 L86.98798,11.2584022 L89.5901841,11.2584022 L89.5901841,20.0677047 L87.4658348,20.0677047 L87.2711365,18.8423022 L87.2182416,18.8423022 C86.4745618,19.7303012 85.6604305,20.2808967 84.4566775,20.2808967 C82.5448082,20.2808967 81.7306768,18.9310569 81.7306768,16.7286748 L81.7306768,11.2584022" id="Fill-18" fill="#E16240"></path>
                    <path d="M91.9329219,11.2441363 L94.0506981,11.2441363 L94.2273103,12.7893269 L94.2977757,12.7893269 C94.9330861,11.5993811 95.886164,11.0309443 96.7862806,11.0309443 C97.2804358,11.0309443 97.5804747,11.1020836 97.8275523,11.2086796 L97.4038624,13.4641339 C97.0863194,13.3753792 96.8215132,13.3220811 96.451009,13.3220811 C95.79797,13.3220811 94.9860474,13.7484652 94.5273492,14.938411 L94.5273492,20.0534389 L91.9329219,20.0534389 L91.9329219,11.2441363" id="Fill-19" fill="#E16240"></path>
                    <path d="M102.846338,11.0309443 C103.925634,11.0309443 104.828084,11.4401181 105.411944,12.0449445 L104.22645,13.6635448 C103.801887,13.3077513 103.412422,13.1478365 103.005633,13.1478365 C101.749267,13.1478365 100.952789,14.126099 100.952789,15.6560336 C100.952789,17.1857421 101.784591,18.1640046 102.916986,18.1640046 C103.553944,18.1640046 104.067155,17.8615914 104.491943,17.5236668 L105.535915,19.1780047 C104.686338,19.9251032 103.571718,20.2808967 102.616169,20.2808967 C100.174534,20.2808967 98.2809854,18.5910473 98.2809854,15.6560336 C98.2809854,12.7207938 100.422028,11.0309443 102.846338,11.0309443" id="Fill-20" fill="#E16240"></path>
                    <path d="M111.716615,14.7485679 C111.716615,13.734794 111.292615,13.023207 110.250804,13.023207 C109.438286,13.023207 108.731768,13.574653 108.55525,14.7485679 L111.716615,14.7485679 Z M110.197579,11.0309443 C112.687909,11.0309443 113.924428,12.8632921 113.924428,15.2647286 C113.924428,15.7272828 113.871428,16.1538731 113.818203,16.3676206 L108.572992,16.3676206 C108.802285,17.7016766 109.685544,18.2886341 110.851097,18.2886341 C111.50484,18.2886341 112.105133,18.0929816 112.740909,17.7016766 L113.606427,19.2847654 C112.705651,19.9072344 111.540098,20.2808967 110.497838,20.2808967 C107.989991,20.2808967 106.064921,18.5734046 106.064921,15.6560336 C106.064921,12.792043 108.095991,11.0309443 110.197579,11.0309443 L110.197579,11.0309443 Z" id="Fill-21" fill="#E16240"></path>
                </g>
            </g>
        </g>
    </g>
</svg>