<?xml version="1.0" encoding="UTF-8"?>
<svg width="154px" height="37px" viewBox="0 0 154 37" version="1.1" xmlns="http://www.w3.org/2000/svg" xmlns:xlink="http://www.w3.org/1999/xlink">
    <!-- Generator: Sketch 63.1 (92452) - https://sketch.com -->
    <title> Collabera Logos/ Collabera</title>
    <desc>Created with Sketch.</desc>
    <g id="Page-1" stroke="none" stroke-width="1" fill="none" fill-rule="evenodd">
        <g id="Tal_Login" transform="translate(-29.000000, -95.000000)" fill="#29ABE2">
            <g id="-Collabera-Logos/-Collabera" transform="translate(29.000000, 95.000000)">
                <g id="Collabera-logo-(1)" transform="translate(0.000000, 0.000000)">
                    <path d="M80.2978037,32.6756739 C80.1722463,33.3342097 80.0646256,33.8979368 79.957005,34.4693511 C79.9236938,34.6359068 79.8980699,34.805025 79.8493844,34.9664559 C79.742016,35.4322717 79.3330453,35.766405 78.8551747,35.7787354 C78.3806714,35.8060974 77.9049858,35.8060974 77.4304825,35.7787354 C76.89489,35.7566067 76.4738361,35.3128545 76.4797703,34.7768386 C76.4797703,34.6230948 76.4797703,34.4719135 76.4797703,34.3181697 C76.4797703,23.3852801 76.4797703,12.4523905 76.4797703,1.51950083 C76.4797703,1.38369384 76.4797703,1.24788686 76.4797703,1.11207987 C76.495208,0.563727121 76.7565724,0.199866889 77.3023627,0.110183028 C78.0731641,-0.0217486121 78.8607794,-0.0217486121 79.6315807,0.110183028 C80.0682494,0.187625743 80.385429,0.568674334 80.3823627,1.01214642 C80.3823627,1.18126456 80.3823627,1.35294509 80.3823627,1.52462562 C80.3823627,5.72012202 80.3823627,9.91476428 80.3823627,14.1085524 L80.3823627,14.5954077 L80.4592346,14.6056572 C80.6693511,14.3084193 80.8717804,14.0060566 81.0870216,13.7139434 C82.4963394,11.8177704 84.4181364,11.0054908 86.7242928,11.2386689 C88.9683375,11.4182872 90.9902886,12.6627114 92.1616972,14.5851581 C93.1154065,16.1180451 93.7118129,17.8459597 93.9066889,19.6407654 C94.1263596,21.5645786 94.183789,23.5034628 94.0783694,25.4369052 C94.0359734,27.3582724 93.6900497,29.2608532 93.053411,31.0741764 C92.6647412,32.2012676 92.0421255,33.2334299 91.2264226,34.1029285 C90.2446214,35.1065016 88.9577829,35.7562289 87.5673211,35.950416 C86.5467567,36.1141825 85.5049594,36.0916103 84.4924459,35.8837937 C83.0793148,35.5976895 81.8238248,34.7945048 80.9717138,33.6314476 C80.7744093,33.3521464 80.5745424,33.0549085 80.2978037,32.6756739 Z M89.8401664,23.6586023 C89.8401664,21.6855574 89.7351082,19.7278869 89.1278203,17.8291514 C88.8357072,16.914376 88.446223,16.0559734 87.7133777,15.3974376 C86.4321797,14.2494842 83.9184692,14.2007987 82.5424626,15.5998669 C81.8737931,16.3025703 81.3719606,17.14684 81.0742097,18.0700166 C80.3951747,20.0225624 80.3054908,22.0571048 80.3054908,24.0942097 C80.2996736,24.9590968 80.3484561,25.8234888 80.4515474,26.6822296 C80.5565501,27.7630836 80.8064902,28.8248979 81.1946423,29.8391015 C81.9633611,31.6763394 83.3034942,32.8550416 85.6275874,32.708985 C86.5036169,32.6685673 87.333144,32.3031369 87.9542429,31.6840266 C88.6489973,30.9534977 89.122539,30.0410638 89.32,29.0524459 C89.7156956,27.2837517 89.8912695,25.4729313 89.8427288,23.6611647 L89.8401664,23.6586023 Z" id="Shape" fill-rule="nonzero"></path>
                    <path d="M140.357804,32.5424293 C140.178436,32.5654908 140.145125,32.6936106 140.081065,32.7986689 C138.779368,34.7384027 136.898569,35.6736772 134.638536,35.9811647 C133.579039,36.143639 132.497429,36.0860694 131.461165,35.8120466 C129.429185,35.2457571 128.037804,33.9517471 127.410017,31.9428286 C126.696114,29.7933199 126.787172,27.4576868 127.666256,25.3702829 C128.38961,23.5916047 129.89918,22.2506071 131.750715,21.7419301 C132.860422,21.423449 134.004913,21.2418793 135.158702,21.2012646 C136.734576,21.1218303 138.307887,21.0090849 139.881198,20.9142762 C140.068253,20.9142762 140.209185,20.8809651 140.206622,20.634975 C140.206622,19.651015 140.250183,18.6644925 140.070815,17.690782 C139.77614,16.0918469 138.884426,15.2334443 137.25218,14.9823295 C135.738415,14.7441885 134.191795,14.8209525 132.709052,15.2078203 L131.120366,15.6306156 C130.972989,15.670793 130.823216,15.7016033 130.671947,15.7228619 C130.43604,15.777055 130.188259,15.7347149 129.983733,15.6052621 C129.779207,15.4758093 129.634903,15.2699825 129.582928,15.0335774 C129.424437,14.4092297 129.302939,13.7760709 129.219068,13.1374043 C129.175148,12.912398 129.224184,12.6791953 129.355003,12.4909316 C129.485822,12.302668 129.687281,12.1753798 129.913478,12.1380699 C131.304749,11.7631509 132.719889,11.4832049 134.149118,11.3001664 C135.313368,11.1751129 136.487663,11.1751129 137.651913,11.3001664 C139.134377,11.4230025 140.545337,11.9900654 141.700499,12.9272879 C143.050882,14.0470549 143.719667,15.535807 143.945158,17.2449251 C144.105103,18.5934018 144.17359,19.9511583 144.15015,21.3088852 C144.15015,24.1454576 144.180899,26.9794676 144.15015,29.8160399 C144.157254,31.4235768 144.342014,33.025404 144.701065,34.5923461 C144.736544,34.7401771 144.756299,34.891344 144.76,35.0433278 C144.76,35.4994343 144.539634,35.7531115 144.08609,35.7633611 C143.288331,35.782152 142.490571,35.782152 141.692812,35.7633611 C141.24213,35.7990583 140.845733,35.4675886 140.801098,35.0177038 C140.644792,34.248985 140.529484,33.4495175 140.393677,32.6628619 C140.38599,32.6398003 140.37574,32.6090516 140.357804,32.5424293 Z M140.19381,26.0339434 C140.19381,25.3882196 140.19381,24.7527454 140.19381,24.096772 C140.19381,23.8687188 140.152812,23.7739101 139.878636,23.7918469 C138.725557,23.8610316 137.572479,23.876406 136.419401,23.9507155 C135.519315,23.9808954 134.628456,24.1423203 133.775008,24.4298835 C132.624109,24.8131455 131.735101,25.7375985 131.397105,26.9025957 C131.046818,28.0269858 131.000842,29.224136 131.26386,30.3720799 C131.604659,31.8710815 132.709052,32.747421 134.246489,32.8089185 C136.209285,32.8883527 137.782596,32.106822 139.020233,30.6360067 C139.812861,29.7551613 140.23428,28.6019983 140.196373,27.4176373 C140.175874,26.9615308 140.19381,26.5002995 140.19381,26.0416306 L140.19381,26.0339434 Z" id="Shape" fill-rule="nonzero"></path>
                    <path d="M69.533178,32.5424293 C69.4153078,32.5654908 69.3819967,32.6705491 69.3281864,32.7525458 C68.2135441,34.4847255 66.5812978,35.432812 64.6082529,35.8504825 C63.4293244,36.1233345 62.2050478,36.1355773 61.0208985,35.8863561 C58.7480532,35.3738769 57.2618636,33.9953078 56.5802662,31.7865225 C56.0540993,30.0708527 56.0203612,28.2418947 56.4828952,26.5079867 C57.2003661,23.740599 59.0273544,22.103228 61.8126789,21.5164393 C62.7107268,21.3374116 63.6214902,21.2294566 64.5365058,21.1935774 C66.0611314,21.1167055 67.5831947,21.0013977 69.1078203,20.9168386 C69.3819967,20.9014642 69.4460566,20.7861564 69.4460566,20.5401664 C69.4514239,19.6074587 69.3966458,18.6753754 69.2820632,17.7497171 C69.0616972,16.0892845 68.0008652,15.2385691 66.4634276,14.9874542 C64.951166,14.7375655 63.402924,14.8144533 61.9228619,15.2129451 C61.3488852,15.3666889 60.7774709,15.5204326 60.2009318,15.6639268 C59.3655907,15.8740433 58.9197338,15.5896173 58.7352413,14.7363394 C58.6404326,14.2879201 58.5430616,13.8420632 58.4790017,13.3885191 C58.3662562,12.6505491 58.5994343,12.2482529 59.3245923,12.0816972 C60.8466556,11.7332113 62.3610316,11.3488519 63.9240932,11.2489185 C65.7177704,11.1336106 67.5319468,11.1694842 69.2282529,11.9048918 C71.4908486,12.8811647 72.7720466,14.6056572 73.1333444,17.0424958 C73.298542,18.2360119 73.3713595,19.4404996 73.3511481,20.6452246 C73.3511481,22.7668885 73.3511481,24.8911148 73.3511481,27.0127787 C73.3511481,28.4400333 73.4049584,29.8647255 73.4177704,31.2894176 C73.4177704,32.3323128 73.7073211,33.3393344 73.8892512,34.3514809 C73.9365388,34.5670227 73.9707664,34.7852235 73.9917471,35.0048918 C74.0296036,35.2024793 73.9735824,35.4064453 73.8401117,35.5569761 C73.7066411,35.7075069 73.5108482,35.7875419 73.3101498,35.7736106 C72.5132446,35.7941098 71.713777,35.7941098 70.9168719,35.7736106 C70.3838935,35.7582363 70.089218,35.4533111 69.9841597,34.8716473 C69.8688519,34.2207987 69.7740433,33.5673877 69.668985,32.9139767 C69.6433611,32.7807321 69.668985,32.6346755 69.533178,32.5424293 Z M69.4409318,26.1364393 C69.4409318,25.3830948 69.4409318,24.7553078 69.4409318,24.1275208 C69.4409318,23.7969717 69.4178702,23.7918469 69.0873211,23.8072213 L65.8356406,23.9481531 C65.0573763,23.9762589 64.284309,24.0870652 63.5294842,24.2787022 C61.8408652,24.7168719 60.8082196,25.785391 60.4699834,27.5124459 C60.3648852,28.1998357 60.333104,28.8964451 60.3751747,29.5905491 C60.3889915,30.0288648 60.4755853,30.4618338 60.6314143,30.8717471 C60.9517354,31.8290545 61.7713291,32.5335313 62.7658902,32.7064226 C64.0571698,32.9881137 65.4073138,32.7633954 66.5377371,32.0786356 C68.0751747,31.1792346 69.1001331,29.8826622 69.3999334,28.088985 C69.5178037,27.4176373 69.4204326,26.7052912 69.4409318,26.1364393 Z" id="Shape" fill-rule="nonzero"></path>
                    <path d="M106.757105,24.6502496 L100.84822,24.6502496 C100.730349,24.6502496 100.609917,24.6502496 100.492047,24.6502496 C100.297304,24.6502496 100.21787,24.7296839 100.235807,24.924426 C100.340865,26.8410982 100.64579,28.7065225 101.724559,30.3515807 C102.397432,31.3478252 103.432691,32.041982 104.609817,32.2861897 C105.772799,32.5378871 106.969576,32.5941754 108.151048,32.4527454 C109.211494,32.3254325 110.257956,32.1007003 111.277171,31.7813977 C111.325857,31.7685857 111.374542,31.7480865 111.423228,31.7352745 C112.212446,31.53797 112.594243,31.7352745 112.878669,32.5039933 C113.006789,32.8550416 113.134908,33.2009651 113.257903,33.5571381 C113.47827,34.2515474 113.298902,34.6384692 112.624992,34.9408319 C112.098619,35.1781584 111.555663,35.3768423 111.000433,35.5353078 C109.177898,36.0243228 107.281656,36.1780018 105.40416,35.9888519 C104.030078,35.8945724 102.686929,35.5370372 101.44782,34.9357072 C99.7014311,34.0622474 98.2990993,32.6274291 97.4658569,30.8614975 C96.7447605,29.3419739 96.2988331,27.7066176 96.1487854,26.031381 C95.9952842,24.6143855 95.9712692,23.1863473 96.0770383,21.7649917 C96.2512812,19.366589 96.8098835,17.0706822 98.1448918,15.031015 C99.4260899,13.0861564 101.168519,11.789584 103.49005,11.3693511 C105.647587,10.9798669 107.725691,11.2412313 109.6398,12.3533111 C111.077304,13.1912146 112.053577,14.4698502 112.737737,15.9714143 C113.483529,17.668525 113.917524,19.4860972 114.018935,21.3370715 C114.070183,22.0314809 114.103494,22.7258902 114.10107,23.4202995 C114.10107,24.2274542 113.683261,24.6476872 112.881231,24.6502496 C110.834731,24.6536661 108.793356,24.6536661 106.757105,24.6502496 Z M105.058236,21.4036938 L105.924326,21.4036938 C107.128652,21.4036938 108.335541,21.4036938 109.539867,21.4036938 C109.926789,21.4036938 109.939601,21.4036938 109.921664,21.0013977 C109.903727,20.5991015 109.865291,20.2583028 109.816606,19.8867554 C109.712336,18.8043485 109.401822,17.7519088 108.90183,16.7862562 C108.496697,15.9949641 107.874524,15.3354606 107.108153,14.8849584 C105.391538,14.0181845 103.302652,14.4688542 102.096106,15.9662895 C100.90203,17.4524792 100.430549,19.2051581 100.248619,21.055208 C100.215308,21.3908819 100.248619,21.4036938 100.627854,21.4036938 C102.096106,21.4062562 103.574609,21.4036938 105.058236,21.4036938 Z" id="Shape" fill-rule="nonzero"></path>
                    <path d="M4.82242928,18.7054908 C4.77050223,20.7737184 4.98145225,22.8401676 5.45021631,24.8552413 C5.85251248,26.4823627 6.43417637,28.0351747 7.50013311,29.3650582 C8.76123429,31.004969 10.6746219,32.0135909 12.7402329,32.1273211 C14.4109151,32.2554409 15.9662895,31.822396 17.4909151,31.2253577 C18.2109484,30.9434942 18.5414975,31.0485524 18.8848586,31.7378369 C19.1615973,32.3015641 19.4280865,32.870416 19.6868885,33.4418303 C19.8113625,33.6498249 19.8396642,33.9015318 19.7644877,34.1319749 C19.6893111,34.362418 19.5180237,34.5490138 19.2948419,34.643594 C18.9943505,34.8011043 18.6855576,34.9422424 18.369817,35.0663894 C16.2430283,35.9786023 14.0137438,36.1759068 11.7357737,35.9837271 C9.93330488,35.8596376 8.1866782,35.3061292 6.64173045,34.3694176 C5.01385735,33.3444075 3.6735354,31.922079 2.74688852,30.2362729 C1.68421526,28.2926081 0.978642852,26.1741551 0.663660566,23.9814642 C0.330375643,21.8986793 0.199083606,19.7885674 0.271613977,17.6805324 C0.361297837,14.6440932 0.889151414,11.6845258 2.20878536,8.90945092 C3.77184692,5.63727121 6.17537438,3.2721797 9.73710483,2.21391015 C11.4536893,1.73339641 13.2472294,1.590679 15.018203,1.7936772 C16.1209943,1.86622307 17.2045813,2.11807915 18.2263228,2.53933444 C18.552951,2.68481592 18.8674201,2.85618872 19.1667221,3.05181364 C19.7201997,3.41054908 19.8508819,3.90252912 19.5510815,4.49956739 C19.2948419,4.98386023 19.0591015,5.46815308 18.8002995,5.94475874 C18.4159401,6.65198003 18.0751414,6.76728785 17.347421,6.45723794 C16.750735,6.16852166 16.1266773,5.94018693 15.4845591,5.7756406 C12.6198003,5.14016639 9.99334443,5.57321131 7.83580699,7.68718802 C6.72372712,8.76339434 6.08825291,10.1342762 5.65520799,11.6050915 C5.26906378,12.9940582 5.0227036,14.4181403 4.91980033,15.8561065 C4.83524126,16.7939434 4.84549085,17.7445923 4.82242928,18.7054908 Z" id="Path" fill-rule="nonzero"></path>
                    <path d="M37.9747088,23.6201664 C38.0389265,25.6696723 37.725361,27.7134938 37.0496839,29.6494842 C36.4384765,31.4826508 35.2970007,33.0932017 33.769817,34.2771714 C32.5473738,35.2060806 31.0994934,35.7924854 29.5751747,35.9760399 C28.2429265,36.1596424 26.8869306,36.0601037 25.5957737,35.6839268 C23.2460566,34.9869551 21.5292512,33.4930782 20.3377371,31.3791015 C19.522705,29.8677754 19.0010474,28.2158596 18.8002995,26.5105491 C18.6143791,25.181592 18.5568868,23.8378174 18.628619,22.4978369 C18.738802,20.4171714 19.107787,18.3980033 20.0276872,16.4915807 C21.2473877,13.982995 23.1281864,12.2021298 25.8750749,11.5102829 C30.0671547,10.4545757 34.2669218,12.07401 36.3808985,16.1097837 C37.0891715,17.50362 37.5586245,19.0063894 37.7697171,20.5555408 C37.9240568,21.5695059 37.9926302,22.5946788 37.9747088,23.6201664 Z M33.7954409,23.643228 C33.7954409,22.8975707 33.7749418,22.1519135 33.7057571,21.4088186 C33.6282449,20.3258513 33.4094402,19.2576706 33.0549085,18.2314476 C32.314376,16.2276539 31.0383028,14.8285857 28.7782696,14.6159068 C27.6375011,14.4796483 26.4864743,14.767861 25.5445258,15.425624 C24.5477537,16.1277205 23.9584027,17.1244925 23.5484193,18.2442596 C23.0000666,19.7458236 22.866822,21.3191348 22.8053245,22.8924459 C22.7391057,24.3847463 22.8361992,25.8798141 23.0948752,27.351015 C23.2715647,28.5612332 23.7086818,29.7187194 24.3760732,30.7436273 C26.1082529,33.2470882 29.5469884,33.1369052 31.2432945,31.7685857 C32.1815351,30.9741188 32.8547295,29.9120272 33.1727787,28.7244592 C33.6878203,27.066589 33.8005657,25.3677205 33.7954409,23.643228 Z" id="Shape" fill-rule="nonzero"></path>
                    <path d="M39.9195674,16.6068885 C39.9195674,11.5811758 39.9195674,6.55460899 39.9195674,1.52718802 C39.9195674,1.42469218 39.9195674,1.32219634 39.9195674,1.2222629 C39.9349418,0.497104825 40.3090516,0.0768718802 41.0342097,0.0358735441 C41.592812,0.00512479201 42.1565391,0.010249584 42.7151414,0.0358735441 C43.4838602,0.0666222962 43.8861564,0.530415973 43.883594,1.27607321 C43.8630948,5.79357737 43.883594,10.3110815 43.883594,14.8285857 C43.883594,20.0934554 43.883594,25.3574709 43.883594,30.6206323 C43.8617643,31.0959045 43.9109921,31.5717735 44.0296506,32.0325125 C44.1910815,32.5680532 44.388386,32.708985 44.9469884,32.721797 C45.3205901,32.712452 45.6919358,32.6608762 46.0539434,32.5680532 C46.594609,32.4578702 46.950782,32.6602995 47.099401,33.1907155 C47.2300832,33.6647587 47.3377038,34.1464892 47.4248253,34.6282196 C47.512689,35.0672906 47.248292,35.5001431 46.8175374,35.6224293 C46.452299,35.7601921 46.0735228,35.8589659 45.6875208,35.9171048 C44.8373509,36.0849334 43.9648858,36.1074598 43.107188,35.9837271 C41.3673211,35.6890516 40.2552413,34.5487854 40.0169384,32.8037937 C39.9565455,32.3493667 39.9274365,31.8913281 39.929817,31.4329118 C39.9229839,26.490904 39.9195674,21.5488963 39.9195674,16.6068885 Z" id="Path" fill-rule="nonzero"></path>
                    <path d="M48.7700832,16.655574 C48.7700832,11.6452357 48.7700832,6.63575153 48.7700832,1.62712146 C48.7700832,1.45800333 48.7700832,1.2863228 48.7700832,1.11464226 C48.747439,0.59916063 49.1180833,0.149961901 49.6284859,0.0743094842 C49.7965878,0.0366107936 49.9687715,0.0202533376 50.1409651,0.0256239601 L51.2479201,0.0256239601 C52.3651248,0.0256239601 52.7187354,0.376672213 52.7187354,1.4785025 C52.7187354,9.37580699 52.7187354,17.2722573 52.7187354,25.1678536 C52.7187354,27.0691514 52.7187354,28.9713034 52.7187354,30.8743095 C52.7081652,31.2477582 52.7478098,31.6209345 52.8366057,31.983827 C52.987787,32.5347421 53.2081531,32.7012978 53.777005,32.7141098 C54.1330195,32.7082177 54.4872045,32.6617954 54.8327121,32.5757404 C55.44,32.4527454 55.7756739,32.6423627 55.93198,33.239401 C56.0524126,33.6980699 56.1446589,34.164426 56.2343428,34.630782 C56.326611,34.9897286 56.1558246,35.3643913 55.8243594,35.530183 C55.7522458,35.576137 55.6748038,35.6131371 55.5937438,35.6403661 C54.3180897,36.0748675 52.9520691,36.1737011 51.6271547,35.9273544 C50.1512146,35.6121797 49.1544426,34.5257238 48.8700166,33.0010982 C48.7855191,32.4819846 48.7494903,31.9561366 48.762396,31.4303494 C48.7675208,26.5071326 48.7700832,21.5822074 48.7700832,16.655574 Z" id="Path" fill-rule="nonzero"></path>
                    <path d="M120.655541,14.772213 C120.831712,14.5998131 120.973459,14.3954553 121.073211,14.1700499 C121.723477,13.0234495 122.714992,12.1080675 123.909784,11.5512812 C124.816672,11.1390285 125.846543,11.0877182 126.789917,11.407787 C127.133765,11.5098867 127.440765,11.7092141 127.673943,11.9817637 C127.897653,12.2234499 127.985226,12.5612304 127.907121,12.8811647 C127.736295,13.555929 127.565469,14.228985 127.394642,14.9003328 C127.362902,15.0150635 127.322646,15.1272662 127.27421,15.2360067 C127.033344,15.7971714 126.841165,15.8996672 126.249251,15.768985 C125.785458,15.6690516 125.329351,15.5409318 124.862995,15.4512479 C123.625358,15.2103827 122.702895,15.7074875 121.993111,16.6581364 C121.383716,17.52206 120.986885,18.5176479 120.834908,19.5638935 C120.695657,20.5387707 120.639083,21.5236764 120.66579,22.5080865 C120.645291,26.4490516 120.66579,30.3900166 120.66579,34.3284193 C120.66579,34.4975374 120.66579,34.669218 120.66579,34.8408985 C120.646808,35.3396783 120.251893,35.7423588 119.753577,35.7710483 C119.041231,35.801797 118.326323,35.801797 117.613977,35.7710483 C117.077177,35.7515863 116.654604,35.3062333 116.663328,34.7691514 C116.663328,34.6512812 116.663328,34.5308486 116.663328,34.4129784 C116.663328,27.22802 116.663328,20.0439157 116.663328,12.8606656 C116.663328,11.8049584 117.004126,11.4564725 118.052146,11.4436606 C118.357072,11.4436606 118.664559,11.4436606 118.966922,11.4641597 C119.439372,11.4892358 119.833272,11.8344275 119.920133,12.2995008 C120.114875,13.0374709 120.310471,13.7754409 120.506922,14.513411 C120.527421,14.6056572 120.509484,14.7107155 120.655541,14.772213 Z" id="Path" fill-rule="nonzero"></path>
                    <path d="M150.697072,7.1234609 C149.829574,7.1275791 148.996453,6.78461252 148.383273,6.17095134 C147.770093,5.55729016 147.42778,4.72390041 147.432529,3.85640599 C147.429041,2.04286277 148.89634,0.569827448 150.709884,0.566283133 C152.523427,0.562751587 153.996462,2.03005079 154,3.84359401 C154.01056,4.72068291 153.665208,5.56460748 153.042798,6.18267125 C152.420389,6.80073502 151.574065,7.1401661 150.697072,7.1234609 Z M148.001431,3.84359401 C147.979636,4.5657618 148.254274,5.26540018 148.761513,5.77989958 C149.268752,6.29439898 149.964417,6.57895127 150.686822,6.56742097 C151.410269,6.58539234 152.110295,6.31033852 152.628002,5.80469301 C153.14571,5.2990475 153.437187,4.60569961 153.436273,3.88202995 C153.472868,2.89203559 152.968062,1.96050189 152.118677,1.45062774 C151.269291,0.940753593 150.209797,0.933260707 149.353284,1.43107051 C148.496772,1.92888031 147.978842,2.85318109 148.001431,3.84359401 Z" id="Shape" fill-rule="nonzero"></path>
                    <path d="M151.132679,4.09983361 C151.549823,4.54680538 151.904129,5.04852359 152.185824,5.59114809 C151.599035,5.72695507 151.599035,5.72695507 151.319734,5.25803661 C151.171115,5.001797 151.022496,4.76605657 150.863627,4.52519135 C150.773215,4.37993148 150.63845,4.26762804 150.479268,4.20489185 C150.041098,4.0408985 149.859168,4.16389351 149.854043,4.63024958 C149.854043,4.88648918 149.854043,5.14272879 149.854043,5.39896839 C149.854043,5.58858569 149.782296,5.67570715 149.597804,5.67826955 C149.413311,5.68083195 149.277504,5.63214642 149.280067,5.39640599 C149.280067,4.39707155 149.280067,3.39517471 149.280067,2.39584027 C149.280067,2.19341098 149.38,2.13960067 149.564493,2.13960067 C150.038536,2.13960067 150.515141,2.13960067 150.989185,2.15753744 C151.4665,2.13507024 151.890619,2.45965077 151.993644,2.92625624 C152.060935,3.39703168 151.786283,3.84977701 151.337671,4.00758735 C151.266354,4.03121671 151.197661,4.06212856 151.132679,4.09983361 L151.132679,4.09983361 Z M150.458769,2.6315807 L150.458769,2.6315807 C150.324845,2.62190167 150.190397,2.62190167 150.056473,2.6315807 C149.733611,2.68026622 149.86173,2.94675541 149.866855,3.11587354 C149.87198,3.28499168 149.713111,3.60529118 150.048785,3.65397671 C150.333406,3.68841265 150.621426,3.68323865 150.904626,3.63860233 C151.169929,3.62690961 151.382351,3.41448844 151.394043,3.14918469 C151.380587,2.86596968 151.149679,2.64178666 150.86619,2.63670549 C150.729644,2.62875335 150.592752,2.62875335 150.456206,2.63670549 L150.458769,2.6315807 Z" id="Shape" fill-rule="nonzero"></path>
                </g>
            </g>
        </g>
    </g>
</svg>