<?xml version="1.0" encoding="UTF-8"?>
<svg width="13px" height="15px" viewBox="0 0 13 15" version="1.1" xmlns="http://www.w3.org/2000/svg" xmlns:xlink="http://www.w3.org/1999/xlink">
    <!-- Generator: Sketch 63.1 (92452) - https://sketch.com -->
    <title>noun_Delete_1234808</title>
    <desc>Created with Sketch.</desc>
    <g id="Page-1" stroke="none" stroke-width="1" fill="none" fill-rule="evenodd">
        <g id="CS_Candidate2020_My_Jobs_Shortlist_1" transform="translate(-308.000000, -245.000000)" fill="#ACAEC1" fill-rule="nonzero">
            <g id="Group-14" transform="translate(301.000000, 240.000000)">
                <g id="noun_Delete_1234808" transform="translate(7.000000, 5.000000)">
                    <rect id="Rectangle" x="4.57907895" y="5.46513158" width="1.02631579" height="5.65157895"></rect>
                    <rect id="Rectangle" x="7.39460526" y="5.46513158" width="1.02631579" height="5.65157895"></rect>
                    <path d="M7.65631579,0.0342105263 L5.34368421,0.0342105263 C4.58792613,0.0342105263 3.97526316,0.6468735 3.97526316,1.40263158 L3.97526316,2.24592105 L0.668815789,2.24592105 C0.38540651,2.24592105 0.155657895,2.47566967 0.155657895,2.75907895 C0.155657895,3.04248823 0.38540651,3.27223684 0.668815789,3.27223684 L1.58052632,3.27223684 L2.07828947,12.2319737 C2.14372926,13.4117369 3.1203983,14.3343135 4.30197368,14.3325027 L8.70315789,14.3325027 C9.88473328,14.3343135 10.8614023,13.4117369 10.9268421,12.2319737 L11.4246053,3.27223684 L12.3363158,3.27223684 C12.6197251,3.27223684 12.8494737,3.04248823 12.8494737,2.75907895 C12.8494737,2.47566967 12.6197251,2.24592105 12.3363158,2.24592105 L9.02473684,2.24592105 L9.02473684,1.40263158 C9.02473684,1.03970375 8.88056432,0.691640502 8.6239356,0.435011773 C8.36730687,0.178383045 8.01924362,0.0342105263 7.65631579,0.0342105263 Z M5.00328947,1.40263158 C5.00328947,1.21369206 5.15645522,1.06052632 5.34539474,1.06052632 L7.65631579,1.06052632 C7.84525531,1.06052632 7.99842105,1.21369206 7.99842105,1.40263158 L7.99842105,2.24592105 L5.00157895,2.24592105 L5.00328947,1.40263158 Z M10.3931579,3.27223684 L9.89881579,12.1772368 C9.86337729,12.8123383 9.33753604,13.3088827 8.70144737,13.3078962 L4.29684211,13.3078962 C3.66075344,13.3088827 3.13491219,12.8123383 3.09947368,12.1772368 L2.60684211,3.27223684 L10.3931579,3.27223684 Z" id="Shape"></path>
                </g>
            </g>
        </g>
    </g>
</svg>