<?xml version="1.0" encoding="UTF-8"?>
<svg width="12px" height="12px" viewBox="0 0 12 12" version="1.1" xmlns="http://www.w3.org/2000/svg" xmlns:xlink="http://www.w3.org/1999/xlink">
    <!-- Generator: Sketch 63.1 (92452) - https://sketch.com -->
    <title>noun_dollar_1971528</title>
    <desc>Created with Sketch.</desc>
    <g id="Page-1" stroke="none" stroke-width="1" fill="none" fill-rule="evenodd">
        <g id="CS_Candidate2020_Job_Details_Search&amp;Matching" transform="translate(-247.000000, -131.000000)" fill="#0A7BE0" fill-rule="nonzero">
            <g id="Group" transform="translate(247.000000, 124.000000)">
                <g id="noun_dollar_1971528" transform="translate(0.000000, 7.000000)">
                    <path d="M5.5989011,0.0604395604 C2.54273798,0.0604395604 0.0604395604,2.54273798 0.0604395604,5.5989011 C0.0604395604,8.65506421 2.54273798,11.1373626 5.5989011,11.1373626 C8.65506421,11.1373626 11.1373626,8.65506421 11.1373626,5.5989011 C11.1373626,2.54273798 8.65506421,0.0604395604 5.5989011,0.0604395604 Z M7.06692705,7.81428571 C6.80001324,8.1078909 6.45302529,8.29473057 6.02596319,8.37480471 L6.02596319,9.06878062 C6.02596319,9.10881769 6.0126175,9.13550907 5.98592612,9.16220045 C5.95923474,9.18889183 5.93254336,9.20223752 5.89250629,9.20223752 L5.35867867,9.20223752 C5.3186416,9.20223752 5.29195022,9.18889183 5.26525884,9.16220045 C5.23856746,9.13550907 5.22522177,9.10881769 5.22522177,9.06878062 L5.22522177,8.37480471 C5.05172779,8.34811333 4.87823381,8.30807626 4.71808553,8.24134781 C4.55793724,8.17461936 4.42448034,8.12123659 4.30436912,8.06785383 C4.1976036,8.01447107 4.09083808,7.94774262 4.01076393,7.88101417 C3.93068979,7.81428571 3.86396134,7.76090295 3.82392427,7.73421157 C3.7838872,7.70752019 3.75719582,7.68082881 3.75719582,7.66748312 C3.71715874,7.61410036 3.71715874,7.5607176 3.74385013,7.50733483 L4.15756653,6.96016153 C4.17091222,6.93347014 4.1976036,6.92012445 4.23764067,6.92012445 C4.27767774,6.92012445 4.31771482,6.93347014 4.3444062,6.96016153 L4.35775189,6.97350722 C4.66470277,7.24042102 4.98499934,7.40056931 5.33198729,7.48064345 C5.43875281,7.49398914 5.53217265,7.50733483 5.63893817,7.50733483 C5.85246922,7.50733483 6.03930888,7.45395207 6.21280286,7.33384086 C6.38629684,7.21372964 6.46637098,7.05358136 6.46637098,6.84005031 C6.46637098,6.75997617 6.4396796,6.69324772 6.39964253,6.62651926 C6.35960545,6.55979081 6.31956838,6.50640805 6.26618562,6.46637098 C6.21280286,6.42633391 6.14607441,6.37295115 6.02596319,6.31956838 C5.90585198,6.26618562 5.82577784,6.21280286 5.75904938,6.18611148 C5.69232093,6.1594201 5.58555541,6.11938303 5.43875281,6.05265457 C5.33198729,6.0126175 5.25191315,5.97258043 5.19853039,5.94588905 C5.13180193,5.91919767 5.05172779,5.89250629 4.95830796,5.83912353 C4.85154243,5.78574077 4.77146829,5.74570369 4.70473984,5.71901231 C4.63801139,5.67897524 4.55793724,5.63893817 4.4778631,5.57220972 C4.39778896,5.50548127 4.31771482,5.4520985 4.26433205,5.39871574 C4.21094929,5.34533298 4.15756653,5.27860453 4.09083808,5.19853039 C4.02410963,5.11845624 3.97072686,5.0383821 3.94403548,4.97165365 C3.9173441,4.8915795 3.89065272,4.81150536 3.86396134,4.70473984 C3.83726996,4.59797431 3.82392427,4.50455448 3.82392427,4.38444327 C3.82392427,4.01076393 3.95738117,3.69046736 4.22429498,3.41020786 C4.49120879,3.12994836 4.82485105,2.95645439 5.25191315,2.87638025 L5.25191315,2.12902158 C5.25191315,2.08898451 5.26525884,2.06229313 5.29195022,2.03560175 C5.3186416,2.00891037 5.34533298,1.99556468 5.38537005,1.99556468 L5.91919767,1.99556468 C5.95923474,1.99556468 5.98592612,2.00891037 6.0126175,2.03560175 C6.03930888,2.06229313 6.05265457,2.08898451 6.05265457,2.12902158 L6.05265457,2.83634317 C6.21280286,2.84968887 6.35960545,2.87638025 6.49306236,2.92976301 C6.63986495,2.98314577 6.74663048,3.02318284 6.84005031,3.06321991 C6.92012445,3.10325698 7.01354429,3.15663975 7.09361843,3.21002251 C7.17369257,3.26340527 7.22707533,3.30344234 7.24042102,3.33013372 C7.25376672,3.3568251 7.2804581,3.37017079 7.30714948,3.38351648 C7.34718655,3.43689925 7.36053224,3.49028201 7.33384086,3.54366477 L7.0001986,4.13087515 C6.98685291,4.17091222 6.94681583,4.1976036 6.92012445,4.1976036 C6.88008738,4.21094929 6.84005031,4.1976036 6.81335893,4.17091222 C6.80001324,4.15756653 6.78666755,4.14422084 6.74663048,4.11752946 C6.70659341,4.09083808 6.66655634,4.0641467 6.59982788,4.01076393 C6.53309943,3.97072686 6.45302529,3.93068979 6.35960545,3.87730703 C6.26618562,3.83726996 6.17276579,3.79723289 6.05265457,3.77054151 C5.93254336,3.74385013 5.81243215,3.73050444 5.70566662,3.73050444 C5.4520985,3.73050444 5.23856746,3.7838872 5.07841917,3.90399841 C4.91827089,4.02410963 4.83819674,4.17091222 4.83819674,4.3444062 C4.83819674,4.41113465 4.85154243,4.4778631 4.86488812,4.54459155 C4.87823381,4.61132001 4.91827089,4.66470277 4.98499934,4.70473984 C5.05172779,4.7581226 5.10511055,4.79815967 5.14514762,4.83819674 C5.18518469,4.87823381 5.26525884,4.91827089 5.37202436,4.97165365 C5.47878988,5.02503641 5.55886403,5.05172779 5.61224679,5.07841917 C5.66562955,5.10511055 5.75904938,5.13180193 5.89250629,5.18518469 C6.03930888,5.23856746 6.14607441,5.27860453 6.21280286,5.30529591 C6.27953131,5.33198729 6.38629684,5.38537005 6.51975374,5.4520985 C6.65321064,5.51882696 6.75997617,5.57220972 6.82670462,5.62559248 C6.89343307,5.67897524 6.97350722,5.74570369 7.06692705,5.82577784 C7.16034688,5.90585198 7.24042102,5.99927181 7.2804581,6.07934596 C7.33384086,6.1594201 7.37387793,6.26618562 7.413915,6.38629684 C7.45395207,6.50640805 7.46729776,6.63986495 7.46729776,6.75997617 C7.48064345,7.17369257 7.33384086,7.52068052 7.06692705,7.81428571 Z" id="Shape"></path>
                </g>
            </g>
        </g>
    </g>
</svg>