<?xml version="1.0" encoding="UTF-8"?>
<svg width="13px" height="14px" viewBox="0 0 13 14" version="1.1" xmlns="http://www.w3.org/2000/svg" xmlns:xlink="http://www.w3.org/1999/xlink">
    <!-- Generator: Sketch 63.1 (92452) - https://sketch.com -->
    <title>noun_Download_1247680</title>
    <desc>Created with Sketch.</desc>
    <g id="Page-1" stroke="none" stroke-width="1" fill="none" fill-rule="evenodd">
        <g id="Redesign_My_Profile" transform="translate(-294.000000, -2269.000000)" fill="#0A7BE0" fill-rule="nonzero">
            <g id="Group-7" transform="translate(-6.000000, 151.000000)">
                <g id="Group-4" transform="translate(288.000000, 2111.000000)">
                    <g id="noun_Download_1247680" transform="translate(12.000000, 7.000000)">
                        <g id="Group-6" transform="translate(0.007759, 0.115357)">
                            <path d="M6.05044424,7.93854893 C6.15141076,8.03964134 6.28842634,8.09644506 6.43130361,8.09644506 C6.57418088,8.09644506 6.71119646,8.03964134 6.81216299,7.93854893 L8.76724111,5.97839268 C8.93879535,5.76422213 8.9217808,5.45528422 8.72774488,5.26124829 C8.53370895,5.06721236 8.22477104,5.05019782 8.01060049,5.22175206 L6.99497549,6.26276768 L6.99497549,0.590502057 C7.0148461,0.386646048 6.91730047,0.189177706 6.74332872,0.0810761598 C6.56935697,-0.0270253866 6.34910962,-0.0270253866 6.17513787,0.0810761598 C6.00116613,0.189177706 5.9036205,0.386646048 5.92349111,0.590502057 L5.92349111,6.26276768 L4.90786611,5.24714268 C4.705937,5.022777 4.36035679,5.00458857 4.13599111,5.20651768 C3.91162543,5.40844679 3.893437,5.754027 4.09536611,5.97839268 L6.05044424,7.93854893 Z" id="Path"></path>
                            <path d="M12.4133349,4.11979893 C11.9634851,2.98330735 11.1989756,1.99860504 10.2094286,1.28112706 C9.97185582,1.14886916 9.67295339,1.21455337 9.51271867,1.43422999 C9.35248396,1.65390662 9.38123792,1.95858725 9.57974111,2.14440831 C11.4669683,3.51045966 12.256263,5.93876155 11.53289,8.15336178 C10.809517,10.367962 8.73899142,11.8621374 6.4092718,11.8507729 C4.07955218,11.8394084 2.02370215,10.3251044 1.32196892,8.1035524 C0.620235685,5.88200044 1.433183,3.46151437 3.33364736,2.11393956 C3.48967195,2.00236384 3.57431968,1.8160255 3.55570456,1.62511638 C3.53708945,1.43420727 3.41803957,1.26773102 3.24339987,1.18839763 C3.06876017,1.10906423 2.86506257,1.12892633 2.70903799,1.24050206 C0.428016782,2.86043657 -0.54471896,5.76875084 0.302699096,8.43504568 C1.15011715,11.1013405 3.62343184,12.9144101 6.42114736,12.9201896 L6.71060049,12.9201896 C8.79122266,12.8302427 10.6996266,11.7387975 11.8321536,9.99109566 C12.9646805,8.2433938 13.1812415,6.05561877 12.4133349,4.11979893 Z" id="Path"></path>
                        </g>
                    </g>
                </g>
            </g>
        </g>
    </g>
</svg>