<?xml version="1.0" encoding="UTF-8"?>
<svg width="10px" height="9px" viewBox="0 0 10 9" version="1.1" xmlns="http://www.w3.org/2000/svg" xmlns:xlink="http://www.w3.org/1999/xlink">
    <!-- Generator: Sketch 63.1 (92452) - https://sketch.com -->
    <title>noun_Briefcase_653908</title>
    <desc>Created with Sketch.</desc>
    <g id="Page-1" stroke="none" stroke-width="1" fill="none" fill-rule="evenodd">
        <g id="CS_Candidate2020_Job_Details_Search&amp;Matching" transform="translate(-141.000000, -132.000000)" fill="#0A7BE0" fill-rule="nonzero">
            <g id="Group-3" transform="translate(141.000000, 124.000000)">
                <g id="noun_Briefcase_653908" transform="translate(0.000000, 8.000000)">
                    <path d="M9.51776471,2.19492 L7.57023529,2.19492 C7.57376471,2.17452 7.57647059,2.15388 7.57647059,2.1324 L7.57647059,0.46752 C7.57647059,0.26868 7.41847059,0.10752 7.22352941,0.10752 L2.82611765,0.10752 C2.63117647,0.10752 2.47317647,0.26868 2.47317647,0.46752 L2.47317647,2.1324 C2.47317647,2.15376 2.47576471,2.17452 2.47941176,2.19492 L0.531882353,2.19492 C0.273058824,2.19492 0.0612941176,2.41092 0.0612941176,2.67492 L0.0612941176,8.41236 C0.0612941176,8.67636 0.273058824,8.89236 0.531882353,8.89236 L9.51788235,8.89236 C9.77670588,8.89236 9.98847059,8.67636 9.98847059,8.41236 L9.98847059,2.67492 C9.98835294,2.41092 9.77670588,2.19492 9.51776471,2.19492 Z M3.17905882,2.13252 L3.17905882,0.82752 L6.87047059,0.82752 L6.87047059,2.1324 C6.87047059,2.15376 6.87305882,2.17452 6.87670588,2.19492 L3.17294118,2.19492 C3.17647059,2.17452 3.17905882,2.15388 3.17905882,2.13252 Z" id="Shape"></path>
                </g>
            </g>
        </g>
    </g>
</svg>