<?xml version="1.0" encoding="UTF-8"?>
<svg width="19px" height="10px" viewBox="0 0 19 10" version="1.1" xmlns="http://www.w3.org/2000/svg" xmlns:xlink="http://www.w3.org/1999/xlink">
    <!-- Generator: Sketch 63.1 (92452) - https://sketch.com -->
    <title>noun_View_302875</title>
    <desc>Created with Sketch.</desc>
    <g id="Page-1" stroke="none" stroke-width="1" fill="none" fill-rule="evenodd">
        <g id="Tal_Login" transform="translate(-328.000000, -317.000000)" fill="#515468" fill-rule="nonzero">
            <g id="noun_View_302875" transform="translate(328.000000, 317.000000)">
                <path d="M18.9480667,4.83571111 C15.7444556,1.64075556 12.5258556,0.0219555556 9.3784,0.0219555556 C9.33744444,0.0219555556 9.29606667,0.0221666667 9.25532222,0.0228 C6.14818889,0.0646 3.05182222,1.68614444 0.0519333333,4.84288889 L0.0652333333,4.85576667 L0.0519333333,4.86843333 C3.05161111,8.02517778 6.14818889,9.64672222 9.25532222,9.68852222 C9.29627778,9.68915556 9.33723333,9.68936667 9.3784,9.68936667 C12.5256444,9.68936667 15.7444556,8.07035556 18.9480667,4.87582222 L18.9280111,4.85576667 L18.9480667,4.83571111 Z M9.26545556,8.93063333 C6.53895556,8.8939 3.79514444,7.52315556 1.10136667,4.85576667 C3.79514444,2.18816667 6.53916667,0.817211111 9.26545556,0.780477778 C9.30303333,0.780266667 9.3404,0.779844444 9.37797778,0.779844444 C12.1460667,0.779844444 15.0028222,2.15058889 17.8785778,4.85534444 C14.9635556,7.59704444 12.0683778,8.96778889 9.26545556,8.93063333 Z" id="Shape"></path>
                <path d="M9.41091111,1.79676667 C7.72772222,1.79676667 6.35866667,3.16603333 6.35866667,4.84922222 C6.35866667,6.53241111 7.72793333,7.90146667 9.41091111,7.90146667 C11.0941,7.90146667 12.4631556,6.53241111 12.4631556,4.84922222 C12.4631556,3.16603333 11.0941,1.79676667 9.41091111,1.79676667 Z M9.41091111,7.14357778 C8.14572222,7.14357778 7.11655556,6.11441111 7.11655556,4.84922222 C7.11655556,3.58403333 8.14572222,2.55465556 9.41091111,2.55465556 C10.6761,2.55465556 11.7054778,3.58382222 11.7054778,4.84922222 C11.7054778,6.11462222 10.6758889,7.14357778 9.41091111,7.14357778 Z" id="Shape"></path>
            </g>
        </g>
    </g>
</svg>