<?xml version="1.0" encoding="UTF-8"?>
<svg width="18px" height="15px" viewBox="0 0 18 15" version="1.1" xmlns="http://www.w3.org/2000/svg" xmlns:xlink="http://www.w3.org/1999/xlink">
    <!-- Generator: Sketch 63.1 (92452) - https://sketch.com -->
    <title>noun_person_2134066 copy 2</title>
    <desc>Created with Sketch.</desc>
    <g id="Page-1" stroke="none" stroke-width="1" fill="none" fill-rule="evenodd">
        <g id="CS_Candidate2020_Job_Details_Finalist" transform="translate(-20.000000, -80.000000)" fill="#02BA5A">
            <g id="noun_person_2134066-copy-2" transform="translate(20.000000, 80.000000)">
                <path d="M8.98867925,0 C4.03018868,0 0,4.03933434 0,9.03177005 C0,11.1875946 0.769811321,13.1845688 2.03773585,14.7276853 C2.24150943,13.1618759 3.80377358,11.8229955 6.02264151,11.1875946 C7.69811321,12.7760968 10.2113208,12.7987897 11.9320755,11.2556732 C14.1509434,11.9364599 15.690566,13.3434191 15.7358491,15 C17.1396226,13.3888048 18,11.301059 18,9.03177005 C18,4.03933434 13.9698113,0 8.98867925,0 Z M9,11.25 C6.71519563,11.25 5.14285714,9.39630682 5.14285714,7.5 C5.14285714,5.43323864 6.88717015,3.75 9,3.75 C11.1373976,3.75 12.8571429,5.43323864 12.8571429,7.5 C12.8571429,9.39630682 11.2848044,11.25 9,11.25 Z" id="Shape"></path>
            </g>
        </g>
    </g>
</svg>