<?xml version="1.0" encoding="UTF-8"?>
<svg width="13px" height="11px" viewBox="0 0 13 11" version="1.1" xmlns="http://www.w3.org/2000/svg" xmlns:xlink="http://www.w3.org/1999/xlink">
    <!-- Generator: Sketch 63.1 (92452) - https://sketch.com -->
    <title>noun_person_2134066 copy 2</title>
    <desc>Created with Sketch.</desc>
    <g id="Page-1" stroke="none" stroke-width="1" fill="none" fill-rule="evenodd">
        <g id="CS_Candidate2020_My_Jobs_Finalist" transform="translate(-250.000000, -244.000000)" fill="#02BA5A">
            <g id="Group-7" transform="translate(250.000000, 238.000000)">
                <g id="noun_person_2134066-copy-2" transform="translate(0.000000, 6.000000)">
                    <path d="M6.4918239,0 C2.91069182,0 0,2.96217852 0,6.62329803 C0,8.20423601 0.555974843,9.66868381 1.47169811,10.8003026 C1.61886792,9.65204236 2.74716981,8.67019667 4.34968553,8.20423601 C5.55974843,9.36913767 7.37484277,9.38577912 8.61761006,8.25416036 C10.2201258,8.75340393 11.3320755,9.78517398 11.3647799,11 C12.3786164,9.81845688 13,8.28744327 13,6.62329803 C13,2.96217852 10.0893082,0 6.4918239,0 Z M6.4918239,8.30408472 C4.97106918,8.30408472 3.9245283,6.85627837 3.9245283,5.37518911 C3.9245283,3.76096823 5.08553459,2.44629349 6.4918239,2.44629349 C7.91446541,2.44629349 9.0591195,3.76096823 9.0591195,5.37518911 C9.0591195,6.85627837 8.01257862,8.30408472 6.4918239,8.30408472 Z" id="Shape"></path>
                </g>
            </g>
        </g>
    </g>
</svg>