<svg width="18px" height="16px" viewBox="0 0 18 16" version="1.1" xmlns="http://www.w3.org/2000/svg" xmlns:xlink="http://www.w3.org/1999/xlink">
    <g id="Page-1" stroke="none" stroke-width="1" fill="none" fill-rule="evenodd" opacity="0.48500279">
        <g id="TAL_Home" transform="translate(-365.000000, -970.000000)" fill="#747588" fill-rule="nonzero">
            <g id="Group-12" transform="translate(0.000000, 948.000000)">
                <g id="Group-9">
                    <g id="noun_menu_629469" transform="translate(365.000000, 22.000000)">
                        <path d="M16.6984615,13.6205128 C17.3076923,13.6205128 17.8061538,14.1128205 17.8061538,14.7145299 C17.8061538,15.3162393 17.3076923,15.808547 16.6984615,15.808547 L16.6984615,15.808547 L1.27384615,15.808547 C0.664615385,15.808547 0.166153846,15.3162393 0.166153846,14.7145299 C0.166153846,14.1128205 0.664615385,13.6205128 1.27384615,13.6205128 L1.27384615,13.6205128 Z M16.6984615,6.83760684 C17.3076923,6.83760684 17.8061538,7.32991453 17.8061538,7.93162393 C17.8061538,8.53333333 17.3076923,9.02564103 16.6984615,9.02564103 L16.6984615,9.02564103 L1.27384615,9.02564103 C0.664615385,9.02564103 0.166153846,8.53333333 0.166153846,7.93162393 C0.166153846,7.32991453 0.664615385,6.83760684 1.27384615,6.83760684 L1.27384615,6.83760684 Z M16.6984615,0.0273504273 C17.3076923,0.0273504273 17.8061538,0.51965812 17.8061538,1.12136752 C17.8061538,1.72307692 17.3076923,2.21538462 16.6984615,2.21538462 L16.6984615,2.21538462 L1.27384615,2.21538462 C0.664615385,2.21538462 0.166153846,1.72307692 0.166153846,1.12136752 C0.166153846,0.51965812 0.664615385,0.0273504273 1.27384615,0.0273504273 L1.27384615,0.0273504273 Z" id="Combined-Shape"></path>
                    </g>
                </g>
            </g>
        </g>
    </g>
</svg>