<?xml version="1.0" encoding="UTF-8"?>
<svg width="14px" height="12px" viewBox="0 0 14 12" version="1.1" xmlns="http://www.w3.org/2000/svg" xmlns:xlink="http://www.w3.org/1999/xlink">
    <!-- Generator: Sketch 63.1 (92452) - https://sketch.com -->
    <title>noun_like_1555605</title>
    <desc>Created with Sketch.</desc>
    <g id="Page-1" stroke="none" stroke-width="1" fill="none" fill-rule="evenodd">
        <g id="CS_Candidate2020_My_Jobs_Hire" transform="translate(-258.000000, -242.000000)" fill="#02BA5A" fill-rule="nonzero">
            <g id="noun_like_1555605" transform="translate(258.000000, 242.000000)">
                <path d="M7.42755682,0.0434659091 L7.43799716,0.0443181818 C8.08401989,0.0854403409 8.58323864,0.489630682 8.84446023,1.18231534 C9.20007102,2.1240767 9.04964489,3.41122159 8.53806818,4.32634943 L8.53806818,4.32634943 L12.1191051,4.32634943 C12.9089489,4.32634943 13.3225142,4.9359375 13.3225142,5.53828125 C13.3225142,5.85042614 13.2110795,6.1647017 12.9946023,6.39502841 C13.2115057,6.62514205 13.3227273,6.93941761 13.3227273,7.2515625 C13.3227273,7.78977273 12.9924716,8.33416193 12.3581676,8.44367898 C12.4297585,8.60731534 12.4659801,8.78650568 12.4659801,8.96463068 C12.4659801,9.27571023 12.359233,9.56825284 12.165554,9.78835227 C11.9948864,9.98203125 11.7645597,10.1085937 11.5014205,10.1558949 C11.5732244,10.3199574 11.609446,10.4991477 11.609446,10.6779119 C11.609446,11.2800426 11.1960938,11.8898437 10.4060369,11.8898437 L10.4060369,11.8898437 L7.51086648,11.8898437 C5.98316761,11.8898437 4.98366477,11.5457386 3.82713068,11.1470881 C3.74509943,11.1189631 3.6615767,11.0901989 3.57698864,11.0612216 L3.57698864,11.0612216 L3.57698864,5.20738636 C3.57698864,5.18139205 3.57571023,5.15603693 3.57357955,5.13068182 C3.69076705,5.07230114 3.8015625,5.01818182 3.90298295,4.96853693 C4.6037642,4.6259233 5.02649148,4.41903409 5.52038352,3.92514205 C6.10696023,3.33856534 6.5162642,1.68643466 6.60830966,0.75234375 C6.64325284,0.332599432 7.0071733,0.0176846591 7.42755682,0.0434659091 L7.42755682,0.0434659091 Z M2.62862216,4.83771307 C2.83572443,4.83771307 2.99829545,5.00028409 2.9980826,5.20738636 L2.9980826,5.20738636 L2.9980826,11.1215199 C2.9980826,11.3286222 2.83572443,11.4911932 2.62862216,11.4911932 L2.62862216,11.4911932 L0.410795455,11.4911932 C0.203693182,11.4911932 0.0411221591,11.3286222 0.0411221591,11.1215199 L0.0411221591,11.1215199 L0.0411221591,5.20738636 C0.0411221591,5.00028409 0.203693182,4.83771307 0.410795455,4.83771307 L0.410795455,4.83771307 Z" id="Combined-Shape"></path>
            </g>
        </g>
    </g>
</svg>