<svg width="25px" height="20px" viewBox="0 0 25 20" version="1.1" xmlns="http://www.w3.org/2000/svg" xmlns:xlink="http://www.w3.org/1999/xlink">
    <g id="Page-1" stroke="none" stroke-width="1" fill="none" fill-rule="evenodd">
        <g id="TAL_Home" transform="translate(-33.000000, -968.000000)" fill="#0A7BE0" fill-rule="nonzero">
            <g id="Group-12" transform="translate(0.000000, 948.000000)">
                <g id="Group-9">
                    <g id="noun_Home_1560062" transform="translate(33.000000, 20.000000)">
                        <path d="M12.422573,7.27272728e-05 C12.2364488,0.00340606061 12.0474276,0.0697181818 11.8638609,0.189466667 L0.348709394,9.28037576 C0.0529034545,9.57409697 -0.15504503,10.2065212 0.149845879,10.5966727 C0.454733636,10.9868242 1.09596394,11.0391576 1.46613364,10.7103091 L12.422573,2.06446667 L23.3790124,10.7103091 C23.7491821,11.0391576 24.4039306,10.9970061 24.6953003,10.5966727 C24.9509579,10.2453697 24.888067,9.57318788 24.4964367,9.28037576 L12.9812852,0.189466667 C12.7919245,0.0564 12.6086973,-0.00325757576 12.422573,7.27272728e-05 Z M5.14984576,8.87317879 L3.33166424,10.3125818 L3.33166424,19.0909758 C3.33166424,19.593032 3.7386989,20.0000667 4.24075515,20.0000667 L9.99833061,20.0000667 C10.5003869,20.0000667 10.9073713,19.593032 10.9074215,19.0909758 L10.9074215,15.4546121 C10.9074215,14.5994909 11.5674548,13.9394606 12.422573,13.9394606 C13.2776912,13.9394606 13.9377245,14.5994909 13.9377245,15.4546121 L13.9377245,19.0909758 C13.9377747,19.593032 14.3447592,20.0000667 14.8468155,20.0000667 L20.6043912,20.0000667 C21.1064475,20.0000667 21.5134821,19.593032 21.5134821,19.0909758 L21.5134821,10.3125818 L19.6953003,8.87317879 L19.6953003,18.1818848 L15.7559064,18.1818848 L15.7559064,15.4546121 C15.7559064,13.6236727 14.2535155,12.1212788 12.422573,12.1212788 C10.5916306,12.1212788 9.0892397,13.6236727 9.0892397,15.4546121 L9.0892397,18.1818848 L5.14984576,18.1818848 L5.14984576,8.87317879 L5.14984576,8.87317879 Z" id="Shape"></path>
                    </g>
                </g>
            </g>
        </g>
    </g>
</svg>