<?xml version="1.0" encoding="UTF-8"?>
<svg width="10px" height="13px" viewBox="0 0 10 13" version="1.1" xmlns="http://www.w3.org/2000/svg" xmlns:xlink="http://www.w3.org/1999/xlink">
    <!-- Generator: Sketch 63.1 (92452) - https://sketch.com -->
    <title>Path</title>
    <desc>Created with Sketch.</desc>
    <g id="Page-1" stroke="none" stroke-width="1" fill="none" fill-rule="evenodd">
        <g id="TAL_Home" transform="translate(-96.000000, -699.000000)" fill="#FFA13C" fill-rule="nonzero">
            <g id="noun_Fire_2207111" transform="translate(96.000000, 693.000000)">
                <g id="Group-11">
                    <path d="M9.76161612,11.4113622 C9.53073599,10.5001866 9.09975976,9.75889113 8.79191959,8.87860278 C8.65339151,8.47706774 8.65339151,7.93653981 8.34555134,8.56972967 C8.11467122,9.03303933 8.13006322,9.51179264 8.05310318,9.9751023 C8.03771117,10.0986515 8.00692716,10.2222008 7.97614314,10.34575 C7.94535912,10.4538556 7.79143904,10.4847429 7.714479,10.392081 C7.48359887,10.0677642 7.28350276,9.72800382 7.12958268,9.37279974 C6.94487858,8.95582105 6.83713452,8.50795505 6.79095849,8.06008905 C6.71399845,7.25701897 6.79095849,6.60838545 6.88331054,6.19140676 C6.91409456,6.03697021 6.72939046,5.94430828 6.60625439,6.03697021 C5.46724577,7.00992049 4.72842936,7.99831443 4.22049308,8.84771547 C4.20510107,8.87860278 4.18970907,8.89404643 4.17431706,8.92493374 C4.05118099,9.14114492 3.95882894,9.32646878 3.86647689,9.5272363 C3.86647689,9.54267995 3.85108488,9.55812361 3.85108488,9.57356726 C3.80490885,9.68167285 3.75873283,9.77433478 3.72794881,9.86699671 C3.5278527,10.3303064 3.42010864,10.7318414 3.35854061,11.0407145 C3.31236458,11.2105947 3.08148446,11.2260384 3.03530843,11.0561582 C2.94295638,10.7781724 2.86599634,10.4847429 2.7890363,10.1758698 C2.77364429,10.0986515 2.75825228,10.0214333 2.74286027,9.94421499 C2.74286027,9.92877133 2.74286027,9.91332768 2.72746826,9.88244037 C2.69668425,9.74344747 2.68129224,9.60445457 2.66590023,9.45001802 C2.65050822,9.35735609 2.63511621,9.26469416 2.63511621,9.17203223 C2.6043322,8.78594085 2.58894019,8.36896215 2.6197242,7.92109615 C2.63511621,7.7666596 2.4196281,7.68944132 2.32727604,7.81299056 C2.32727604,7.81299056 0.172394864,9.74344747 0.0646508049,12.6468547 C0.0492587964,12.7395166 0.033866788,12.8476222 0.0184747796,12.9557278 C-0.0892692795,14.2221075 0.280138923,15.4112689 0.972779303,16.307001 C1.03434734,16.3842192 1.09591537,16.4768812 1.1574834,16.5540994 C1.18826742,16.6004304 1.21905144,16.6313177 1.24983545,16.6776487 C2.12717994,17.7895919 3.48167668,18.5 5.00548551,18.5 C6.11371012,18.5 7.12958268,18.1293523 7.92996711,17.4961624 C7.94535912,17.4961624 7.96075113,17.4807188 7.96075113,17.4652751 C8.93044766,16.7857543 9.60769603,15.6583674 9.86936018,14.469206 C10.0848483,13.4653684 10.0232803,12.3997562 9.76161612,11.4113622 Z" id="Path"></path>
                </g>
            </g>
        </g>
    </g>
</svg>