<?xml version="1.0" encoding="UTF-8"?>
<svg width="13px" height="13px" viewBox="0 0 13 13" version="1.1" xmlns="http://www.w3.org/2000/svg" xmlns:xlink="http://www.w3.org/1999/xlink">
    <!-- Generator: Sketch 63.1 (92452) - https://sketch.com -->
    <title>noun_Info_1845673</title>
    <desc>Created with Sketch.</desc>
    <g id="Page-1" stroke="none" stroke-width="1" fill="none" fill-rule="evenodd">
        <g id="TAL_Home" transform="translate(-124.000000, -89.000000)" fill="#ACAEC1" fill-rule="nonzero">
            <g id="noun_Info_1845673" transform="translate(124.000000, 89.000000)">
                <path d="M6.54139949,12.975877 C3.93752846,12.9768201 1.58957047,11.4088877 0.592676228,9.00340494 C-0.404218011,6.59792223 0.146339854,3.82876982 1.98755484,1.98755484 C3.82876982,0.146339854 6.59792223,-0.404218011 9.00340494,0.592676228 C11.4088877,1.58957047 12.9768201,3.93752846 12.975877,6.54139949 C12.9707368,10.0929319 10.0929319,12.9707368 6.54139949,12.975877 Z M6.54139949,1.03779806 C4.31518864,1.03685485 2.30766012,2.37716567 1.45507212,4.43364552 C0.602484128,6.49012537 1.07277282,8.85770481 2.64660799,10.4322074 C4.22044317,12.00671 6.58782299,12.4780025 8.64466415,11.6262866 C10.7015053,10.7745706 12.0426674,8.76761054 12.0426674,6.54139949 C12.0400967,3.50382074 9.57897688,1.04165717 6.54139949,1.03779806 Z" id="Shape"></path>
                <circle id="Oval" cx="6.54139949" cy="4.348358" r="1"></circle>
                <rect id="Rectangle" x="5.9604768" y="5.66884894" width="1.15717934" height="3.80982633"></rect>
            </g>
        </g>
    </g>
</svg>