<?xml version="1.0" encoding="UTF-8"?>
<svg width="45px" height="25px" viewBox="0 0 45 25" version="1.1" xmlns="http://www.w3.org/2000/svg" xmlns:xlink="http://www.w3.org/1999/xlink">
    <!-- Generator: Sketch 63.1 (92452) - https://sketch.com -->
    <title>noun_Location to Location_1940472</title>
    <desc>Created with Sketch.</desc>
    <g id="Page-1" stroke="none" stroke-width="1" fill="none" fill-rule="evenodd">
        <g id="Redesign_My_Profile" transform="translate(-86.000000, -3990.000000)" fill="#0A7BE0" fill-rule="nonzero" stroke="#FFFFFF" stroke-width="0.25">
            <g id="Group-10" transform="translate(68.000000, 3990.000000)">
                <g id="noun_Location-to-Location_1940472" transform="translate(19.000000, 0.000000)">
                    <g id="Group">
                        <path d="M7.87815126,20.1905984 C7.68119748,20.1905984 7.28728992,19.9983063 7.09033613,19.8060141 C6.30252101,19.0368455 0,12.114328 0,8.26848491 C0,4.03805753 3.54516807,0.384506613 7.87815126,0.384506613 C12.2111345,0.384506613 15.7563025,3.84576538 15.7563025,8.26848491 C15.7563025,12.114328 9.25682773,19.0368455 8.66596639,19.8060141 C8.46901261,19.9983063 8.07510504,20.1905984 7.87815126,20.1905984 Z M7.87815126,2.30742815 C4.72689076,2.30742815 1.96953782,4.9995183 1.96953782,8.26848491 C1.96953782,10.5759908 5.71165966,15.3832946 7.87815126,17.6908004 C10.0446429,15.3832946 13.7867647,10.5759908 13.7867647,8.26848491 C13.7867647,4.9995183 11.2263655,2.30742815 7.87815126,2.30742815 Z" id="Shape"></path>
                        <path d="M7.87815126,11.1528672 C5.90861345,11.1528672 4.33298319,9.61452998 4.33298319,7.8839006 C4.33298319,6.15327122 5.90861345,4.61493399 7.87815126,4.61493399 C9.84768908,4.61493399 11.4233193,6.15327122 11.4233193,7.8839006 C11.4233193,9.61452998 9.84768908,11.1528672 7.87815126,11.1528672 Z M7.87815126,6.53785553 C7.09033613,6.53785553 6.30252101,7.11473199 6.30252101,7.8839006 C6.30252101,8.65306922 7.09033613,9.22994568 7.87815126,9.22994568 C8.66596639,9.22994568 9.45378151,8.65306922 9.45378151,7.8839006 C9.45378151,7.11473199 8.66596639,6.53785553 7.87815126,6.53785553 Z" id="Shape"></path>
                    </g>
                    <g id="Group" transform="translate(27.573529, 0.000000)">
                        <path d="M7.87815126,20.1905984 C7.68119748,20.1905984 7.28728992,19.9983063 7.09033613,19.8060141 C6.30252101,19.0368455 0,12.114328 0,8.26848491 C0,4.03805753 3.54516807,0.576798767 7.87815126,0.576798767 C12.2111345,0.576798767 15.7563025,4.03805753 15.7563025,8.26848491 C15.7563025,12.114328 9.25682773,19.0368455 8.66596639,19.8060141 C8.46901261,19.9983063 8.07510504,20.1905984 7.87815126,20.1905984 Z M7.87815126,2.4997203 C4.72689076,2.4997203 1.96953782,5.19181045 1.96953782,8.26848491 C1.96953782,10.5759908 5.71165966,15.3832946 7.87815126,17.6908004 C10.0446429,15.3832946 13.7867647,10.5759908 13.7867647,8.26848491 C13.7867647,4.9995183 11.2263655,2.4997203 7.87815126,2.4997203 Z" id="Shape"></path>
                        <path d="M7.87815126,11.1528672 C5.90861345,11.1528672 4.33298319,9.61452998 4.33298319,7.8839006 C4.33298319,6.15327122 5.90861345,4.61493399 7.87815126,4.61493399 C9.84768908,4.61493399 11.4233193,6.15327122 11.4233193,7.8839006 C11.4233193,9.61452998 9.84768908,11.1528672 7.87815126,11.1528672 Z M7.87815126,6.53785553 C7.09033613,6.53785553 6.30252101,7.11473199 6.30252101,7.8839006 C6.30252101,8.65306922 7.09033613,9.22994568 7.87815126,9.22994568 C8.66596639,9.22994568 9.45378151,8.65306922 9.45378151,7.8839006 C9.45378151,7.11473199 8.66596639,6.53785553 7.87815126,6.53785553 Z" id="Shape"></path>
                    </g>
                    <path d="M35.4516807,24.613318 L7.87815126,24.613318 C7.28728992,24.613318 6.89338235,24.2287337 6.89338235,23.6518572 C6.89338235,23.0749807 7.28728992,22.6903964 7.87815126,22.6903964 L35.4516807,22.6903964 C36.042542,22.6903964 36.4364496,23.0749807 36.4364496,23.6518572 C36.4364496,24.2287337 36.042542,24.613318 35.4516807,24.613318 Z" id="Path"></path>
                </g>
            </g>
        </g>
    </g>
</svg>