<?xml version="1.0" encoding="UTF-8"?>
<svg width="11px" height="16px" viewBox="0 0 11 16" version="1.1" xmlns="http://www.w3.org/2000/svg" xmlns:xlink="http://www.w3.org/1999/xlink">
    <!-- Generator: Sketch 63.1 (92452) - https://sketch.com -->
    <title>noun_map pin_438144 copy 2</title>
    <desc>Created with Sketch.</desc>
    <g id="Page-1" stroke="none" stroke-width="1" fill="none" fill-rule="evenodd">
        <g id="CS_Candidate2020_My_Profile_Resume-Uploaded" transform="translate(-366.000000, -526.000000)" fill="#ACAEC1" fill-rule="nonzero">
            <g id="noun_map-pin_438144-copy-2" transform="translate(366.000000, 526.000000)">
                <path d="M2.2,5.0875 C2.2,3.35892857 3.61428571,1.94464286 5.3625,1.94464286 C7.11071429,1.94464286 8.525,3.35892857 8.525,5.0875 C8.525,6.81607143 7.11071429,8.23035714 5.3625,8.23035714 C3.61428571,8.23035714 2.2,6.81607143 2.2,5.0875 Z M-1.02140518e-13,5.48035714 C-1.02140518e-13,6.79642857 1.61071429,9.56607143 1.61071429,9.56607143 L5.38214286,15.8517857 L8.9375,9.56607143 C8.9375,9.56607143 10.7642857,6.77678571 10.7642857,5.48035714 C10.7642857,2.53392857 8.34821429,0.1375 5.38214286,0.1375 C2.39642857,0.1375 -1.02140518e-13,2.53392857 -1.02140518e-13,5.48035714 Z" id="Shape"></path>
            </g>
        </g>
    </g>
</svg>