<?xml version="1.0" encoding="UTF-8"?>
<svg width="8px" height="10px" viewBox="0 0 8 10" version="1.1" xmlns="http://www.w3.org/2000/svg" xmlns:xlink="http://www.w3.org/1999/xlink">
    <!-- Generator: Sketch 63.1 (92452) - https://sketch.com -->
    <title>noun_Location_2142760 (1)</title>
    <desc>Created with Sketch.</desc>
    <g id="Page-1" stroke="none" stroke-width="1" fill="none" fill-rule="evenodd">
        <g id="CS_Candidate2020_Job_Details_Search&amp;Matching" transform="translate(-23.000000, -132.000000)" fill="#0A7BE0" fill-rule="nonzero">
            <g id="Group-5" transform="translate(23.000000, 124.000000)">
                <g id="noun_Location_2142760-(1)" transform="translate(0.000000, 8.000000)">
                    <path d="M3.7479165,8.61533067e-14 C1.6813025,8.61533067e-14 -2.57571742e-14,1.68142744 -2.57571742e-14,3.74816638 C-2.57571742e-14,5.1596009 1.87845605,7.80043399 3.63634608,9.80108026 L3.7479165,9.9281431 L3.85923704,9.80070544 C4.71244465,8.82368341 7.495833,5.49968453 7.495833,3.74804144 C7.49595794,1.68142744 5.8145305,8.61533067e-14 3.7479165,8.61533067e-14 Z M3.7479165,5.26517425 C2.91007638,5.26517425 2.23090863,4.58588156 2.23090863,3.74804144 C2.23090863,2.91020131 2.91007638,2.23103357 3.7479165,2.23103357 C4.58575662,2.23103357 5.26492437,2.91032625 5.26492437,3.74816638 C5.26492437,4.5860065 4.58575662,5.26517425 3.7479165,5.26517425 Z" id="Shape"></path>
                </g>
            </g>
        </g>
    </g>
</svg>