<?xml version="1.0" encoding="UTF-8"?>
<svg width="9px" height="12px" viewBox="0 0 9 12" version="1.1" xmlns="http://www.w3.org/2000/svg" xmlns:xlink="http://www.w3.org/1999/xlink">
    <!-- Generator: Sketch 63.1 (92452) - https://sketch.com -->
    <title>noun_Location_2142760 (1)</title>
    <desc>Created with Sketch.</desc>
    <g id="Page-1" stroke="none" stroke-width="1" fill="none" fill-rule="evenodd">
        <g id="CS_Candidate2020_Search_2" transform="translate(-176.000000, -68.000000)" fill="#0A7BE0" fill-rule="nonzero">
            <g id="Group-14">
                <g id="noun_Location_2142760-(1)" transform="translate(176.000000, 68.000000)">
                    <path d="M4.4974998,0 C2.017563,0 0,2.01771292 0,4.49779965 C0,6.19152108 2.25414726,9.36052079 4.3636153,11.7612963 L4.4974998,11.9137717 L4.63108445,11.7608465 C5.65493358,10.5884201 8.9949996,6.59962143 8.9949996,4.49764973 C8.99514953,2.01771292 6.9774366,0 4.4974998,0 Z M4.4974998,6.3182091 C3.49209165,6.3182091 2.67709035,5.50305788 2.67709035,4.49764973 C2.67709035,3.49224158 3.49209165,2.67724028 4.4974998,2.67724028 C5.50290795,2.67724028 6.31790925,3.4923915 6.31790925,4.49779965 C6.31790925,5.5032078 5.50290795,6.3182091 4.4974998,6.3182091 Z" id="Shape"></path>
                </g>
            </g>
        </g>
    </g>
</svg>