<?xml version="1.0" encoding="UTF-8"?>
<svg width="33px" height="33px" viewBox="0 0 33 33" version="1.1" xmlns="http://www.w3.org/2000/svg" xmlns:xlink="http://www.w3.org/1999/xlink">
    <!-- Generator: Sketch 63.1 (92452) - https://sketch.com -->
    <title>Group 20</title>
    <desc>Created with Sketch.</desc>
    <g id="Page-1" stroke="none" stroke-width="1" fill="none" fill-rule="evenodd">
        <g id="TAL_Home" transform="translate(-15.000000, -16.000000)">
            <g id="Group-20" transform="translate(15.000000, 16.000000)">
                <rect id="Rectangle" fill="#29ABE2" x="0" y="0" width="33" height="33"></rect>
                <path d="M12.9676514,16.0398785 C12.9339325,17.3828834 13.070913,18.7247335 13.3753053,20.0332229 C13.6365366,21.0897953 14.0142404,22.0981147 14.7064201,22.9616755 C15.525317,24.0265526 16.7677765,24.6815019 18.1090823,24.7553527 C19.1939409,24.8385473 20.2039243,24.5573493 21.1939409,24.1696622 C21.661495,23.9866339 21.8761372,24.0548535 22.099099,24.5024409 C22.2787995,24.8684974 22.4518444,25.2378818 22.6198976,25.60893 C22.7007249,25.7439915 22.7191026,25.9074375 22.6702867,26.0570759 C22.6214707,26.2067143 22.5102452,26.3278804 22.3653219,26.3892961 C22.1701976,26.4915755 21.9696827,26.5832236 21.7646564,26.6638385 C20.3836248,27.2561846 18.9360374,27.3843044 17.4568361,27.2595124 C16.2864018,27.1789348 15.1522286,26.8195137 14.1490158,26.2112595 C13.0919553,25.5456685 12.2216164,24.6220786 11.6198976,23.5273993 C10.9298501,22.2652793 10.4716862,20.8896605 10.2671522,19.4658352 C10.0507334,18.1133774 9.96547886,16.7431749 10.0125765,15.3743211 C10.0708128,13.4026072 10.4135748,11.4808102 11.27048,9.67881357 C12.285455,7.55402156 13.8461871,6.01824785 16.1589991,5.33105983 C17.2736644,5.01903792 18.4383008,4.92636428 19.5882837,5.05818129 C20.3043819,5.10528899 21.0080098,5.26883191 21.6714783,5.5423743 C21.8835746,5.6368428 22.0877753,5.74812384 22.2821272,5.87515301 C22.6415282,6.1080981 22.7263868,6.42756565 22.5317113,6.81525284 C22.3653219,7.12972871 22.2122437,7.44420459 22.0441905,7.75368878 C21.7946065,8.21292339 21.5733086,8.2877986 21.1007629,8.08646748 C20.7133044,7.89898938 20.3080721,7.75072008 19.8911123,7.64387181 C18.0308793,7.23122622 16.3253885,7.51242422 14.9243901,8.88513637 C14.2022604,9.58397164 13.7896148,10.4741547 13.5084168,11.4292295 C13.2576738,12.331156 13.0976996,13.2558846 13.0308793,14.1896289 C12.9759708,14.7986139 12.9826264,15.4159184 12.9676514,16.0398785 Z" id="Path" fill="#FFFFFF" fill-rule="nonzero"></path>
            </g>
        </g>
    </g>
</svg>