<?xml version="1.0" encoding="UTF-8"?>
<svg width="16px" height="12px" viewBox="0 0 16 12" version="1.1" xmlns="http://www.w3.org/2000/svg" xmlns:xlink="http://www.w3.org/1999/xlink">
    <!-- Generator: Sketch 63.1 (92452) - https://sketch.com -->
    <title>Email</title>
    <desc>Created with Sketch.</desc>
    <g id="Page-1" stroke="none" stroke-width="1" fill="none" fill-rule="evenodd">
        <g id="Redesign_My_Profile" transform="translate(-23.000000, -4755.000000)" fill="#0A7BE0" fill-rule="nonzero">
            <g id="Email" transform="translate(23.000000, 4753.000000)">
                <g transform="translate(0.000000, 2.000000)" id="Shape">
                    <path d="M13.3333333,0 L2.66666667,0 C1.19390733,0 0,1.15126779 0,2.57142857 L0,9.42857143 C0,10.8487322 1.19390733,12 2.66666667,12 L13.3333333,12 C14.8060927,12 16,10.8487322 16,9.42857143 L16,2.57142857 C16,1.15126779 14.8060927,0 13.3333333,0 Z M2.66666667,0.857142857 L13.3333333,0.857142857 C14.3147058,0.858229256 15.1099845,1.62510508 15.1111111,2.57142857 L15.1111111,2.74176857 L8,6.37206857 L0.888888889,2.74176857 L0.888888889,2.57142857 C0.890015525,1.62510508 1.68529416,0.858229256 2.66666667,0.857142857 Z M13.3333333,11.1428571 L2.66666667,11.1428571 C1.68529416,11.1417707 0.890015525,10.3748949 0.888888889,9.42857143 L0.888888889,3.71202 L7.79166222,7.23590571 C7.92201654,7.30231675 8.07798346,7.30231675 8.20833778,7.23590571 L15.1111111,3.71202 L15.1111111,9.42857143 C15.1099845,10.3748949 14.3147058,11.1417707 13.3333333,11.1428571 Z"></path>
                </g>
            </g>
        </g>
    </g>
</svg>