<?xml version="1.0" encoding="UTF-8"?>
<svg width="174px" height="95px" viewBox="0 0 174 95" version="1.1" xmlns="http://www.w3.org/2000/svg" xmlns:xlink="http://www.w3.org/1999/xlink">
    <!-- Generator: Sketch 62 (91390) - https://sketch.com -->
    <title>Group</title>
    <desc>Created with Sketch.</desc>
    <g id="Page-1" stroke="none" stroke-width="1" fill="none" fill-rule="evenodd" stroke-linecap="round">
        <g id="Group" transform="translate(3.000000, -5.639911)" stroke-width="6">
            <path d="M68,10.2760283 C29.2235212,18.1884966 0,53.2370669 0,95.2760283" id="Oval" stroke="#E10C1D"></path>
            <path d="M104.695828,6 C95.7408429,7.74460154 87.2917777,10.8635429 79.5865245,15.1234852" id="Oval-Copy" stroke="#FF7A00" transform="translate(92.141176, 10.561743) rotate(-332.000000) translate(-92.141176, -10.561743) "></path>
            <path d="M140.078745,18.5754521 C131.118923,20.5370912 122.665528,24.0439758 114.956549,28.8337475" id="Oval-Copy-11" stroke="#F4B000" transform="translate(127.517647, 23.704600) rotate(-304.000000) translate(-127.517647, -23.704600) "></path>
            <path d="M165.192298,46.0009829 C156.227685,47.7464183 147.769105,50.8646483 140.054761,55.1225023" id="Oval-Copy-12" stroke="#5ABF21" transform="translate(152.623529, 50.561743) rotate(-284.000000) translate(-152.623529, -50.561743) "></path>
            <path d="M177.889815,78.6597803 C168.923806,80.6295142 160.462905,84.1432597 152.74548,88.9385419" id="Oval-Copy-13" stroke="#008B00" transform="translate(165.317647, 83.799161) rotate(-258.000000) translate(-165.317647, -83.799161) "></path>
        </g>
    </g>
</svg>