<svg width="25px" height="20px" viewBox="0 0 25 20" version="1.1" xmlns="http://www.w3.org/2000/svg" xmlns:xlink="http://www.w3.org/1999/xlink">
    <g id="Page-1" stroke="none" stroke-width="1" fill="none" fill-rule="evenodd" opacity="0.48500279">
        <g id="TAL_Home" transform="translate(-280.000000, -968.000000)" fill="#747588" fill-rule="nonzero">
            <g id="Group-12" transform="translate(0.000000, 948.000000)">
                <g id="Group-9">
                    <g id="noun_Luggage_491989" transform="translate(280.000000, 20.000000)">
                        <path d="M6.62878788,17.9924242 C7.1517848,17.9924242 7.57575758,18.416397 7.57575758,18.9393939 C7.57575758,19.4623909 7.1517848,19.8863636 6.62878788,19.8863636 C6.10579096,19.8863636 5.68181818,19.4623909 5.68181818,18.9393939 C5.68181818,18.416397 6.10579096,17.9924242 6.62878788,17.9924242 Z M21.780303,17.9924242 C22.3033,17.9924242 22.7272727,18.416397 22.7272727,18.9393939 C22.7272727,19.4623909 22.3033,19.8863636 21.780303,19.8863636 C21.2573061,19.8863636 20.8333333,19.4623909 20.8333333,18.9393939 C20.8333333,18.416397 21.2573061,17.9924242 21.780303,17.9924242 Z M0.946969697,1.45483625e-12 C3.03551136,1.45483625e-12 4.73484848,1.69933712 4.73484848,3.78787879 L4.73484848,3.78787879 L4.73484848,14.2045455 C4.73484848,14.7267992 5.15956439,15.1515152 5.68181818,15.1515152 L5.68181818,15.1515152 L23.6742424,15.1515152 C24.1969697,15.1515152 24.6212121,15.5757576 24.6212121,16.0984848 C24.6212121,16.6212121 24.1969697,17.0454545 23.6742424,17.0454545 L23.6742424,17.0454545 L5.68181818,17.0454545 C4.11505682,17.0454545 2.84090909,15.7713068 2.84090909,14.2045455 L2.84090909,14.2045455 L2.84090909,3.78787879 C2.84090909,2.74337121 1.99147727,1.89393939 0.946969697,1.89393939 C0.424242424,1.89393939 -3.85469434e-13,1.46969697 -3.85469434e-13,0.946969697 C-3.85469434e-13,0.424242424 0.424242424,1.45483625e-12 0.946969697,1.45483625e-12 Z M16.0984848,1.89393939 C16.6212121,1.89393939 17.0454545,2.31818182 17.0454545,2.84090909 L17.0454545,2.84090909 L17.0454545,4.73484848 L20.8333333,4.73484848 C21.3560606,4.73484848 21.780303,5.15909091 21.780303,5.68181818 L21.780303,5.68181818 L21.780303,13.2575758 C21.780303,13.780303 21.3560606,14.2045455 20.8333333,14.2045455 L20.8333333,14.2045455 L7.57575758,14.2045455 C7.0530303,14.2045455 6.62878788,13.780303 6.62878788,13.2575758 L6.62878788,13.2575758 L6.62878788,5.68181818 C6.62878788,5.15909091 7.0530303,4.73484848 7.57575758,4.73484848 L7.57575758,4.73484848 L11.3636364,4.73484848 L11.3636364,2.84090909 C11.3636364,2.31818182 11.7878788,1.89393939 12.3106061,1.89393939 L12.3106061,1.89393939 Z M15.1515152,3.78787879 L13.2575758,3.78787879 L13.2575758,4.73484848 L15.1515152,4.73484848 L15.1515152,3.78787879 Z" id="Combined-Shape"></path>
                    </g>
                </g>
            </g>
        </g>
    </g>
</svg>