<?xml version="1.0" encoding="UTF-8"?>
<svg width="43px" height="43px" viewBox="0 0 43 43" version="1.1" xmlns="http://www.w3.org/2000/svg" xmlns:xlink="http://www.w3.org/1999/xlink">
    <!-- Generator: Sketch 63.1 (92452) - https://sketch.com -->
    <title>Group 10</title>
    <desc>Created with Sketch.</desc>
    <g id="Page-1" stroke="none" stroke-width="1" fill="none" fill-rule="evenodd">
        <g id="TAL_Home_Assessment" transform="translate(-186.000000, -707.000000)">
            <g id="Group-8" transform="translate(0.000000, 676.000000)">
                <g id="Group-5" transform="translate(95.000000, 31.000000)">
                    <g id="noun_Star_2157383" transform="translate(91.000000, 0.000000)">
                        <g id="Group-10">
                            <path d="M21.4320337,35.7601037 C22.1570074,35.7601037 22.7913593,36.3874739 22.7913593,37.1044685 L22.7913593,37.1044685 L22.7913593,41.1375629 C22.7913593,41.8545575 22.1570074,42.4819277 21.4320337,42.4819277 C20.7070601,42.4819277 20.0727081,41.8993696 20.0727081,41.1375629 L20.0727081,41.1375629 L20.0727081,37.1044685 C20.0727081,36.3874739 20.6617492,35.7601037 21.4320337,35.7601037 Z M31.8082192,31.5477607 C32.3519494,31.0100147 33.2128556,31.0100147 33.7565859,31.5477607 L33.7565859,31.5477607 L36.6111697,34.4157389 C37.1548999,34.9534848 37.1548999,35.8049159 36.6111697,36.3426618 C36.3393045,36.6115347 35.9768177,36.7459712 35.6596417,36.7459712 C35.3424658,36.7459712 34.9799789,36.6115347 34.7081138,36.3426618 L34.7081138,36.3426618 L31.8082192,33.4746835 C31.2644889,32.9369376 31.2644889,32.0855066 31.8082192,31.5477607 Z M9.10748156,31.4581363 C9.6512118,30.9652026 10.512118,30.9652026 11.0105374,31.4581363 C11.5542677,31.9958823 11.5542677,32.8473133 11.0105374,33.3850592 L11.0105374,33.3850592 L8.11064278,36.2530375 C7.83877766,36.5219104 7.47629083,36.6563469 7.15911486,36.6563469 C6.84193888,36.6563469 6.47945205,36.5219104 6.20758693,36.2530375 C5.66385669,35.7152915 5.66385669,34.8638605 6.20758693,34.3261146 L6.20758693,34.3261146 Z M20.3898841,11.9200346 C20.7976818,10.934167 22.2476291,10.934167 22.6554268,11.9200346 L22.6554268,11.9200346 L24.6037935,16.5356871 C24.7850369,16.9838087 25.1928346,17.2526816 25.6459431,17.2974938 L25.6459431,17.2974938 L30.6754478,17.7008032 C31.7629083,17.7904275 32.170706,19.1347923 31.3551106,19.8517869 L31.3551106,19.8517869 L27.5036881,23.1230746 C27.1412013,23.4367597 27.0052687,23.8848813 27.0958904,24.3330029 L27.0958904,24.3330029 L28.2739726,29.1727162 C28.5458377,30.2033959 27.4130664,31.0548269 26.4615385,30.4722688 L26.4615385,30.4722688 L22.1570074,27.8731635 C21.7945205,27.6491027 21.2961012,27.6491027 20.8883035,27.8731635 L20.8883035,27.8731635 L16.5837724,30.4722688 C15.6775553,31.0548269 14.4994731,30.2033959 14.7713383,29.1727162 L14.7713383,29.1727162 L15.9494204,24.3330029 C16.0400421,23.8848813 15.9041096,23.4367597 15.5416228,23.1230746 L15.5416228,23.1230746 L11.7355111,19.8965991 C10.8746048,19.1796045 11.3277134,17.8352397 12.4151739,17.7456154 L12.4151739,17.7456154 L17.3993678,17.2974938 C17.8524763,17.2526816 18.260274,16.9389965 18.4415174,16.5356871 L18.4415174,16.5356871 Z M41.6406744,19.9414112 C42.3656481,19.9414112 43,20.5687815 43,21.285776 C43,22.0027706 42.4109589,22.6301408 41.6406744,22.6301408 L41.6406744,22.6301408 L37.5626976,22.6301408 C36.8377239,22.6301408 36.203372,22.0027706 36.203372,21.285776 C36.203372,20.5687815 36.7924131,19.9414112 37.5626976,19.9414112 L37.5626976,19.9414112 Z M5.43730242,19.8517869 C6.16227608,19.8517869 6.79662803,20.434345 6.79662803,21.1961517 C6.79662803,21.9131463 6.16227608,22.5405165 5.43730242,22.5405165 L5.43730242,22.5405165 L1.35932561,22.5405165 C0.634351949,22.5405165 -3.55271368e-15,21.9579584 -3.55271368e-15,21.1961517 C-3.55271368e-15,20.434345 0.589041096,19.8517869 1.35932561,19.8517869 L1.35932561,19.8517869 Z M34.7534247,6.18407808 C35.2971549,5.64633216 36.1580611,5.64633216 36.7017914,6.18407808 C37.2455216,6.721824 37.2455216,7.57325505 36.7017914,8.11100097 L36.7017914,8.11100097 L33.8018967,10.9789792 C33.5300316,11.2478522 33.2128556,11.3822886 32.8503688,11.3822886 C32.5331928,11.3822886 32.170706,11.2926643 31.8988409,11.0237914 C31.3551106,10.4860454 31.3551106,9.63461441 31.8988409,9.09686849 L31.8988409,9.09686849 Z M6.25289779,6.13926592 C6.79662803,5.60152 7.65753425,5.60152 8.20126449,6.13926592 L8.20126449,6.13926592 L11.1011591,9.00724417 C11.6448894,9.54499009 11.6448894,10.3964211 11.1011591,10.934167 C10.829294,11.20304 10.512118,11.3374765 10.1496312,11.3374765 C9.83245522,11.3374765 9.46996839,11.20304 9.19810327,10.934167 L9.19810327,10.934167 L6.25289779,8.06618881 C5.70916754,7.52844289 5.70916754,6.67701184 6.25289779,6.13926592 Z M21.5226554,1.0658141e-13 C22.2476291,1.0658141e-13 22.881981,0.58255808 22.881981,1.3443648 L22.881981,1.3443648 L22.881981,5.3774592 C22.881981,6.09445376 22.2929399,6.721824 21.5226554,6.721824 C20.7976818,6.721824 20.1633298,6.09445376 20.1633298,5.3774592 L20.1633298,5.3774592 L20.1633298,1.3443648 C20.1633298,0.62737024 20.7976818,1.0658141e-13 21.5226554,1.0658141e-13 Z" id="Combined-Shape" fill="#ACAEC1" fill-rule="nonzero"></path>
                            <text id="!" font-family="Helvetica" font-size="11" font-weight="normal" fill="#F9F9FA">
                                <tspan x="20.0719238" y="26.3">!</tspan>
                            </text>
                        </g>
                    </g>
                </g>
            </g>
        </g>
    </g>
</svg>