<?xml version="1.0" encoding="UTF-8"?>
<svg width="75px" height="61px" viewBox="0 0 75 61" version="1.1" xmlns="http://www.w3.org/2000/svg" xmlns:xlink="http://www.w3.org/1999/xlink">
    <!-- Generator: Sketch 63.1 (92452) - https://sketch.com -->
    <title>Group 5</title>
    <desc>Created with Sketch.</desc>
    <g id="Page-1" stroke="none" stroke-width="1" fill="none" fill-rule="evenodd">
        <g id="CS_Candidate2020_My_Jobs_Nojob" transform="translate(-169.000000, -271.000000)" fill="#ACAEC1" fill-rule="nonzero">
            <g id="Group-5" transform="translate(169.000000, 271.000000)">
                <path d="M20.0903263,54.5308857 C21.6754093,54.5308857 22.9603729,55.8158493 22.9603729,57.4009323 C22.9603729,58.9860153 21.6754093,60.2709789 20.0903263,60.2709789 C18.5052433,60.2709789 17.2202797,58.9860153 17.2202797,57.4009323 C17.2202797,55.8158493 18.5052433,54.5308857 20.0903263,54.5308857 Z M66.0110722,54.5308857 C67.5961551,54.5308857 68.8811188,55.8158493 68.8811188,57.4009323 C68.8811188,58.9860153 67.5961551,60.2709789 66.0110722,60.2709789 C64.4259892,60.2709789 63.1410255,58.9860153 63.1410255,57.4009323 C63.1410255,55.8158493 64.4259892,54.5308857 66.0110722,54.5308857 Z M2.87004662,1.48858703e-12 C9.10102993,1.48858703e-12 14.1889983,4.99060922 14.346476,11.1843521 L14.3502331,11.4801865 L14.3502331,43.0506992 C14.3502331,44.5770003 15.5471468,45.8284248 17.051867,45.9158654 L17.2202797,45.9207458 L71.7511654,45.9207458 C73.3354311,45.9207458 74.621212,47.2065267 74.621212,48.7907925 C74.621212,50.3184773 73.4256326,51.5686169 71.919721,51.655964 L71.7511654,51.6608391 L17.2202797,51.6608391 C12.5581238,51.6608391 8.75085657,47.9383383 8.6139517,43.3088105 L8.61013985,43.0506992 L8.61013985,11.4801865 C8.61013985,8.31452504 6.03570803,5.74009323 2.87004662,5.74009323 C1.28578088,5.74009323 2.86348723e-12,4.45431235 2.86348723e-12,2.87004662 C2.86348723e-12,1.28578088 1.28578088,1.48858703e-12 2.87004662,1.48858703e-12 Z M48.7907925,5.74009323 C50.3184773,5.74009323 51.5686169,6.93567265 51.655964,8.44158423 L51.6608391,8.61013985 L51.6608391,14.3502331 L63.1410255,14.3502331 C64.6687104,14.3502331 65.9188499,15.5458125 66.006197,17.0517241 L66.0110722,17.2202797 L66.0110722,40.1806526 C66.0110722,41.7083374 64.8154927,42.958477 63.3095812,43.0458241 L63.1410255,43.0506992 L22.9603729,43.0506992 C21.4326881,43.0506992 20.1825485,41.8551198 20.0952014,40.3492082 L20.0903263,40.1806526 L20.0903263,17.2202797 C20.0903263,15.6925949 21.2859057,14.4424553 22.7918173,14.3551082 L22.9603729,14.3502331 L34.4405594,14.3502331 L34.4405594,8.61013985 C34.4405594,7.08245503 35.6361388,5.83231544 37.1420504,5.74496834 L37.310606,5.74009323 L48.7907925,5.74009323 Z M44.655914,33.6256512 L41.168088,33.6256512 L41.168088,37.073403 L44.655914,37.073403 L44.655914,33.6256512 Z M44.824002,22 L41,22 L41,22.430969 L42.008528,31.9543324 L43.815474,31.9543324 L44.824002,22.430969 L44.824002,22 Z M45.9207458,11.4801865 L40.1806526,11.4801865 L40.1806526,14.3502331 L45.9207458,14.3502331 L45.9207458,11.4801865 Z" id="Combined-Shape"></path>
            </g>
        </g>
    </g>
</svg>