<?xml version="1.0" encoding="UTF-8"?>
<svg width="18px" height="23px" viewBox="0 0 18 23" version="1.1" xmlns="http://www.w3.org/2000/svg" xmlns:xlink="http://www.w3.org/1999/xlink">
    <!-- Generator: Sketch 63.1 (92452) - https://sketch.com -->
    <title>Group 2</title>
    <desc>Created with Sketch.</desc>
    <g id="Page-1" stroke="none" stroke-width="1" fill="none" fill-rule="evenodd">
        <g id="TAL_Home" transform="translate(-367.000000, -21.000000)">
            <g id="Group-2" transform="translate(367.000000, 20.000000)">
                <g id="Notification">
                    <g id="bell_notification" transform="translate(0.000000, 1.000000)" fill="#ACAEC1">
                        <g>
                            <path d="M10.8305729,20.8062456 C10.8305729,20.6211292 10.7841921,20.4360127 10.7378112,20.2508963 L6.57248795,20.2508963 C6.52610712,20.4360127 6.48013315,20.6211292 6.48013315,20.8062456 C6.48013315,22.0097059 7.45168932,22.9352881 8.60917562,22.9352881 C9.90499068,22.9816689 10.8305729,22.0097059 10.8305729,20.8062456" id="Fill-1"></path>
                            <path d="M17.4031422,17.381144 C17.4031422,17.1960275 17.3103805,17.0572919 17.1716449,16.9181495 C17.1716449,16.9181495 15.3200737,14.8818686 15.3200737,9.60543986 C15.3200737,5.48609055 12.5433271,3.77325493 10.2751422,3.21790562 L10.2751422,2.01444534 C10.2751422,1.13524397 9.58105726,0.440752192 8.70144904,0.440752192 C7.82224767,0.440752192 7.12775589,1.13524397 7.12775589,2.01444534 L7.12775589,3.21790562 C4.85997781,3.72728096 2.08282438,5.43970973 2.08282438,9.60543986 C2.08282438,14.8818686 0.231253151,16.9181495 0.231253151,16.9181495 C0.0925175342,17.0572919 0.0461367123,17.2424084 0.000162739726,17.381144 L0.000162739726,18.8161015 L8.70165247,18.8161015 L17.4031422,18.8161015 L17.4031422,17.381144 Z" id="Fill-3"></path>
                        </g>
                    </g>
                    <g id="Group-7" transform="translate(9.849315, 0.033407)"></g>
                </g>
            </g>
        </g>
    </g>
</svg>