                  <svg width="18px" height="18px" viewBox="0 0 19 18" version="1.1" xmlns="http://www.w3.org/2000/svg"
                    xmlns:xlink="http://www.w3.org/1999/xlink">
                    <defs>
                      <rect id="path-1" x="0" y="0" width="20" height="20"></rect>
                    </defs>
                    <g id="Talent-Mob-2020" stroke="none" stroke-width="1" fill="none" fill-rule="evenodd">
                      <g id="Login_Tal_web" transform="translate(-989.000000, -361.000000)">
                        <g id="Group-3" transform="translate(946.000000, -24.000000)">
                          <g id="noun_Checkbox_1126732" transform="translate(42.500000, 384.000000)">
                            <rect id="Rectangle" x="0" y="0" width="20" height="20"></rect>
                            <g id="Clipped">
                              <mask id="mask-2" fill="white">
                                <use xlink:href="#path-1"></use>
                              </mask>
                              <g id="Rectangle"></g>
                              <g id="Group" mask="url(#mask-2)" fill="#0A7BE0">
                                <g transform="translate(1.250000, 1.250000)" id="Path">
                                  <path
                                    d="M8.75,0 C3.9246875,0 0,3.9253125 0,8.75 C0,13.57525 3.92475,17.5 8.75,17.5 C13.5746875,17.5 17.5,13.5753125 17.5,8.75 C17.5,8.35185 17.4725062,7.9595 17.4206563,7.5756875 C17.3993476,7.34720542 17.2545563,7.14876976 17.0434726,7.05875971 C16.832389,6.96874966 16.5889562,7.0016392 16.4093266,7.14443746 C16.2296971,7.28723571 16.142756,7.51698013 16.1828437,7.742925 C16.2272444,8.0716 16.2499813,8.408175 16.2499813,8.7499875 C16.2499813,12.899675 12.8990438,16.2499875 8.74998125,16.2499875 C4.60023125,16.2499875 1.24998125,12.8997375 1.24998125,8.7499875 C1.24998125,4.600925 4.60029375,1.2499875 8.74998125,1.2499875 C10.0299812,1.2499875 11.2305438,1.5696 12.2839188,2.1338 C12.4813133,2.24747668 12.7249189,2.24477189 12.9197408,2.12674037 C13.1145627,2.00870885 13.2297515,1.79404042 13.2203891,1.56644573 C13.2110267,1.33885103 13.0785955,1.13436879 12.8747375,1.0327375 C11.6456125,0.374425 10.2387375,0 8.7499875,0 L8.75,0 Z">
                                  </path>
                                  <path
                                    d="M16.8625,1.868875 C16.7001263,1.87371248 16.546014,1.94157345 16.4328125,2.05808125 L8.1246875,10.3662062 L4.8165625,7.05808125 C4.65972055,6.89516677 4.42711386,6.82967305 4.20831068,6.8868193 C3.98950751,6.94396555 3.8186343,7.11483876 3.76148805,7.33364193 C3.7043418,7.55244511 3.76983552,7.7850518 3.93275,7.94189375 L7.68275,11.6918937 C7.92683385,11.9358896 8.32247865,11.9358896 8.5665625,11.6918937 L17.3165625,2.94189375 C17.5014141,2.76221204 17.5569953,2.48747729 17.4565241,2.25007225 C17.3560529,2.01266721 17.1201403,1.86129438 16.8624625,1.86889375 L16.8625,1.868875 Z">
                                  </path>
                                </g>
                              </g>
                            </g>
                          </g>
                        </g>
                      </g>
                    </g>
                  </svg>