<?xml version="1.0" encoding="UTF-8"?>
<svg width="31px" height="33px" viewBox="0 0 31 33" version="1.1" xmlns="http://www.w3.org/2000/svg" xmlns:xlink="http://www.w3.org/1999/xlink">
    <!-- Generator: Sketch 63.1 (92452) - https://sketch.com -->
    <title>noun_Time_2055748</title>
    <desc>Created with Sketch.</desc>
    <g id="Page-1" stroke="none" stroke-width="1" fill="none" fill-rule="evenodd">
        <g id="Redesign_My_Profile" transform="translate(-93.000000, -3849.000000)" fill="#0A7BE0" fill-rule="nonzero">
            <g id="Group-8" transform="translate(20.000000, 3849.000000)">
                <g id="noun_Time_2055748" transform="translate(73.000000, 0.000000)">
                    <g id="Group" transform="translate(0.274498, 0.509687)">
                        <path d="M26.2033553,4.81939791 C23.2969172,1.90957276 19.4822173,0.318262126 15.3950389,0.318262126 C12.4431878,0.318262126 9.62757594,1.13665045 7.17526886,2.72796108 C6.63031173,3.04622321 6.49407245,3.77367949 6.81196411,4.31927171 C7.12985577,4.86486393 7.85646527,5.00126198 8.4014224,4.68299985 C10.4904247,3.36448533 12.8973187,2.63702904 15.3950389,2.63702904 C22.5703077,2.63702904 28.4285969,8.50214537 28.4285969,15.6857762 C28.4285969,22.8694071 22.5703077,28.7345234 15.3950389,28.7345234 C14.5776032,28.7345234 13.7601675,28.6435913 12.9881449,28.5071933 L13.6239282,27.2341448 C13.9418199,26.6430865 13.4876889,25.9156303 12.8064925,25.9610963 L7.22068195,26.1429603 C6.49407245,26.1884264 6.1307677,26.9613487 6.53948554,27.5524069 L9.80922832,32.0990087 C10.2179462,32.6446009 11.0353819,32.5536689 11.3078604,31.9626107 L11.9890568,30.5986301 C13.1243842,30.8714262 14.2597115,31.0078243 15.440452,31.0078243 C19.5276304,31.0078243 23.3423303,29.4165136 26.2487684,26.5066885 C29.1552064,23.5968633 30.7446647,19.7777178 30.7446647,15.6857762 C30.6992516,11.5483686 29.1097933,7.72922306 26.2033553,4.81939791 Z" id="Path"></path>
                        <path d="M15.3950389,4.00100958 C14.7592556,4.00100958 14.2597115,4.50113578 14.2597115,5.13766003 L14.2597115,15.6403102 C14.2597115,15.6403102 14.2597115,15.6403102 14.2597115,15.6403102 C14.2597115,15.6403102 14.2597115,15.6857762 14.2597115,15.6857762 C14.2597115,15.6857762 14.2597115,15.7312422 14.2597115,15.7312422 C14.2597115,15.7312422 14.2597115,15.7767082 14.2597115,15.7767082 C14.2597115,15.7767082 14.2597115,15.8221743 14.2597115,15.8221743 C14.2597115,15.8221743 14.2597115,15.8676403 14.2597115,15.8676403 C14.2597115,15.8676403 14.2597115,15.9131063 14.2597115,15.9131063 C14.2597115,15.9131063 14.2597115,15.9585723 14.2597115,15.9585723 C14.2597115,15.9585723 14.2597115,16.0040383 14.2597115,16.0040383 C14.2597115,16.0040383 14.2597115,16.0495044 14.3051246,16.0495044 C14.3051246,16.0495044 14.3051246,16.0949704 14.3505377,16.0949704 C14.3505377,16.0949704 14.3505377,16.1404364 14.3959508,16.1404364 C14.3959508,16.1404364 14.3959508,16.1859024 14.4413639,16.1859024 C14.4413639,16.1859024 14.486777,16.2313684 14.486777,16.2313684 C14.486777,16.2313684 14.486777,16.2768344 14.5321901,16.2768344 C14.5321901,16.2768344 14.5776032,16.3223005 14.5776032,16.3223005 C14.5776032,16.3223005 14.6230163,16.3677665 14.6230163,16.3677665 C14.6230163,16.3677665 14.6684294,16.4132325 14.6684294,16.4132325 C14.6684294,16.4132325 14.7138425,16.4586985 14.7138425,16.4586985 C14.7138425,16.4586985 14.7138425,16.4586985 14.7138425,16.4586985 L20.7083709,20.9598343 C20.9354364,21.0962323 21.1625018,21.1871644 21.3895673,21.1871644 C21.7528721,21.1871644 22.0707637,21.0507663 22.2978292,20.7325042 C22.6611339,20.232378 22.5703077,19.5049217 22.0707637,19.1411936 L16.5303662,14.9583199 L16.5303662,5.13766003 C16.5303662,4.50113578 16.0308222,4.00100958 15.3950389,4.00100958 Z" id="Path"></path>
                        <ellipse id="Oval" transform="translate(3.194130, 8.584575) rotate(-59.999272) translate(-3.194130, -8.584575) " cx="3.19412997" cy="8.58457526" rx="1.09084302" ry="1.09020797"></ellipse>
                        <ellipse id="Oval" cx="1.27156663" cy="15.6403102" rx="1.08991426" ry="1.09118443"></ellipse>
                        <ellipse id="Oval" transform="translate(3.168245, 22.689680) rotate(-30.000728) translate(-3.168245, -22.689680) " cx="3.16824451" cy="22.6896799" rx="1.09020797" ry="1.09084302"></ellipse>
                    </g>
                </g>
            </g>
        </g>
    </g>
</svg>