<?xml version="1.0" encoding="UTF-8"?>
<svg width="10px" height="14px" viewBox="0 0 10 14" version="1.1" xmlns="http://www.w3.org/2000/svg" xmlns:xlink="http://www.w3.org/1999/xlink">
    <!-- Generator: Sketch 63.1 (92452) - https://sketch.com -->
    <title>noun_Location_2922517 2 Copy</title>
    <desc>Created with Sketch.</desc>
    <g id="Talent-Mob-2020" stroke="none" stroke-width="1" fill="none" fill-rule="evenodd">
        <g id="Candidate-Profile" transform="translate(-835.000000, -1195.000000)" fill="#0A7BE0">
            <g id="noun_Location_2922517-2-Copy" transform="translate(835.000000, 1195.000000)">
                <g id="noun_Location_2922517">
                    <path d="M5,0 C7.72727273,0 10,2.21590909 10,5 C10,7.27272727 7.04545455,11.3068182 5.39772727,13.8068182 C5.17045455,14.0909091 4.77272727,14.0909091 4.60227273,13.8068182 C2.95454545,11.3068182 0,7.27272727 0,5 C0,2.21590909 2.21590909,0 5,0 Z M5,12.8409091 C6.36363636,10.8522727 9.09090909,6.875 9.09090909,5 C9.09090909,2.72727273 7.27272727,0.852272727 5,0.852272727 C2.72727273,0.852272727 0.852272727,2.72727273 0.852272727,5 C0.852272727,6.875 3.63636364,10.8522727 5,12.8409091 Z" id="Shape"></path>
                    <path d="M5,3.125 C6.02272727,3.125 6.81818182,3.97727273 6.81818182,5 C6.81818182,6.02272727 6.02272727,6.81818182 5,6.81818182 C3.97727273,6.81818182 3.125,6.02272727 3.125,5 C3.125,3.97727273 3.97727273,3.125 5,3.125 Z M5,3.97727273 C4.43181818,3.97727273 3.97727273,4.43181818 3.97727273,5 C3.97727273,5.56818182 4.43181818,6.02272727 5,6.02272727 C5.56818182,6.02272727 6.02272727,5.56818182 6.02272727,5 C6.02272727,4.43181818 5.56818182,3.97727273 5,3.97727273 Z" id="Shape"></path>
                </g>
            </g>
        </g>
    </g>
</svg>