<?xml version="1.0" encoding="UTF-8"?>
<svg width="15px" height="15px" viewBox="0 0 15 15" version="1.1" xmlns="http://www.w3.org/2000/svg" xmlns:xlink="http://www.w3.org/1999/xlink">
    <title>noun_Info_1845673</title>
    <g id="Mobile-Redesign-2020" stroke="none" stroke-width="1" fill="none" fill-rule="evenodd">
        <g id="CS_Candidate2020_Home" transform="translate(-118.000000, -88.000000)" fill="#ACAEC1" fill-rule="nonzero">
            <g id="noun_Info_1845673" transform="translate(118.000000, 88.000000)">
                <path d="M10.3885442,0.683857186 C13.1641011,1.83411977 14.973254,4.54330207 14.9721657,7.54776864 C14.9662348,11.6456907 11.6456907,14.9662348 7.54776864,14.9721657 C4.54330207,14.973254 1.83411977,13.1641011 0.683857186,10.3885442 C-0.466405397,7.61298719 0.168853678,4.41781133 2.2933325,2.2933325 C4.41781133,0.168853678 7.61298719,-0.466405397 10.3885442,0.683857186 Z M7.54776864,1.1974593 C4.97906381,1.19637098 2.66268475,2.74288347 1.67892937,5.11574483 C0.695173994,7.48860619 1.23781479,10.2204286 3.05377845,12.0371624 C4.86974212,13.8538962 7.60133422,14.3976952 9.97461248,13.414946 C12.3478907,12.4321968 13.8953855,10.1164737 13.8953855,7.54776864 C13.8924193,4.04287008 11.0526656,1.20191212 7.54776864,1.1974593 Z M8.21268016,6.54097955 L8.21268016,10.936933 L6.87747323,10.936933 L6.87747323,6.54097955 L8.21268016,6.54097955 Z M7.54776864,4.15591233 C8.02351989,4.15591233 8.40919247,4.54158491 8.40919247,5.01733615 C8.40919247,5.4930874 8.02351989,5.87875998 7.54776864,5.87875998 C7.0720174,5.87875998 6.68634482,5.4930874 6.68634482,5.01733615 C6.68634482,4.54158491 7.0720174,4.15591233 7.54776864,4.15591233 Z" id="Combined-Shape"></path>
            </g>
        </g>
    </g>
</svg>