<?xml version="1.0" encoding="UTF-8"?>
<svg width="13px" height="11px" viewBox="0 0 13 11" version="1.1" xmlns="http://www.w3.org/2000/svg" xmlns:xlink="http://www.w3.org/1999/xlink">
    <!-- Generator: Sketch 63.1 (92452) - https://sketch.com -->
    <title>noun_Video Call_126081</title>
    <desc>Created with Sketch.</desc>
    <g id="Page-1" stroke="none" stroke-width="1" fill="none" fill-rule="evenodd">
        <g id="CS_Candidate2020_Job_Details_Search&amp;Matching" transform="translate(-191.000000, -234.000000)" fill="#0A7BE0" fill-rule="nonzero">
            <g id="Group-19" transform="translate(192.000000, 226.000000)">
                <g id="noun_Video-Call_126081" transform="translate(0.000000, 9.000000)">
                    <path d="M9.22857143,7.7414966 L9.44285714,7.7414966 L10.8571429,7.7414966 C11.0428571,7.7414966 11.2,7.59183673 11.2,7.41496599 L11.2,0.979591837 C11.2,0.802721088 11.0428571,0.653061224 10.8571429,0.653061224 L1.02857143,0.653061224 C0.842857143,0.653061224 0.685714286,0.802721088 0.685714286,0.979591837 L0.685714286,7.42857143 C0.685714286,7.60544218 0.842857143,7.75510204 1.02857143,7.75510204 L2.57142857,7.75510204 L2.78571429,7.75510204 L9.22857143,7.7414966 Z M11.8857143,0.979591837 L11.8857143,7.42857143 C11.8857143,7.95918367 11.4285714,8.40816327 10.8571429,8.40816327 L9.44285714,8.40816327 L8.72857143,8.40816327 L7.22857143,8.40816327 L7.22857143,9.40136054 L8.74285714,9.40136054 C8.81428571,9.40136054 8.87142857,9.45578231 8.87142857,9.52380952 L8.87142857,9.71428571 C8.87142857,9.78231293 8.81428571,9.83673469 8.74285714,9.83673469 L3.14285714,9.83673469 C3.07142857,9.83673469 3.01428571,9.78231293 3.01428571,9.71428571 L3.01428571,9.51020408 C3.01428571,9.44217687 3.07142857,9.3877551 3.14285714,9.3877551 L4.65714286,9.3877551 L4.65714286,8.39455782 L3.27142857,8.39455782 L2.55714286,8.39455782 L1.02857143,8.39455782 C0.471428571,8.39455782 3.4774027e-14,7.95918367 3.4774027e-14,7.41496599 L3.4774027e-14,0.979591837 C3.4774027e-14,0.43537415 0.457142857,-1.65590605e-14 1.02857143,-1.65590605e-14 L10.8714286,-1.65590605e-14 C11.4285714,-1.65590605e-14 11.8857143,0.43537415 11.8857143,0.979591837 Z" id="Shape" stroke="#FFFFFF" stroke-width="0.2"></path>
                    <path d="M5.99420849,1.85714286 C6.98998473,1.85714286 7.8,2.62970652 7.8,3.57142857 C7.8,4.51724244 6.98568057,5.28571429 5.99420849,5.28571429 C5.00784754,5.28571429 4.2,4.51109783 4.2,3.57142857 C4.2,2.62073316 4.99630306,1.85714286 5.99420849,1.85714286 Z M5.99420849,2.42857143 C5.32859631,2.42857143 4.8,2.93545259 4.8,3.57142857 C4.8,4.19637118 5.34013309,4.71428571 5.99420849,4.71428571 C6.65553359,4.71428571 7.2,4.2004737 7.2,3.57142857 C7.2,2.94511228 6.65841877,2.42857143 5.99420849,2.42857143 Z" id="Path"></path>
                    <path d="M2.47973804,7.95226059 C4.89641949,5.53824958 7.06627256,5.53824958 9.16894814,7.93815361 L9.62963269,7.57205047 C7.29121593,4.90308152 4.70328268,4.90308152 2.04548383,7.55794349 L2.47973804,7.95226059 Z" id="Path-2"></path>
                </g>
            </g>
        </g>
    </g>
</svg>