<?xml version="1.0" encoding="UTF-8"?>
<svg width="13px" height="9px" viewBox="0 0 13 9" version="1.1" xmlns="http://www.w3.org/2000/svg" xmlns:xlink="http://www.w3.org/1999/xlink">
    <!-- Generator: Sketch 63.1 (92452) - https://sketch.com -->
    <title>noun_Email_740627</title>
    <desc>Created with Sketch.</desc>
    <g id="Page-1" stroke="none" stroke-width="1" fill="none" fill-rule="evenodd">
        <g id="Candidate_Web_Dashboard_Expanded" transform="translate(-450.000000, -569.000000)" fill="#0080FF" fill-rule="nonzero">
            <g id="Group-4" transform="translate(426.000000, 261.000000)">
                <g id="noun_Email_740627" transform="translate(24.000000, 308.000000)">
                    <path d="M12.5460317,0.392063492 C12.3603175,0.226984127 12.1333333,0.123809524 11.8650794,0.123809524 L1.03174603,0.123809524 C0.763492063,0.123809524 0.536507937,0.226984127 0.350793651,0.392063492 L6.43809524,3.85873016 L12.5460317,0.392063492 Z" id="Path"></path>
                    <path d="M12.8555556,0.907936508 L6.43809524,4.56031746 L0.0412698413,0.907936508 C0.0206349206,0.99047619 0,1.07301587 0,1.15555556 L0,7.24285714 C0,7.82063492 0.453968254,8.27460317 1.03174603,8.27460317 L11.8650794,8.27460317 C12.4428571,8.27460317 12.8968254,7.82063492 12.8968254,7.24285714 L12.8968254,1.15555556 C12.8968254,1.07301587 12.8761905,0.99047619 12.8555556,0.907936508 Z" id="Path"></path>
                </g>
            </g>
        </g>
    </g>
</svg>