<?xml version="1.0" encoding="UTF-8"?>
<svg width="14px" height="16px" viewBox="0 0 14 16" version="1.1" xmlns="http://www.w3.org/2000/svg" xmlns:xlink="http://www.w3.org/1999/xlink">
    <!-- Generator: Sketch 63.1 (92452) - https://sketch.com -->
    <title>noun_Delete_1234808</title>
    <desc>Created with Sketch.</desc>
    <g id="Page-1" stroke="none" stroke-width="1" fill="none" fill-rule="evenodd">
        <g id="CS_Candidate2020_My_Profile_Filled" transform="translate(-361.000000, -279.000000)" fill="#ACAEC1" fill-rule="nonzero">
            <g id="Group-14-Copy-4" transform="translate(356.000000, 275.000000)">
                <g id="noun_Delete_1234808" transform="translate(5.000000, 4.000000)">
                    <rect id="Rectangle" x="4.93131579" y="6.08571429" width="1.10526316" height="6.29333333"></rect>
                    <rect id="Rectangle" x="7.96342105" y="6.08571429" width="1.10526316" height="6.29333333"></rect>
                    <path d="M8.24526316,0.0380952381 L5.75473684,0.0380952381 C4.94084353,0.0380952381 4.28105263,0.720328 4.28105263,1.56190476 L4.28105263,2.50095238 L0.720263158,2.50095238 C0.415053165,2.50095238 0.167631579,2.75678967 0.167631579,3.07238095 C0.167631579,3.38797224 0.415053165,3.64380952 0.720263158,3.64380952 L1.70210526,3.64380952 L2.23815789,13.6209524 C2.30863151,14.9346814 3.36042894,15.9620195 4.63289474,15.960003 L9.37263158,15.960003 C10.6450974,15.9620195 11.6968948,14.9346814 11.7673684,13.6209524 L12.3034211,3.64380952 L13.2852632,3.64380952 C13.5904732,3.64380952 13.8378947,3.38797224 13.8378947,3.07238095 C13.8378947,2.75678967 13.5904732,2.50095238 13.2852632,2.50095238 L9.71894737,2.50095238 L9.71894737,1.56190476 C9.71894737,1.15776535 9.56368466,0.770178434 9.28731526,0.484408714 C9.01094586,0.198638995 8.63610851,0.0380952381 8.24526316,0.0380952381 Z M5.38815789,1.56190476 C5.38815789,1.35151057 5.55310562,1.18095238 5.75657895,1.18095238 L8.24526316,1.18095238 C8.44873649,1.18095238 8.61368421,1.35151057 8.61368421,1.56190476 L8.61368421,2.50095238 L5.38631579,2.50095238 L5.38815789,1.56190476 Z M11.1926316,3.64380952 L10.6602632,13.56 C10.6220986,14.2672192 10.055808,14.8201478 9.37078947,14.8190493 L4.62736842,14.8190493 C3.94234986,14.8201478 3.37605928,14.2672192 3.33789474,13.56 L2.80736842,3.64380952 L11.1926316,3.64380952 Z" id="Shape"></path>
                </g>
            </g>
        </g>
    </g>
</svg>