<?xml version="1.0" encoding="UTF-8"?>
<svg width="18px" height="13px" viewBox="0 0 18 13" version="1.1" xmlns="http://www.w3.org/2000/svg" xmlns:xlink="http://www.w3.org/1999/xlink">
    <!-- Generator: Sketch 63.1 (92452) - https://sketch.com -->
    <title>noun_Video_1268996</title>
    <desc>Created with Sketch.</desc>
    <g id="Page-1" stroke="none" stroke-width="1" fill="none" fill-rule="evenodd">
        <g id="CS_Candidate2020_Job_Details_Applied_1" transform="translate(-29.000000, -1918.000000)" fill="#FFFFFF" fill-rule="nonzero" stroke="#FFFFFF" stroke-width="0.5">
            <g id="Group-13" transform="translate(-2.000000, 1899.000000)">
                <g id="Group-15" transform="translate(32.000000, 14.000000)">
                    <g id="noun_Video_1268996" transform="translate(0.000000, 6.000000)">
                        <path d="M1.98634146,11.0115299 L9.40097561,11.0115299 C10.4786044,11.0115299 11.3521951,10.1180849 11.3521951,9.01596452 L11.3521951,8.18181818 L14.8878049,9.67050998 C15.1285511,9.77166035 15.4027563,9.74342215 15.6189518,9.59521501 C15.8351473,9.44700787 15.9648785,9.19833597 15.9648785,8.93215078 L15.9648785,2.24501109 C15.9651505,1.97829785 15.8351555,1.72906781 15.6184096,1.58075203 C15.4016637,1.43243625 15.1268086,1.40463387 14.8858537,1.50665188 L11.3541463,2.99334812 L11.3541463,2.15920177 C11.3541463,1.05708143 10.4805556,0.163636364 9.40292683,0.163636364 L1.98829268,0.163636364 C0.910663903,0.163636364 0.0370731707,1.05708143 0.0370731707,2.15920177 L0.0370731707,9.01596452 C0.0370731707,10.117306 0.909474761,11.0104286 1.98634146,11.0115299 Z M15.1843902,2.24501109 L15.1843902,8.93215078 L11.3541463,7.32172949 L11.3541463,3.8594235 L15.1843902,2.24501109 Z M0.817560976,2.15920177 C0.817560976,1.49792957 1.34171541,0.961862528 1.98829268,0.961862528 L9.40292683,0.961862528 C10.0495041,0.961862528 10.5736585,1.49792957 10.5736585,2.15920177 L10.5736585,9.01596452 C10.5736585,9.67723673 10.0495041,10.2133038 9.40292683,10.2133038 L1.98829268,10.2133038 C1.34171541,10.2133038 0.817560976,9.67723673 0.817560976,9.01596452 L0.817560976,2.15920177 Z" id="Shape"></path>
                    </g>
                </g>
            </g>
        </g>
    </g>
</svg>