<?xml version="1.0" encoding="UTF-8"?>
<svg width="18px" height="16px" viewBox="0 0 18 16" version="1.1" xmlns="http://www.w3.org/2000/svg" xmlns:xlink="http://www.w3.org/1999/xlink">
    <!-- Generator: Sketch 63.1 (92452) - https://sketch.com -->
    <title>noun_like_1555605</title>
    <desc>Created with Sketch.</desc>
    <g id="Page-1" stroke="none" stroke-width="1" fill="none" fill-rule="evenodd">
        <g id="CS_Candidate2020_Job_Details_Hired" transform="translate(-23.000000, -83.000000)" fill="#02BA5A" fill-rule="nonzero">
            <g id="noun_like_1555605" transform="translate(23.000000, 83.000000)">
                <path d="M9.65582386,0.0565056818 L9.66939631,0.0576136364 C10.5092259,0.111072443 11.1582102,0.636519886 11.4977983,1.53700994 C11.9600923,2.76129972 11.7645384,4.43458807 11.0994886,5.62425426 L11.0994886,5.62425426 L15.7548366,5.62425426 C16.7816335,5.62425426 17.3192685,6.41671875 17.3192685,7.19976562 C17.3192685,7.60555398 17.1744034,8.01411222 16.892983,8.31353693 C17.1749574,8.61268466 17.3195455,9.0212429 17.3195455,9.42703125 C17.3195455,10.1267045 16.8902131,10.8344105 16.0656179,10.9767827 C16.1586861,11.1895099 16.2057741,11.4224574 16.2057741,11.6540199 C16.2057741,12.0584233 16.0670028,12.4387287 15.8152202,12.724858 C15.5933523,12.9766406 15.2939276,13.1411719 14.9518466,13.2026634 C15.0451918,13.4159446 15.0922798,13.648892 15.0922798,13.8812855 C15.0922798,14.6640554 14.5549219,15.4567969 13.527848,15.4567969 L13.527848,15.4567969 L9.76412642,15.4567969 C7.7781179,15.4567969 6.4787642,15.0094602 4.97526989,14.4912145 C4.86862926,14.454652 4.76004972,14.4172585 4.65008523,14.3795881 L4.65008523,14.3795881 L4.65008523,6.76960227 C4.65008523,6.73580966 4.6484233,6.70284801 4.64565341,6.66988636 C4.79799716,6.59399148 4.94203125,6.52363636 5.07387784,6.45909801 C5.98489347,6.01370028 6.53443892,5.74474432 7.17649858,5.10268466 C7.9390483,4.34013494 8.47114347,2.19236506 8.59080256,0.978046875 C8.63622869,0.432379261 9.10932528,0.0229900568 9.65582386,0.0565056818 L9.65582386,0.0565056818 Z M3.41720881,6.28902699 C3.68644176,6.28902699 3.89778409,6.50036932 3.89750737,6.76960227 L3.89750737,6.76960227 L3.89750737,14.4579759 C3.89750737,14.7272088 3.68644176,14.9385511 3.41720881,14.9385511 L3.41720881,14.9385511 L0.534034091,14.9385511 C0.264801136,14.9385511 0.0534588068,14.7272088 0.0534588068,14.4579759 L0.0534588068,14.4579759 L0.0534588068,6.76960227 C0.0534588068,6.50036932 0.264801136,6.28902699 0.534034091,6.28902699 L0.534034091,6.28902699 Z" id="Combined-Shape"></path>
            </g>
        </g>
    </g>
</svg>