<?xml version="1.0" encoding="UTF-8"?>
<svg width="18px" height="10px" viewBox="0 0 18 10" version="1.1" xmlns="http://www.w3.org/2000/svg" xmlns:xlink="http://www.w3.org/1999/xlink">
    <!-- Generator: Sketch 63.1 (92452) - https://sketch.com -->
    <title>noun_Location to Location_1940472</title>
    <desc>Created with Sketch.</desc>
    <g id="Page-1" stroke="none" stroke-width="1" fill="none" fill-rule="evenodd">
        <g id="CS_Candidate2020_Job_Details_Search&amp;Matching" transform="translate(-22.000000, -235.000000)" fill="#0A7BE0" fill-rule="nonzero" stroke="#FFFFFF" stroke-width="0.25">
            <g id="Group-17" transform="translate(23.000000, 226.000000)">
                <g id="noun_Location-to-Location_1940472" transform="translate(0.000000, 9.000000)">
                    <g id="Group">
                        <path d="M2.97619048,8.14748977 C2.90178571,8.14748977 2.75297619,8.07342168 2.67857143,7.99935359 C2.38095238,7.70308123 -2.79904573e-16,5.03663004 -2.79904573e-16,3.55526826 C-2.79904573e-16,1.92577031 1.33928571,0.518476621 2.97619048,0.518476621 C4.61309524,0.518476621 5.95238095,1.85170222 5.95238095,3.55526826 C5.95238095,5.03663004 3.49702381,7.70308123 3.27380952,7.99935359 C3.19940476,8.07342168 3.05059524,8.14748977 2.97619048,8.14748977 Z M2.97619048,1.25915751 C1.78571429,1.25915751 0.744047619,2.29611075 0.744047619,3.55526826 C0.744047619,4.44408533 2.1577381,6.29578755 2.97619048,7.18460461 C3.79464286,6.29578755 5.20833333,4.44408533 5.20833333,3.55526826 C5.20833333,2.29611075 4.24107143,1.25915751 2.97619048,1.25915751 Z" id="Shape"></path>
                        <path d="M2.97619048,4.66628959 C2.23214286,4.66628959 1.63690476,4.07374488 1.63690476,3.40713208 C1.63690476,2.74051928 2.23214286,2.14797457 2.97619048,2.14797457 C3.7202381,2.14797457 4.31547619,2.74051928 4.31547619,3.40713208 C4.31547619,4.07374488 3.7202381,4.66628959 2.97619048,4.66628959 Z M2.97619048,2.88865546 C2.67857143,2.88865546 2.38095238,3.11085973 2.38095238,3.40713208 C2.38095238,3.70340444 2.67857143,3.92560871 2.97619048,3.92560871 C3.27380952,3.92560871 3.57142857,3.70340444 3.57142857,3.40713208 C3.57142857,3.11085973 3.27380952,2.88865546 2.97619048,2.88865546 Z" id="Shape"></path>
                    </g>
                    <g id="Group" transform="translate(10.416667, 0.000000)">
                        <path d="M2.97619048,8.14748977 C2.90178571,8.14748977 2.75297619,8.07342168 2.67857143,7.99935359 C2.38095238,7.70308123 1.11961829e-15,5.03663004 1.11961829e-15,3.55526826 C1.11961829e-15,1.92577031 1.33928571,0.59254471 2.97619048,0.59254471 C4.61309524,0.59254471 5.95238095,1.92577031 5.95238095,3.55526826 C5.95238095,5.03663004 3.49702381,7.70308123 3.27380952,7.99935359 C3.19940476,8.07342168 3.05059524,8.14748977 2.97619048,8.14748977 Z M2.97619048,1.3332256 C1.78571429,1.3332256 0.744047619,2.37017884 0.744047619,3.55526826 C0.744047619,4.44408533 2.1577381,6.29578755 2.97619048,7.18460461 C3.79464286,6.29578755 5.20833333,4.44408533 5.20833333,3.55526826 C5.20833333,2.29611075 4.24107143,1.3332256 2.97619048,1.3332256 Z" id="Shape"></path>
                        <path d="M2.97619048,4.66628959 C2.23214286,4.66628959 1.63690476,4.07374488 1.63690476,3.40713208 C1.63690476,2.74051928 2.23214286,2.14797457 2.97619048,2.14797457 C3.7202381,2.14797457 4.31547619,2.74051928 4.31547619,3.40713208 C4.31547619,4.07374488 3.7202381,4.66628959 2.97619048,4.66628959 Z M2.97619048,2.88865546 C2.67857143,2.88865546 2.38095238,3.11085973 2.38095238,3.40713208 C2.38095238,3.70340444 2.67857143,3.92560871 2.97619048,3.92560871 C3.27380952,3.92560871 3.57142857,3.70340444 3.57142857,3.40713208 C3.57142857,3.11085973 3.27380952,2.88865546 2.97619048,2.88865546 Z" id="Shape"></path>
                    </g>
                    <path d="M13.3928571,9.85105581 L2.97619048,9.85105581 C2.75297619,9.85105581 2.60416667,9.70291963 2.60416667,9.48071536 C2.60416667,9.2585111 2.75297619,9.11037492 2.97619048,9.11037492 L13.3928571,9.11037492 C13.6160714,9.11037492 13.764881,9.2585111 13.764881,9.48071536 C13.764881,9.70291963 13.6160714,9.85105581 13.3928571,9.85105581 Z" id="Path"></path>
                </g>
            </g>
        </g>
    </g>
</svg>