<?xml version="1.0" encoding="UTF-8"?>
<svg width="12px" height="12px" viewBox="0 0 12 12" version="1.1" xmlns="http://www.w3.org/2000/svg" xmlns:xlink="http://www.w3.org/1999/xlink">
    <!-- Generator: Sketch 63.1 (92452) - https://sketch.com -->
    <title>Path</title>
    <desc>Created with Sketch.</desc>
    <g id="Page-1" stroke="none" stroke-width="1" fill="none" fill-rule="evenodd">
        <g id="TAL_ContactInfo_Overlay" transform="translate(-34.000000, -442.000000)" fill="#0080FF" fill-rule="nonzero">
            <path d="M36.925357,447.178387 C38.1579347,449.278818 38.9796629,450.119048 41.0339717,451.379279 L42.6774179,449.698925 C43.5166939,449.918156 44.5761803,450.219079 45.4265739,450.215525 C45.7100374,450.213218 45.9923507,450.503048 46,450.77991 L45.9808936,453.401356 C45.9797229,453.691263 45.6951355,453.982279 45.4062646,454 C38.3250743,454.01274 34.2314903,449.827125 34.0013623,442.5729 C33.9778584,442.292602 34.2624869,442.001577 34.5459431,442.000377 L37.3540104,442.000377 C37.6640569,441.988131 37.946376,442.276785 38.0136609,442.45309 C37.941778,443.436229 38.3494899,444.635462 38.5688119,445.498575 L36.925357,447.178387 Z" id="Path"></path>
        </g>
    </g>
</svg>