<?xml version="1.0" encoding="UTF-8"?>
<svg width="11px" height="21px" viewBox="0 0 11 21" version="1.1" xmlns="http://www.w3.org/2000/svg" xmlns:xlink="http://www.w3.org/1999/xlink">
    <!-- Generator: Sketch 63.1 (92452) - https://sketch.com -->
    <title>noun_Phone_709276 2 Copy</title>
    <desc>Created with Sketch.</desc>
    <g id="Page-1" stroke="none" stroke-width="1" fill="none" fill-rule="evenodd">
        <g id="Redesign_My_Profile" transform="translate(-23.000000, -5045.000000)" fill="#0A7BE0" fill-rule="nonzero">
            <g id="noun_Phone_709276-2-Copy" transform="translate(23.000000, 5045.000000)">
                <g id="noun_Phone_709276">
                    <path d="M0.114583333,1.53541667 L0.114583333,19.2989583 C0.114583333,20.0197917 0.701041667,20.60625 1.421875,20.60625 L9.578125,20.60625 C10.2989583,20.60625 10.8854167,20.0197917 10.8854167,19.2989583 L10.8854167,1.53541667 C10.8854167,0.814583333 10.2989583,0.228123614 9.578125,0.228123614 L1.421875,0.228123614 C0.701041667,0.227083333 0.114583333,0.813541667 0.114583333,1.53541667 Z M9.95833333,16.509375 L1.04166667,16.509375 L1.04166667,3.65520833 L9.95833333,3.65520833 L9.95833333,16.509375 Z M9.578125,19.678125 L1.421875,19.678125 C1.2125,19.678125 1.04166667,19.5083333 1.04166667,19.2989583 L1.04166667,17.4375 L9.95833333,17.4375 L9.95833333,19.2989583 C9.95833333,19.5083333 9.7875,19.678125 9.578125,19.678125 Z M9.95833333,1.53541667 L9.95833333,2.728125 L1.04166667,2.728125 L1.04166667,1.53541667 C1.04166667,1.32604167 1.2125,1.15520833 1.421875,1.15520833 L9.578125,1.15520833 C9.7875,1.15520833 9.95833333,1.325 9.95833333,1.53541667 Z" id="Shape"></path>
                    <path d="M5.99166667,18.1239583 L5.00729167,18.1239583 C4.75104167,18.1239583 4.54375,18.33125 4.54375,18.5875 C4.54375,18.84375 4.75104167,19.0510417 5.00729167,19.0510417 L5.99166667,19.0510417 C6.24791667,19.0510417 6.45521222,18.84375 6.45521222,18.5875 C6.45625,18.3322917 6.24791667,18.1239583 5.99166667,18.1239583 Z" id="Path"></path>
                </g>
            </g>
        </g>
    </g>
</svg>