<?xml version="1.0" encoding="UTF-8"?>
<svg width="16px" height="19px" viewBox="0 0 16 19" version="1.1" xmlns="http://www.w3.org/2000/svg" xmlns:xlink="http://www.w3.org/1999/xlink">
    <!-- Generator: Sketch 63.1 (92452) - https://sketch.com -->
    <title>noun_list,_2274537</title>
    <desc>Created with Sketch.</desc>
    <g id="Page-1" stroke="none" stroke-width="1" fill="none" fill-rule="evenodd">
        <g id="CS_Candidate2020_Assessment_My" transform="translate(-36.000000, -157.000000)" fill="#515468" fill-rule="nonzero">
            <g id="noun_list,_2274537" transform="translate(36.000000, 157.000000)">
                <path d="M15.7278481,6.74050633 L14.4620253,5.47468354 C14.335443,5.34810127 14.1455696,5.34810127 14.0189873,5.47468354 C14.0189873,5.47468354 14.0189873,5.47468354 14.0189873,5.47468354 L12.6582278,6.83544304 L12.6582278,3.48101266 C12.6582278,2.59493671 11.9620253,1.89873418 11.0759494,1.89873418 L9.17721519,1.89873418 L9.17721519,1.58227848 C9.17721519,1.39240506 9.05063291,1.26582278 8.86075949,1.26582278 L7.59493671,1.26582278 C7.59493671,0.569620253 7.02531646,0 6.32911392,0 C5.63291139,0 5.06329114,0.569620253 5.06329114,1.26582278 L3.79746835,1.26582278 C3.60759494,1.26582278 3.48101266,1.39240506 3.48101266,1.58227848 L3.48101266,1.89873418 L1.58227848,1.89873418 C0.696202532,1.89873418 0,2.59493671 0,3.48101266 L0,17.4050633 C0,18.2911392 0.696202532,18.9873418 1.58227848,18.9873418 L11.0759494,18.9873418 C11.9620253,18.9873418 12.6582278,18.2911392 12.6582278,17.4050633 L12.6582278,10.2531646 L15.7278481,7.1835443 C15.8544304,7.05696203 15.8544304,6.86708861 15.7278481,6.74050633 C15.7278481,6.74050633 15.7278481,6.74050633 15.7278481,6.74050633 Z M6.32911392,0.632911392 C6.67721519,0.632911392 6.96202532,0.917721519 6.96202532,1.26582278 L5.69620253,1.26582278 C5.69620253,0.917721519 5.98101266,0.632911392 6.32911392,0.632911392 Z M4.11392405,1.89873418 L8.5443038,1.89873418 L8.5443038,2.84810127 L4.11392405,2.84810127 L4.11392405,1.89873418 Z M12.0253165,17.4050633 C12.0253165,17.943038 11.6139241,18.3544304 11.0759494,18.3544304 L1.58227848,18.3544304 C1.0443038,18.3544304 0.632911392,17.943038 0.632911392,17.4050633 L0.632911392,3.48101266 C0.632911392,2.94303797 1.0443038,2.53164557 1.58227848,2.53164557 L3.48101266,2.53164557 L3.48101266,3.16455696 C3.48101266,3.35443038 3.60759494,3.48101266 3.79746835,3.48101266 L8.86075949,3.48101266 C9.05063291,3.48101266 9.17721519,3.35443038 9.17721519,3.16455696 L9.17721519,2.53164557 L11.0759494,2.53164557 C11.6139241,2.53164557 12.0253165,2.94303797 12.0253165,3.48101266 L12.0253165,7.46835443 L5.79113924,13.7025316 L5.79113924,13.7025316 C5.75949367,13.7341772 5.75949367,13.7658228 5.7278481,13.7974684 L5.7278481,13.8291139 L5.7278481,13.8291139 L5.09493671,15.7278481 C5.03164557,15.8860759 5.09493671,16.0759494 5.25316456,16.1392405 C5.28481013,16.1392405 5.3164557,16.1708861 5.34810127,16.1708861 C5.37974684,16.1708861 5.41139241,16.1708861 5.44303797,16.1708861 L7.34177215,15.5379747 L7.34177215,15.5379747 L7.37341772,15.5379747 C7.40506329,15.5379747 7.43670886,15.5063291 7.46835443,15.4746835 L7.46835443,15.4746835 L12.0253165,10.8860759 L12.0253165,17.4050633 Z M6.67721519,15.0632911 L5.85443038,15.3481013 L6.13924051,14.5253165 L6.42405063,14.8101266 L6.67721519,15.0632911 Z M7.27848101,14.7468354 L6.4556962,13.9240506 L13.2911392,7.08860759 L14.1139241,7.91139241 L7.27848101,14.7468354 Z M14.556962,7.46835443 L13.7341772,6.64556962 L14.2405063,6.13924051 L15.0632911,6.96202532 L14.556962,7.46835443 Z M1.89873418,5.06329114 C1.89873418,4.87341772 2.02531646,4.74683544 2.21518987,4.74683544 L10.443038,4.74683544 C10.6329114,4.74683544 10.7594937,4.87341772 10.7594937,5.06329114 C10.7594937,5.25316456 10.6329114,5.37974684 10.443038,5.37974684 L2.21518987,5.37974684 C2.02531646,5.37974684 1.89873418,5.25316456 1.89873418,5.06329114 Z M1.89873418,6.96202532 C1.89873418,6.7721519 2.02531646,6.64556962 2.21518987,6.64556962 L10.443038,6.64556962 C10.6329114,6.64556962 10.7594937,6.7721519 10.7594937,6.96202532 C10.7594937,7.15189873 10.6329114,7.27848101 10.443038,7.27848101 L2.21518987,7.27848101 C2.02531646,7.27848101 1.89873418,7.15189873 1.89873418,6.96202532 Z M1.89873418,8.86075949 C1.89873418,8.67088608 2.02531646,8.5443038 2.21518987,8.5443038 L8.5443038,8.5443038 C8.73417722,8.5443038 8.86075949,8.67088608 8.86075949,8.86075949 C8.86075949,9.05063291 8.73417722,9.17721519 8.5443038,9.17721519 L2.21518987,9.17721519 C2.02531646,9.17721519 1.89873418,9.05063291 1.89873418,8.86075949 Z M1.89873418,10.7594937 C1.89873418,10.5696203 2.02531646,10.443038 2.21518987,10.443038 L6.64556962,10.443038 C6.83544304,10.443038 6.96202532,10.5696203 6.96202532,10.7594937 C6.96202532,10.9493671 6.83544304,11.0759494 6.64556962,11.0759494 L2.21518987,11.0759494 C2.02531646,11.0759494 1.89873418,10.9493671 1.89873418,10.7594937 Z M5.06329114,12.6582278 C5.06329114,12.8481013 4.93670886,12.9746835 4.74683544,12.9746835 L2.21518987,12.9746835 C2.02531646,12.9746835 1.89873418,12.8481013 1.89873418,12.6582278 C1.89873418,12.4683544 2.02531646,12.3417722 2.21518987,12.3417722 L4.74683544,12.3417722 C4.93670886,12.3417722 5.06329114,12.4683544 5.06329114,12.6582278 Z" id="Shape"></path>
            </g>
        </g>
    </g>
</svg>