<?xml version="1.0" encoding="UTF-8"?>
<svg width="10px" height="7px" viewBox="0 0 10 7" version="1.1" xmlns="http://www.w3.org/2000/svg" xmlns:xlink="http://www.w3.org/1999/xlink">
    <!-- Generator: Sketch 63.1 (92452) - https://sketch.com -->
    <title>“</title>
    <desc>Created with Sketch.</desc>
    <g id="Page-1" stroke="none" stroke-width="1" fill="none" fill-rule="evenodd">
        <g id="Redesign_My_Profile" transform="translate(-23.000000, -4820.000000)" fill="#0A7BE0" fill-rule="nonzero">
            <path d="M26.7664042,4827 L26.7664042,4823.74419 L24.6929134,4823.74419 C24.7235346,4823.13476 24.8624234,4822.637 25.1095801,4822.25089 C25.3567367,4821.86479 25.8805774,4821.55069 26.6811024,4821.30859 L26.6811024,4821.30859 L26.6811024,4820 C24.2270341,4820.49255 23,4821.95558 23,4824.38909 L23,4824.38909 L23,4827 L26.7664042,4827 Z M33,4827 L33,4823.74419 L30.9265092,4823.74419 C30.9658793,4823.13059 31.108049,4822.63178 31.3530184,4822.24776 C31.5979878,4821.86374 32.1207349,4821.55069 32.9212598,4821.30859 L32.9212598,4821.30859 L32.9212598,4820 C30.4628171,4820.49255 29.2335958,4821.95558 29.2335958,4824.38909 L29.2335958,4824.38909 L29.2335958,4827 L33,4827 Z" id="“"></path>
        </g>
    </g>
</svg>