<?xml version="1.0" encoding="UTF-8"?>
<svg width="18px" height="18px" viewBox="0 0 18 18" version="1.1" xmlns="http://www.w3.org/2000/svg" xmlns:xlink="http://www.w3.org/1999/xlink">
    <!-- Generator: Sketch 63.1 (92452) - https://sketch.com -->
    <title>Shape</title>
    <desc>Created with Sketch.</desc>
    <g id="Page-1" stroke="none" stroke-width="1" fill="none" fill-rule="evenodd">
        <g id="CS_Candidate2020_Job_Details_Rejected" transform="translate(-19.000000, -83.000000)" fill="#DD4040" fill-rule="nonzero">
            <path d="M28,83 C23.0294373,83 19,87.0294373 19,92 C19,96.9705627 23.0294373,101 28,101 C32.9705627,101 37,96.9705627 37,92 C37,87.0294373 32.9705627,83 28,83 Z M32.026,95.174 C32.2298661,95.4120562 32.2161594,95.7669165 31.9945379,95.9885379 C31.7729165,96.2101594 31.4180562,96.2238661 31.18,96.02 L28,92.846 L24.826,96.02 C24.5879438,96.2238661 24.2330835,96.2101594 24.0114621,95.9885379 C23.7898406,95.7669165 23.7761339,95.4120562 23.98,95.174 L27.154,92 L23.974,88.826 C23.7701339,88.5879438 23.7838406,88.2330835 24.0054621,88.0114621 C24.2270835,87.7898406 24.5819438,87.7761339 24.82,87.98 L28,91.154 L31.174,87.98 C31.4120562,87.7761339 31.7669165,87.7898406 31.9885379,88.0114621 C32.2101594,88.2330835 32.2238661,88.5879438 32.02,88.826 L28.846,92 L32.026,95.174 Z" id="Shape"></path>
        </g>
    </g>
</svg>