<?xml version="1.0" encoding="UTF-8"?>
<svg width="12px" height="12px" viewBox="0 0 12 12" version="1.1" xmlns="http://www.w3.org/2000/svg" xmlns:xlink="http://www.w3.org/1999/xlink">
    <!-- Generator: Sketch 63.1 (92452) - https://sketch.com -->
    <title>noun_reject_1408217</title>
    <desc>Created with Sketch.</desc>
    <g id="Page-1" stroke="none" stroke-width="1" fill="none" fill-rule="evenodd">
        <g id="CS_Candidate2020_My_Jobs_Rejected" transform="translate(-242.000000, -243.000000)" fill="#DD4040" fill-rule="nonzero">
            <g id="noun_reject_1408217" transform="translate(242.000000, 243.000000)">
                <path d="M6,0 C2.6862915,0 0,2.6862915 0,6 C0,9.3137085 2.6862915,12 6,12 C9.3137085,12 12,9.3137085 12,6 C12,2.6862915 9.3137085,0 6,0 Z M8.684,8.116 C8.81991072,8.27470411 8.81077291,8.51127767 8.66302529,8.65902529 C8.51527767,8.80677291 8.27870411,8.81591072 8.12,8.68 L6,6.564 L3.884,8.68 C3.72529589,8.81591072 3.48872233,8.80677291 3.34097471,8.65902529 C3.19322709,8.51127767 3.18408928,8.27470411 3.32,8.116 L5.436,6 L3.316,3.884 C3.18008928,3.72529589 3.18922709,3.48872233 3.33697471,3.34097471 C3.48472233,3.19322709 3.72129589,3.18408928 3.88,3.32 L6,5.436 L8.116,3.32 C8.27470411,3.18408928 8.51127767,3.19322709 8.65902529,3.34097471 C8.80677291,3.48872233 8.81591072,3.72529589 8.68,3.884 L6.564,6 L8.684,8.116 Z" id="Shape"></path>
            </g>
        </g>
    </g>
</svg>