<?xml version="1.0" encoding="UTF-8"?>
<svg width="6px" height="10px" viewBox="0 0 6 10" version="1.1" xmlns="http://www.w3.org/2000/svg" xmlns:xlink="http://www.w3.org/1999/xlink">
    <!-- Generator: Sketch 63.1 (92452) - https://sketch.com -->
    <title>Path</title>
    <desc>Created with Sketch.</desc>
    <g id="Page-1" stroke="none" stroke-width="1" fill="none" fill-rule="evenodd">
        <g id="Tal_Menu_inactive" transform="translate(-365.000000, -92.000000)" fill="#0A7BE0" fill-rule="nonzero">
            <g id="Group-22" transform="translate(91.000000, -2.000000)">
                <g id="noun_Arrow_1769476" transform="translate(277.000000, 99.000000) rotate(-90.000000) translate(-277.000000, -99.000000) translate(272.000000, 96.000000)">
                    <path d="M5.0562388,5.27102201 C5.17880043,5.25825161 5.29445896,5.2080582 5.3874988,5.12726201 L9.5875008,1.52725801 C9.77861025,1.39812 9.878787,1.17087271 9.84519793,0.942681521 C9.81160885,0.714490331 9.6501996,0.525747731 9.42998484,0.457155446 C9.20977007,0.388563161 8.96973035,0.452262821 8.8125008,0.621018007 L4.9999988,3.88976201 L1.1874988,0.621018007 C1.03026925,0.452262821 0.790229528,0.388563161 0.570014762,0.457155446 C0.349799995,0.525747731 0.188390749,0.714490331 0.154801675,0.942681521 C0.1212126,1.17087271 0.221389353,1.39812 0.4124988,1.52725801 L4.6124988,5.12726201 C4.73497262,5.2330625 4.89499097,5.2849042 5.0562388,5.27102201 L5.0562388,5.27102201 Z" id="Path"></path>
                </g>
            </g>
        </g>
    </g>
</svg>