<?xml version="1.0" encoding="UTF-8"?>
<svg width="12px" height="12px" viewBox="0 0 12 12" version="1.1" xmlns="http://www.w3.org/2000/svg" xmlns:xlink="http://www.w3.org/1999/xlink">
    <!-- Generator: Sketch 63.1 (92452) - https://sketch.com -->
    <title>noun_Search_1594151</title>
    <desc>Created with Sketch.</desc>
    <g id="Page-1" stroke="none" stroke-width="1" fill="none" fill-rule="evenodd">
        <g id="CS_Candidate2020_Search_2" transform="translate(-21.000000, -68.000000)" fill="#0A7BE0" fill-rule="nonzero">
            <g id="Group-14">
                <g id="noun_Search_1594151" transform="translate(21.000000, 68.000000)">
                    <path d="M8.77065078,7.49785857 L11.7363961,10.4636039 L10.4636039,11.7363961 L7.49785857,8.77065078 C6.72901074,9.29405922 5.80023351,9.6 4.8,9.6 C2.1490332,9.6 1.00364161e-13,7.4509668 1.00364161e-13,4.8 C1.00364161e-13,2.1490332 2.1490332,1.00364161e-13 4.8,1.00364161e-13 C7.4509668,1.00364161e-13 9.6,2.1490332 9.6,4.8 C9.6,5.80023351 9.29405922,6.72901074 8.77065078,7.49785857 L8.77065078,7.49785857 Z M4.8,7.8 C6.45685425,7.8 7.8,6.45685425 7.8,4.8 C7.8,3.14314575 6.45685425,1.8 4.8,1.8 C3.14314575,1.8 1.8,3.14314575 1.8,4.8 C1.8,6.45685425 3.14314575,7.8 4.8,7.8 Z" id="Shape"></path>
                </g>
            </g>
        </g>
    </g>
</svg>