<?xml version="1.0" encoding="UTF-8"?>
<svg width="16px" height="16px" viewBox="0 0 16 16" version="1.1" xmlns="http://www.w3.org/2000/svg" xmlns:xlink="http://www.w3.org/1999/xlink">
    <!-- Generator: Sketch 63.1 (92452) - https://sketch.com -->
    <title>Shape</title>
    <desc>Created with Sketch.</desc>
    <g id="Page-1" stroke="none" stroke-width="1" fill="none" fill-rule="evenodd">
        <g id="CS_Candidate2020_Assessment_Browse" transform="translate(-22.000000, -127.000000)" fill="#ACAEC1" fill-rule="nonzero">
            <path d="M37.5611234,141.180118 L33.9170608,137.535566 C35.819997,134.955082 35.5965919,131.252194 33.2794354,128.9352 C32.0310714,127.687325 30.3717462,127 28.606992,127 C26.8420749,127 25.1829126,127.687325 23.9353634,128.9352 C22.6873253,130.183401 22,131.842401 22,133.606992 C22,135.371746 22.6873253,137.030908 23.9353634,138.279272 C25.1830756,139.527311 26.8422378,140.214636 28.6073179,140.214636 C30.0357422,140.214636 31.4046896,139.758863 32.5368698,138.918201 L36.1801177,142.560797 C36.3645777,142.74542 36.6098182,142.846939 36.8705391,142.846939 C37.1320747,142.846939 37.377804,142.744769 37.5601457,142.561612 C37.7449316,142.377315 37.8467757,142.132075 37.8469388,141.871028 C37.8471016,141.609981 37.7455834,141.364578 37.5611234,141.180118 Z M28.606992,128.952962 C29.8499786,128.952962 31.0186598,129.437088 31.8979408,130.316369 C32.7754294,131.193695 33.2587407,132.362376 33.2587407,133.606992 C33.2587407,134.851608 32.7754294,136.020452 31.8977779,136.897941 C31.0188227,137.777059 29.8501416,138.261185 28.606992,138.261185 C27.3640054,138.261185 26.1953242,137.777059 25.3160432,136.897941 C24.4369251,136.019149 23.9527991,134.850467 23.9527991,133.606992 C23.9527991,132.364005 24.4369251,131.195324 25.3160432,130.316369 C26.1954872,129.437251 27.3641684,128.952962 28.606992,128.952962 Z" id="Shape"></path>
        </g>
    </g>
</svg>