<svg width="22px" height="22px" viewBox="0 0 22 22" version="1.1" xmlns="http://www.w3.org/2000/svg" xmlns:xlink="http://www.w3.org/1999/xlink">
    <g id="Page-1" stroke="none" stroke-width="1" fill="none" fill-rule="evenodd">
        <g id="TAL_Home" transform="translate(-117.000000, -967.000000)" fill="#FFF" fill-rule="nonzero" stroke="#FFFFFF" stroke-width="0.5">
            <g id="Group-12" transform="translate(0.000000, 948.000000)">
                <g id="Group-9">
                    <g id="noun_Search_1080246" transform="translate(118.000000, 20.000000)">
                        <path d="M19.5653061,17.8357143 L15.0014286,13.2712245 C17.3846939,10.0393878 17.104898,5.40183673 14.2028571,2.5 C12.6393878,0.937142857 10.5612245,0.0763265306 8.35102041,0.0763265306 C6.14061224,0.0763265306 4.06265306,0.937142857 2.50020408,2.5 C0.937142857,4.06326531 0.0763265306,6.14102041 0.0763265306,8.35102041 C0.0763265306,10.5612245 0.937142857,12.6391837 2.50020408,14.2026531 C4.06285714,15.7657143 6.14081633,16.6265306 8.35142857,16.6265306 C10.1404082,16.6265306 11.854898,16.0557143 13.2728571,15.0028571 L17.8357143,19.564898 C18.0667347,19.7961224 18.3738776,19.9232653 18.7004082,19.9232653 C19.0279592,19.9232653 19.3357143,19.7953061 19.5640816,19.5659184 C19.7955102,19.335102 19.9230612,19.0279592 19.9232656,18.7010204 C19.9234694,18.3740816 19.7963265,18.0667347 19.5653061,17.8357143 Z M8.35102041,2.5222449 C9.9077551,2.5222449 11.3714286,3.12857143 12.4726531,4.22979592 C13.5716327,5.32857143 14.1769388,6.7922449 14.1769388,8.35102041 C14.1769388,9.90979592 13.5716327,11.3736735 12.472449,12.4726531 C11.3716327,13.5736735 9.90795918,14.18 8.35102041,14.18 C6.79428571,14.18 5.33061224,13.5736735 4.22938776,12.4726531 C3.12836735,11.3720408 2.52204082,9.90836735 2.52204082,8.35102041 C2.52204082,6.79428571 3.12836735,5.33061224 4.22938776,4.22979592 C5.33081633,3.12877551 6.7944898,2.5222449 8.35102041,2.5222449 Z" id="Shape"></path>
                    </g>
                </g>
            </g>
        </g>
    </g>
</svg>