<?xml version="1.0" encoding="UTF-8"?>
<svg width="46px" height="46px" viewBox="0 0 46 46" version="1.1" xmlns="http://www.w3.org/2000/svg" xmlns:xlink="http://www.w3.org/1999/xlink">
    <!-- Generator: Sketch 63.1 (92452) - https://sketch.com -->
    <title>Group 4</title>
    <desc>Created with Sketch.</desc>
    <g id="Page-1" stroke="none" stroke-width="1" fill="none" fill-rule="evenodd">
        <g id="Redesign_My_Profile" transform="translate(-334.000000, -480.000000)">
            <g id="Group-7" transform="translate(-6.000000, 151.000000)">
                <g id="Group-10" transform="translate(37.000000, 328.000000)">
                    <g id="Group-4" transform="translate(303.438642, 1.807692)">
                        <g id="Group-3-Copy-2" fill="#F9683D">
                            <ellipse id="Oval" cx="22.7806789" cy="22.5961538" rx="22.7806789" ry="22.5961538"></ellipse>
                        </g>
                        <g id="noun_Social-Media_2170047" transform="translate(10.023499, 9.038462)" fill="#FFFFFF" fill-rule="nonzero">
                            <path d="M3.0346292,0.0649317146 C1.40182487,0.0649317146 0.065462073,1.39048469 0.065462073,3.01004472 C0.065462073,4.62961589 1.40182487,5.95515773 3.0346292,5.95516886 C3.66854649,5.95516886 4.25647121,5.75369505 4.7401486,5.41446213 L6.90672016,7.5634753 C5.60720474,9.01900671 4.81612962,10.9307038 4.81612962,13.023449 C4.81612962,15.0879099 5.58677691,16.975586 6.85511602,18.4235927 L4.67461902,20.5864085 C4.20379817,20.2746696 3.63989402,20.0917291 3.0346292,20.0917291 C1.40182487,20.0917291 0.065462073,21.4172821 0.065462073,23.0368421 C0.065462073,24.6564022 1.40182487,25.9819551 3.0346292,25.9819551 C4.66743365,25.9819551 6.00379645,24.6564022 6.00379645,23.0368421 C6.00379645,22.4414369 5.82157865,21.886883 5.512043,21.4222021 L7.69542003,19.2559356 C9.15393438,20.5088801 11.0531925,21.2697721 13.1297979,21.2697721 C15.2396284,21.2697721 17.1669446,20.4851151 18.6343667,19.1961168 L20.8009079,21.34513 C20.4589193,21.8249048 20.2557991,22.4080769 20.2557991,23.0368421 C20.2557991,24.6564022 21.5921611,25.9819551 23.2249659,25.9819551 C24.8577707,25.9819551 26.1941327,24.6564022 26.1941327,23.0368421 C26.1941327,21.4172821 24.8577707,20.0917291 23.2249659,20.0917291 C22.6534909,20.0917291 22.1204065,20.2570044 21.6661537,20.5375205 L19.4653763,18.3539897 C20.6975214,16.9153331 21.4434656,15.0548059 21.4434656,13.023449 C21.4434656,10.9636742 20.6763521,9.07980505 19.4131792,7.63307838 L21.5965556,5.46737961 C22.06512,5.77459935 22.6245111,5.95516886 23.2249659,5.95516886 C24.8577707,5.95515773 26.1941327,4.62961589 26.1941327,3.01004472 C26.1941327,1.39048469 24.8577707,0.0649317146 23.2249659,0.0649317146 C21.5921611,0.0649317146 20.2557991,1.39048469 20.2557991,3.01004472 C20.2557991,3.61040329 20.4402436,4.1697547 20.7545294,4.63676209 L18.5740325,6.79958902 C17.1142122,5.54153533 15.2111244,4.77711475 13.1297979,4.77711475 C11.0818446,4.77711475 9.20613229,5.51702454 7.75572384,6.7391914 L5.55494747,4.55623935 C5.83764189,4.10570606 6.00379645,3.57677608 6.00379645,3.01004472 C6.00379645,1.39048469 4.66743365,0.0649317146 3.0346292,0.0649317146 L3.0346292,0.0649317146 Z M3.0346292,1.24297469 C4.02555915,1.24297469 4.81612962,2.02715306 4.81612962,3.01004472 C4.81612962,3.99294751 4.02555915,4.77711475 3.0346292,4.77711475 C2.04369937,4.77711475 1.2531289,3.99294751 1.2531289,3.01004472 C1.2531289,2.02715306 2.04369937,1.24297469 3.0346292,1.24297469 Z M23.2249659,1.24297469 C24.2158964,1.24297469 25.0064662,2.02715306 25.0064662,3.01004472 C25.0064662,3.99294751 24.2158964,4.77711475 23.2249659,4.77711475 C22.2340365,4.77711475 21.4434656,3.99294751 21.4434656,3.01004472 C21.4434656,2.02715306 22.2340365,1.24297469 23.2249659,1.24297469 Z M13.1297979,5.95516886 C17.0724067,5.95516886 20.2557991,9.11276439 20.2557991,13.023449 C20.2557991,15.39346 19.0854426,17.4853815 17.2866312,18.7669998 L17.2866312,18.1164287 C17.2866312,15.8021624 15.4301305,13.906984 13.1297979,13.906984 C10.8294057,13.906984 8.97296358,15.8021624 8.97296358,18.1164287 L8.97296358,18.7669998 C7.17415304,17.4853815 6.00379645,15.39346 6.00379645,13.023449 C6.00379645,9.11276439 9.18718902,5.95516886 13.1297979,5.95516886 Z M13.1297979,13.906984 C14.7626015,13.906984 16.0989647,12.581431 16.0989647,10.9618599 C16.0989647,9.3422887 14.7626015,8.01674685 13.1297979,8.01674685 C11.4969931,8.01674685 10.1606311,9.3422887 10.1606311,10.9618599 C10.1606311,12.581431 11.4969931,13.906984 13.1297979,13.906984 Z M13.1297979,9.19478983 C14.1207273,9.19478983 14.9112982,9.97895707 14.9112982,10.9618599 C14.9112982,11.9447738 14.1207273,12.7289299 13.1297979,12.7289299 C12.1388674,12.7289299 11.3482976,11.9447738 11.3482976,10.9618599 C11.3482976,9.97895707 12.1388674,9.19478983 13.1297979,9.19478983 Z M13.1297979,15.085027 C14.7771509,15.085027 16.0989647,16.4193624 16.0989647,18.1164287 L16.0989647,19.4509311 C15.1953585,19.8612141 14.1905026,20.0917291 13.1297979,20.0917291 C12.069092,20.0917291 11.0642372,19.8612141 10.1606311,19.4509311 L10.1606311,18.1164287 C10.1606311,16.4193624 11.4823854,15.085027 13.1297979,15.085027 Z M3.0346292,21.2697721 C4.02555915,21.2697721 4.81612962,22.0539393 4.81612962,23.0368421 C4.81612962,24.0197449 4.02555915,24.8039121 3.0346292,24.8039121 C2.04369937,24.8039121 1.2531289,24.0197449 1.2531289,23.0368421 C1.2531289,22.0539393 2.04369937,21.2697721 3.0346292,21.2697721 Z M23.2249659,21.2697721 C24.2158964,21.2697721 25.0064662,22.0539393 25.0064662,23.0368421 C25.0064662,24.0197449 24.2158964,24.8039121 23.2249659,24.8039121 C22.2340365,24.8039121 21.4434656,24.0197449 21.4434656,23.0368421 C21.4434656,22.0539393 22.2340365,21.2697721 23.2249659,21.2697721 Z" id="Shape"></path>
                        </g>
                    </g>
                </g>
            </g>
        </g>
    </g>
</svg>