<?xml version="1.0" encoding="UTF-8"?>
<svg width="180px" height="26px" viewBox="0 0 180 26" version="1.1" xmlns="http://www.w3.org/2000/svg" xmlns:xlink="http://www.w3.org/1999/xlink">
    <!-- Generator: Sketch 63.1 (92452) - https://sketch.com -->
    <title>Group 18</title>
    <desc>Created with Sketch.</desc>
    <g id="Page-1" stroke="none" stroke-width="1" fill="none" fill-rule="evenodd">
        <g id="CS_Candidate2020_Feedback" transform="translate(-28.000000, -139.000000)">
            <g id="Group-18" transform="translate(28.000000, 139.000000)">
                <polygon id="Star-Copy-11" fill="#EFA72D" points="14 21 5.77100647 25.3262379 7.34260439 16.163119 0.685208772 9.67376208 9.88550323 8.33688104 14 0 18.1144968 8.33688104 27.3147912 9.67376208 20.6573956 16.163119 22.2289935 25.3262379"></polygon>
                <polygon id="Star-Copy-12" fill="#EFA72D" points="52 21 43.7710065 25.3262379 45.3426044 16.163119 38.6852088 9.67376208 47.8855032 8.33688104 52 0 56.1144968 8.33688104 65.3147912 9.67376208 58.6573956 16.163119 60.2289935 25.3262379"></polygon>
                <polygon id="Star-Copy-14" fill="#EFA72D" points="128 21 119.771006 25.3262379 121.342604 16.163119 114.685209 9.67376208 123.885503 8.33688104 128 0 132.114497 8.33688104 141.314791 9.67376208 134.657396 16.163119 136.228994 25.3262379"></polygon>
                <polygon id="Star-Copy-13" fill="#EFA72D" points="90 21 81.7710065 25.3262379 83.3426044 16.163119 76.6852088 9.67376208 85.8855032 8.33688104 90 0 94.1144968 8.33688104 103.314791 9.67376208 96.6573956 16.163119 98.2289935 25.3262379"></polygon>
                <polygon id="Star-Copy-15" stroke="#9E9C9C" points="166 21 157.771006 25.3262379 159.342604 16.163119 152.685209 9.67376208 161.885503 8.33688104 166 0 170.114497 8.33688104 179.314791 9.67376208 172.657396 16.163119 174.228994 25.3262379"></polygon>
            </g>
        </g>
    </g>
</svg>