<?xml version="1.0" encoding="UTF-8"?>
<svg width="78px" height="10px" viewBox="0 0 78 10" version="1.1" xmlns="http://www.w3.org/2000/svg" xmlns:xlink="http://www.w3.org/1999/xlink">
    <!-- Generator: Sketch 63.1 (92452) - https://sketch.com -->
    <title>Group 22</title>
    <desc>Created with Sketch.</desc>
    <g id="Page-1" stroke="none" stroke-width="1" fill="none" fill-rule="evenodd">
        <g id="CS_Candidate2020_Job_Details_Interview_4" transform="translate(-36.000000, -626.000000)">
            <g id="Group-22" transform="translate(36.000000, 626.000000)">
                <g id="Group-16-Copy-2">
                    <g id="Group-15" fill="#FFB01F">
                        <polygon id="Star" points="5 7.5 2.06107374 9.04508497 2.62235871 5.77254249 0.244717419 3.45491503 3.53053687 2.97745751 5 0 6.46946313 2.97745751 9.75528258 3.45491503 7.37764129 5.77254249 7.93892626 9.04508497"></polygon>
                    </g>
                    <g id="Group-15-Copy-3" transform="translate(11.000000, 0.000000)" fill="#FFB01F">
                        <polygon id="Star" points="6 7.5 3.06107374 9.04508497 3.62235871 5.77254249 1.24471742 3.45491503 4.53053687 2.97745751 6 0 7.46946313 2.97745751 10.7552826 3.45491503 8.37764129 5.77254249 8.93892626 9.04508497"></polygon>
                    </g>
                    <g id="Group-15-Copy-4" transform="translate(24.000000, 0.000000)" fill="#FFB01F">
                        <polygon id="Star" points="5 7.5 2.06107374 9.04508497 2.62235871 5.77254249 0.244717419 3.45491503 3.53053687 2.97745751 5 0 6.46946313 2.97745751 9.75528258 3.45491503 7.37764129 5.77254249 7.93892626 9.04508497"></polygon>
                    </g>
                    <g id="Group-15-Copy-5" transform="translate(36.000000, 0.000000)" fill="#FFB01F">
                        <polygon id="Star" points="5 7.5 2.06107374 9.04508497 2.62235871 5.77254249 0.244717419 3.45491503 3.53053687 2.97745751 5 0 6.46946313 2.97745751 9.75528258 3.45491503 7.37764129 5.77254249 7.93892626 9.04508497"></polygon>
                    </g>
                    <g id="Group-15-Copy-6" transform="translate(49.000000, 0.000000)" fill="#D8D8D8">
                        <polygon id="Star" points="5 7.5 2.06107374 9.04508497 2.62235871 5.77254249 0.244717419 3.45491503 3.53053687 2.97745751 5 0 6.46946313 2.97745751 9.75528258 3.45491503 7.37764129 5.77254249 7.93892626 9.04508497"></polygon>
                    </g>
                </g>
                <text id="(4)" font-family="Helvetica" font-size="10" font-weight="normal" letter-spacing="-0.00833334375" fill="#FFB01F">
                    <tspan x="63" y="10">(4)</tspan>
                </text>
            </g>
        </g>
    </g>
</svg>