<svg width="22px" height="22px" viewBox="0 0 22 22" version="1.1" xmlns="http://www.w3.org/2000/svg" xmlns:xlink="http://www.w3.org/1999/xlink">
    <g id="Page-1" stroke="none" stroke-width="1" fill="none" fill-rule="evenodd" opacity="0.48500279">
        <g id="TAL_Home" transform="translate(-198.000000, -967.000000)" fill="#747588" fill-rule="nonzero">
            <g id="Group-12" transform="translate(0.000000, 948.000000)">
                <g id="Group-9">
                    <g id="noun_Star_2157383" transform="translate(198.000000, 19.000000)">
                        <path d="M10.9770833,18.425 C11.34375,18.425 11.6645833,18.7458333 11.6645833,19.1125 L11.6645833,19.1125 L11.6645833,21.175 C11.6645833,21.5416667 11.34375,21.8625 10.9770833,21.8625 C10.6104167,21.8625 10.2895833,21.5645833 10.2895833,21.175 L10.2895833,21.175 L10.2895833,19.1125 C10.2895833,18.7458333 10.5875,18.425 10.9770833,18.425 Z M16.225,16.2708333 C16.5,15.9958333 16.9354167,15.9958333 17.2104167,16.2708333 L17.2104167,16.2708333 L18.6541667,17.7375 C18.9291667,18.0125 18.9291667,18.4479167 18.6541667,18.7229167 C18.5166667,18.8604167 18.3333333,18.9291667 18.1729167,18.9291667 C18.0125,18.9291667 17.8291667,18.8604167 17.6916667,18.7229167 L17.6916667,18.7229167 L16.225,17.25625 C15.95,16.98125 15.95,16.5458333 16.225,16.2708333 Z M4.74375,16.225 C5.01875,15.9729167 5.45416667,15.9729167 5.70625,16.225 C5.98125,16.5 5.98125,16.9354167 5.70625,17.2104167 L5.70625,17.2104167 L4.23958333,18.6770833 C4.10208333,18.8145833 3.91875,18.8833333 3.75833333,18.8833333 C3.59791667,18.8833333 3.41458333,18.8145833 3.27708333,18.6770833 C3.00208333,18.4020833 3.00208333,17.9666667 3.27708333,17.6916667 L3.27708333,17.6916667 Z M10.45,6.23333333 C10.65625,5.72916667 11.3895833,5.72916667 11.5958333,6.23333333 L11.5958333,6.23333333 L12.58125,8.59375 C12.6729167,8.82291667 12.8791667,8.96041667 13.1083333,8.98333333 L13.1083333,8.98333333 L15.6520833,9.18958333 C16.2020833,9.23541667 16.4083333,9.92291667 15.9958333,10.2895833 L15.9958333,10.2895833 L14.0479167,11.9625 C13.8645833,12.1229167 13.7958333,12.3520833 13.8416667,12.58125 L13.8416667,12.58125 L14.4375,15.05625 C14.575,15.5833333 14.0020833,16.01875 13.5208333,15.7208333 L13.5208333,15.7208333 L11.34375,14.3916667 C11.1604167,14.2770833 10.9083333,14.2770833 10.7020833,14.3916667 L10.7020833,14.3916667 L8.525,15.7208333 C8.06666667,16.01875 7.47083333,15.5833333 7.60833333,15.05625 L7.60833333,15.05625 L8.20416667,12.58125 C8.25,12.3520833 8.18125,12.1229167 7.99791667,11.9625 L7.99791667,11.9625 L6.07291667,10.3125 C5.6375,9.94583333 5.86666667,9.25833333 6.41666667,9.2125 L6.41666667,9.2125 L8.9375,8.98333333 C9.16666667,8.96041667 9.37291667,8.8 9.46458333,8.59375 L9.46458333,8.59375 Z M21.1979167,10.3354167 C21.5645833,10.3354167 21.8854167,10.65625 21.8854167,11.0229167 C21.8854167,11.3895833 21.5875,11.7104167 21.1979167,11.7104167 L21.1979167,11.7104167 L19.1354167,11.7104167 C18.76875,11.7104167 18.4479167,11.3895833 18.4479167,11.0229167 C18.4479167,10.65625 18.7458333,10.3354167 19.1354167,10.3354167 L19.1354167,10.3354167 Z M2.8875,10.2895833 C3.25416667,10.2895833 3.575,10.5875 3.575,10.9770833 C3.575,11.34375 3.25416667,11.6645833 2.8875,11.6645833 L2.8875,11.6645833 L0.825,11.6645833 C0.458333333,11.6645833 0.1375,11.3666667 0.1375,10.9770833 C0.1375,10.5875 0.435416667,10.2895833 0.825,10.2895833 L0.825,10.2895833 Z M17.7145833,3.3 C17.9895833,3.025 18.425,3.025 18.7,3.3 C18.975,3.575 18.975,4.01041667 18.7,4.28541667 L18.7,4.28541667 L17.2333333,5.75208333 C17.0958333,5.88958333 16.9354167,5.95833333 16.7520833,5.95833333 C16.5916667,5.95833333 16.4083333,5.9125 16.2708333,5.775 C15.9958333,5.5 15.9958333,5.06458333 16.2708333,4.78958333 L16.2708333,4.78958333 Z M3.3,3.27708333 C3.575,3.00208333 4.01041667,3.00208333 4.28541667,3.27708333 L4.28541667,3.27708333 L5.75208333,4.74375 C6.02708333,5.01875 6.02708333,5.45416667 5.75208333,5.72916667 C5.61458333,5.86666667 5.45416667,5.93541667 5.27083333,5.93541667 C5.11041667,5.93541667 4.92708333,5.86666667 4.78958333,5.72916667 L4.78958333,5.72916667 L3.3,4.2625 C3.025,3.9875 3.025,3.55208333 3.3,3.27708333 Z M11.0229167,0.1375 C11.3895833,0.1375 11.7104167,0.435416667 11.7104167,0.825 L11.7104167,0.825 L11.7104167,2.8875 C11.7104167,3.25416667 11.4125,3.575 11.0229167,3.575 C10.65625,3.575 10.3354167,3.25416667 10.3354167,2.8875 L10.3354167,2.8875 L10.3354167,0.825 C10.3354167,0.458333333 10.65625,0.1375 11.0229167,0.1375 Z" id="Combined-Shape"></path>
                    </g>
                </g>
            </g>
        </g>
    </g>
</svg>