<?xml version="1.0" encoding="UTF-8"?>
<svg width="18px" height="15px" viewBox="0 0 18 15" version="1.1" xmlns="http://www.w3.org/2000/svg" xmlns:xlink="http://www.w3.org/1999/xlink">
    <!-- Generator: Sketch 63.1 (92452) - https://sketch.com -->
    <title>Group</title>
    <desc>Created with Sketch.</desc>
    <g id="Page-1" stroke="none" stroke-width="1" fill="none" fill-rule="evenodd">
        <g id="CS_Candidate2020_Job_Details_Applied_1" transform="translate(-239.000000, -1916.000000)" fill="#FFFFFF" fill-rule="nonzero">
            <g id="noun_Assessment_2404411" transform="translate(239.000000, 1916.000000)">
                <g id="Group">
                    <path d="M4.3125,0.075 C6.0375,0.075 7.51875,1.10625 8.175,2.5875 L8.175,2.5875 L12.225,2.5875 C12.75,2.5875 13.2,2.85 13.5,3.24375 L13.5,3.24375 L14.94375,1.8 C15.1125,1.63125 15.3375,1.5375 15.5625,1.5375 C15.825,1.5 16.0125,1.6125 16.18125,1.78125 L16.18125,1.78125 L17.64375,3.225 C17.98125,3.5625 18,4.10625 17.68125,4.44375 L17.68125,4.44375 L13.85625,8.30625 L13.85625,12.5625 C13.85625,13.44375 13.125,14.175 12.24375,14.175 L12.24375,14.175 L4.2,14.175 C3.3,14.175 2.5875,13.44375 2.5875,12.5625 L2.5875,12.5625 L2.5875,8.11875 C1.125,7.4625 0.09375,6 0.09375,4.29375 C0.09375,1.96875 1.9875,0.075 4.3125,0.075 Z M12.225,3.6 L8.45625,3.6 C8.49375,3.825 8.53125,4.05 8.53125,4.275 C8.53125,6.6 6.6375,8.49375 4.3125,8.49375 C4.05,8.49375 3.825,8.45625 3.58125,8.41875 L3.58125,8.41875 L3.58125,12.5625 C3.58125,12.9 3.84375,13.18125 4.18125,13.18125 L4.18125,13.18125 L12.225,13.18125 C12.54375,13.18125 12.825,12.9 12.825,12.5625 L12.825,12.5625 L12.825,9.31875 L12.2625,9.88125 C11.8875,10.25625 11.45625,10.55625 10.9875,10.78125 L10.9875,10.78125 L9.54375,11.45625 C9.39375,11.53125 9.225,11.56875 9.05625,11.56875 C8.75625,11.56875 8.475,11.45625 8.25,11.23125 C7.9125,10.89375 7.81875,10.3875 8.025,9.9375 L8.025,9.9375 L8.7,8.475 C8.925,8.00625 9.225,7.575 9.6,7.2 L9.6,7.2 L12.7875,3.975 C12.69375,3.75 12.46875,3.6 12.225,3.6 L12.225,3.6 Z M9.58125,8.94375 L8.90625,10.35 C8.8875,10.425 8.90625,10.48125 8.94375,10.51875 C8.98125,10.5375 9.0375,10.575 9.1125,10.5375 L9.1125,10.5375 L10.51875,9.88125 L9.58125,8.94375 Z M13.95,4.25625 L10.29375,7.93125 C10.2375,7.96875 10.2,8.04375 10.14375,8.1 L10.14375,8.1 L11.38125,9.31875 C11.4375,9.2625 11.49375,9.225 11.55,9.16875 L11.55,9.16875 L15.20625,5.5125 L13.95,4.25625 Z M4.3125,1.0875 C2.55,1.0875 1.10625,2.53125 1.10625,4.29375 C1.10625,6.05625 2.53125,7.5 4.3125,7.5 C6.075,7.5 7.51875,6.05625 7.51875,4.29375 C7.51875,2.53125 6.075,1.0875 4.3125,1.0875 Z M5.1,3.225 C5.2875,3.0375 5.60625,3.01875 5.8125,3.20625 C6.01875,3.39375 6.0375,3.7125 5.85,3.9375 L5.85,3.9375 L4.2375,5.6625 C4.14375,5.775 3.99375,5.83125 3.8625,5.83125 C3.7125,5.83125 3.58125,5.75625 3.4875,5.6625 L3.4875,5.6625 L2.64375,4.74375 C2.45625,4.5375 2.45625,4.21875 2.6625,4.03125 C2.86875,3.84375 3.1875,3.84375 3.375,4.05 L3.375,4.05 L3.8625,4.55625 Z M15.6,2.5875 L14.6625,3.525 L15.91875,4.78125 L16.85625,3.84375 L15.6,2.5875 Z" id="Combined-Shape"></path>
                </g>
            </g>
        </g>
    </g>
</svg>