<?xml version="1.0" encoding="UTF-8"?>
<svg width="23px" height="18px" viewBox="0 0 23 18" version="1.1" xmlns="http://www.w3.org/2000/svg" xmlns:xlink="http://www.w3.org/1999/xlink">
    <!-- Generator: Sketch 63.1 (92452) - https://sketch.com -->
    <title>noun_Assessment_2404411</title>
    <desc>Created with Sketch.</desc>
    <g id="Page-1" stroke="none" stroke-width="1" fill="none" fill-rule="evenodd">
        <g id="CS_Candidate2020_Job_Details_Applied_1" transform="translate(-294.000000, -341.000000)" fill="#0A7BE0" fill-rule="nonzero" stroke="#FFFFFF" stroke-width="0.3">
            <g id="noun_Assessment_2404411" transform="translate(295.000000, 342.000000)">
                <g id="Group">
                    <path d="M5.03125,0.0875 C7.04375,0.0875 8.771875,1.290625 9.5375,3.01875 L9.5375,3.01875 L14.2625,3.01875 C14.875,3.01875 15.4,3.325 15.75,3.784375 L15.75,3.784375 L17.434375,2.1 C17.63125,1.903125 17.89375,1.79375 18.15625,1.79375 C18.4625,1.75 18.68125,1.88125 18.878125,2.078125 L18.878125,2.078125 L20.584375,3.7625 C20.978125,4.15625 21,4.790625 20.628125,5.184375 L20.628125,5.184375 L16.165625,9.690625 L16.165625,14.65625 C16.165625,15.684375 15.3125,16.5375 14.284375,16.5375 L14.284375,16.5375 L4.9,16.5375 C3.85,16.5375 3.01875,15.684375 3.01875,14.65625 L3.01875,14.65625 L3.01875,9.471875 C1.3125,8.70625 0.109375,7 0.109375,5.009375 C0.109375,2.296875 2.31875,0.0875 5.03125,0.0875 Z M14.2625,4.2 L9.865625,4.2 C9.909375,4.4625 9.953125,4.725 9.953125,4.9875 C9.953125,7.7 7.74375,9.909375 5.03125,9.909375 C4.725,9.909375 4.4625,9.865625 4.178125,9.821875 L4.178125,9.821875 L4.178125,14.65625 C4.178125,15.05 4.484375,15.378125 4.878125,15.378125 L4.878125,15.378125 L14.2625,15.378125 C14.634375,15.378125 14.9625,15.05 14.9625,14.65625 L14.9625,14.65625 L14.9625,10.871875 L14.30625,11.528125 C13.86875,11.965625 13.365625,12.315625 12.81875,12.578125 L12.81875,12.578125 L11.134375,13.365625 C10.959375,13.453125 10.7625,13.496875 10.565625,13.496875 C10.215625,13.496875 9.8875,13.365625 9.625,13.103125 C9.23125,12.709375 9.121875,12.11875 9.3625,11.59375 L9.3625,11.59375 L10.15,9.8875 C10.4125,9.340625 10.7625,8.8375 11.2,8.4 L11.2,8.4 L14.91875,4.6375 C14.809375,4.375 14.546875,4.2 14.2625,4.2 L14.2625,4.2 Z M11.178125,10.434375 L10.390625,12.075 C10.36875,12.1625 10.390625,12.228125 10.434375,12.271875 C10.478125,12.29375 10.54375,12.3375 10.63125,12.29375 L10.63125,12.29375 L12.271875,11.528125 L11.178125,10.434375 Z M16.275,4.965625 L12.009375,9.253125 C11.94375,9.296875 11.9,9.384375 11.834375,9.45 L11.834375,9.45 L13.278125,10.871875 C13.34375,10.80625 13.409375,10.7625 13.475,10.696875 L13.475,10.696875 L17.740625,6.43125 L16.275,4.965625 Z M5.03125,1.26875 C2.975,1.26875 1.290625,2.953125 1.290625,5.009375 C1.290625,7.065625 2.953125,8.75 5.03125,8.75 C7.0875,8.75 8.771875,7.065625 8.771875,5.009375 C8.771875,2.953125 7.0875,1.26875 5.03125,1.26875 Z M5.95,3.7625 C6.16875,3.54375 6.540625,3.521875 6.78125,3.740625 C7.021875,3.959375 7.04375,4.33125 6.825,4.59375 L6.825,4.59375 L4.94375,6.60625 C4.834375,6.7375 4.659375,6.803125 4.50625,6.803125 C4.33125,6.803125 4.178125,6.715625 4.06875,6.60625 L4.06875,6.60625 L3.084375,5.534375 C2.865625,5.29375 2.865625,4.921875 3.10625,4.703125 C3.346875,4.484375 3.71875,4.484375 3.9375,4.725 L3.9375,4.725 L4.50625,5.315625 Z M18.2,3.01875 L17.10625,4.1125 L18.571875,5.578125 L19.665625,4.484375 L18.2,3.01875 Z" id="Combined-Shape"></path>
                </g>
            </g>
        </g>
    </g>
</svg>