<?xml version="1.0" encoding="UTF-8"?>
<svg width="20px" height="20px" viewBox="0 0 20 20" version="1.1" xmlns="http://www.w3.org/2000/svg" xmlns:xlink="http://www.w3.org/1999/xlink">
    <!-- Generator: Sketch 63.1 (92452) - https://sketch.com -->
    <title>noun_Time_1886148</title>
    <desc>Created with Sketch.</desc>
    <g id="Page-1" stroke="none" stroke-width="1" fill="none" fill-rule="evenodd">
        <g id="CS_Candidate2020_Assessment_My" transform="translate(-145.000000, -158.000000)" fill="#515468" fill-rule="nonzero">
            <g id="noun_Time_1886148" transform="translate(145.000000, 158.000000)">
                <path d="M9.97777778,0.16 C15.4105892,0.164898702 19.8138745,4.56718986 19.8200003,10 C19.8208989,13.9810094 17.4234884,17.5705227 13.7457732,19.0946119 C10.0680581,20.6187011 5.83437838,19.777191 3.01906176,16.96251 C0.203745139,14.147829 -0.638720995,9.9143395 0.884537704,6.23628029 C2.4077964,2.55822108 5.99676828,0.16 9.97777778,0.16 Z M9.97777778,0.913333333 C4.95935035,0.913333333 0.891111111,4.98157257 0.891111111,10 C0.891111111,15.0184274 4.95935035,19.0866667 9.97777778,19.0866667 C14.9941741,19.0817666 19.0595444,15.0163964 19.0644444,10 C19.0644444,4.98157257 14.9962052,0.913333333 9.97777778,0.913333333 Z M9.97777778,2.22222189 C14.2774405,2.22098276 17.76675,5.70035128 17.7777893,10 C17.7831692,13.1516086 15.88931,15.9960546 12.9794945,17.2066906 C10.069679,18.4173267 6.71709904,17.7556749 4.48539515,15.5303291 C2.25369125,13.3049834 1.58247706,9.95430479 2.78480629,7.04104709 C3.98713553,4.12778938 6.82616659,2.22582251 9.97777778,2.22222189 Z M9.96741887,2.9755558 C6.08294968,2.98005789 2.937151,6.13182017 2.94000873,10.0162909 C2.94287036,13.9007617 6.09330618,17.0478888 9.97777778,17.046667 L9.97777778,17.046667 L9.97777778,17.0355556 C13.8610166,17.0306558 17.0074381,13.8832402 17.0111111,10 C17.0049763,6.11553305 13.8518881,2.97106335 9.96741887,2.9755558 Z M9.97777778,14.5511111 C10.1864187,14.5511111 10.3555556,14.720248 10.3555556,14.9288889 L10.3555556,14.9288889 L10.3555556,15.7777778 C10.3555556,15.9864187 10.1864187,16.1555556 9.97777778,16.1555556 C9.76913687,16.1555556 9.6,15.9864187 9.6,15.7777778 L9.6,15.7777778 L9.6,14.9288889 C9.6,14.720248 9.76913687,14.5511111 9.97777778,14.5511111 Z M9.97777778,3.76444444 C10.1864187,3.76444444 10.3555556,3.93358132 10.3555556,4.14222222 L10.3555556,4.14222222 L10.3555556,9.53777778 L13.2266667,7.82444444 C13.4053664,7.72340329 13.6320491,7.78355966 13.7371352,7.95991108 C13.8422213,8.13626249 13.7872449,8.36425681 13.6133333,8.47333333 L13.6133333,8.47333333 L10.1711111,10.5288889 C10.1126488,10.5637605 10.0458503,10.5822222 9.97777778,10.5822222 C9.91247378,10.5815853 9.84834344,10.5647893 9.79111111,10.5333333 C9.67350619,10.4654369 9.60075629,10.3402394 9.6,10.2044444 L9.6,10.2044444 L9.6,4.14222222 C9.6,3.93358132 9.76913687,3.76444444 9.97777778,3.76444444 Z M15.9511111,9.62222222 C16.1491353,9.63739881 16.302073,9.8025062 16.302073,10.0011111 C16.302073,10.199716 16.1491353,10.3648234 15.9511111,10.38 L15.9511111,10.38 L15.0977778,10.38 C14.8997536,10.3648234 14.7468159,10.199716 14.7468159,10.0011111 C14.7468159,9.8025062 14.8997536,9.63739881 15.0977778,9.62222222 L15.0977778,9.62222222 Z M4.85555556,9.62222222 C5.05357975,9.63739881 5.20651748,9.8025062 5.20651748,10.0011111 C5.20651748,10.199716 5.05357975,10.3648234 4.85555556,10.38 L4.85555556,10.38 L4,10.38 C3.80197581,10.3648234 3.64903808,10.199716 3.64903808,10.0011111 C3.64903808,9.8025062 3.80197581,9.63739881 4,9.62222222 L4,9.62222222 Z" id="Combined-Shape"></path>
            </g>
        </g>
    </g>
</svg>