<?xml version="1.0" encoding="UTF-8"?>
<svg width="43px" height="31px" viewBox="0 0 43 31" version="1.1" xmlns="http://www.w3.org/2000/svg" xmlns:xlink="http://www.w3.org/1999/xlink">
    <!-- Generator: Sketch 63.1 (92452) - https://sketch.com -->
    <title>noun_Travel_152356</title>
    <desc>Created with Sketch.</desc>
    <g id="Page-1" stroke="none" stroke-width="1" fill="none" fill-rule="evenodd">
        <g id="Redesign_My_Profile" transform="translate(-265.000000, -3988.000000)" fill="#0A7BE0" fill-rule="nonzero">
            <g id="Group-24" transform="translate(246.000000, 3988.000000)">
                <g id="noun_Travel_152356" transform="translate(19.000000, 0.000000)">
                    <g id="Group">
                        <path d="M20.4761905,30.7416667 C12.1321429,30.7416667 5.375,23.9216667 5.375,15.5 C5.375,7.07833333 12.1321429,0.258333333 20.4761905,0.258333333 C23.9571429,0.258333333 27.3869048,1.49833333 30.1,3.72 C31.7892857,5.115 33.1714286,6.92333333 34.0928571,8.88666667 C34.297619,9.24833333 34.0928571,9.71333333 33.7345238,9.92 C33.3761905,10.1266667 32.9154762,9.92 32.7107143,9.55833333 C31.8404762,7.80166667 30.6119048,6.2 29.127381,4.90833333 C26.7214286,2.89333333 23.65,1.75666667 20.4761905,1.75666667 C13.002381,1.75666667 6.91071429,7.905 6.91071429,15.4483333 C6.91071429,22.9916667 13.002381,29.1916667 20.4761905,29.1916667 C25.7488095,29.1916667 30.5607143,26.0916667 32.8130952,21.235 C32.9666667,20.8216667 33.427381,20.6666667 33.8369048,20.8733333 C34.2464286,21.0283333 34.4,21.4933333 34.1952381,21.9066667 C31.7380952,27.28 26.3630952,30.7416667 20.4761905,30.7416667 Z" id="Path"></path>
                        <path d="M9.06071429,25.3683333 C4.55595238,25.3683333 1.38214286,24.1283333 0.511904762,21.8033333 C-0.40952381,19.2716667 1.43333333,16.0166667 5.73333333,12.7616667 C6.09166667,12.5033333 6.55238095,12.555 6.80833333,12.9166667 C7.06428571,13.2783333 7.01309524,13.7433333 6.6547619,14.0016667 C3.07142857,16.74 1.33095238,19.4783333 1.9452381,21.2866667 C2.96904762,24.0766667 10.0333333,25.0583333 20.1690476,21.9066667 C20.5785714,21.8033333 20.9880952,22.01 21.1416667,22.4233333 C21.2440476,22.8366667 21.0392857,23.25 20.6297619,23.405 C16.3297619,24.7483333 12.3369048,25.3683333 9.06071429,25.3683333 Z" id="Path"></path>
                        <path d="M39.7238095,8.16333333 C39.4166667,8.16333333 39.1095238,7.95666667 39.0071429,7.64666667 C38.3416667,5.83833333 35.2702381,4.90833333 30.7654762,5.115 L29.5880952,5.115 C29.1785714,5.115 28.8202381,4.75333333 28.8202381,4.34 C28.8202381,3.92666667 29.1785714,3.565 29.5880952,3.565 L30.7142857,3.565 C36.0380952,3.30666667 39.5190476,4.54666667 40.4404762,7.13 C40.5940476,7.54333333 40.3892857,7.95666667 39.9797619,8.11166667 C39.877381,8.16333333 39.8261905,8.16333333 39.7238095,8.16333333 Z" id="Path"></path>
                        <g transform="translate(15.869048, 19.633333)" id="Path">
                            <path d="M4.60714286,3.66833333 C4.5047619,3.66833333 4.40238095,3.66833333 4.3,3.61666667 L0.563095238,1.86 C0.153571429,1.705 1.38777878e-17,1.24 0.204761905,0.826666667 C0.40952381,0.413333333 0.819047619,0.258333333 1.22857143,0.465 L4.96547619,2.22166667 C5.375,2.37666667 5.52857143,2.84166667 5.32380952,3.255 C5.1702381,3.51333333 4.91428571,3.66833333 4.60714286,3.66833333 Z"></path>
                            <path d="M2.86666667,7.44 C2.76428571,7.44 2.66190476,7.44 2.55952381,7.38833333 C2.15,7.23333333 1.99642857,6.76833333 2.20119048,6.355 L3.94166667,2.58333333 C4.14642857,2.17 4.55595238,2.015 4.96547619,2.22166667 C5.375,2.37666667 5.52857143,2.84166667 5.32380952,3.255 L3.58333333,6.975 C3.4297619,7.285 3.17380952,7.44 2.86666667,7.44 Z"></path>
                        </g>
                    </g>
                    <path d="M24.8785714,21.7 C24.7761905,21.7 24.6738095,21.7 24.5714286,21.6483333 L18.4285714,18.8066667 C18.1214286,18.6516667 17.9166667,18.29 18.0190476,17.9283333 C18.1214286,17.5666667 18.377381,17.3083333 18.7357143,17.3083333 L24.827381,17.1016667 L27.0285714,15.7583333 L23.5988095,12.0383333 C23.4452381,11.8833333 23.3940476,11.6766667 23.3940476,11.47 C23.3940476,11.2633333 23.4964286,11.0566667 23.65,10.9016667 C23.752381,10.85 24.5202381,10.1783333 26.0559524,10.1783333 C27.95,10.1783333 30.1511905,11.16 32.6083333,13.02 L37.8297619,10.5916667 C38.1369048,10.4366667 38.597619,10.385 39.1095238,10.385 C40.0821429,10.385 41.8738095,10.6433333 42.3345238,11.7283333 C42.5392857,12.1933333 42.7440476,13.02 41.822619,13.795 C41.3619048,14.1566667 40.6452381,14.5183333 39.775,14.9316667 L25.1857143,21.6483333 C25.0833333,21.7 24.9809524,21.7 24.8785714,21.7 Z M22.0119048,18.755 L24.8785714,20.0466667 L39.0583333,13.5366667 C39.8261905,13.175 40.7988095,12.7616667 40.9011905,12.5033333 C40.9011905,12.5033333 40.9011905,12.4516667 40.85,12.4 C40.747619,12.245 39.9797619,11.9866667 39.0071429,11.9866667 C38.6488095,11.9866667 38.4440476,12.0383333 38.3416667,12.09 L32.7107143,14.6733333 C32.4547619,14.7766667 32.147619,14.7766667 31.8916667,14.57 C29.025,12.245 27.0797619,11.78 25.9535714,11.78 C25.7488095,11.78 25.5440476,11.78 25.3392857,11.8316667 L28.6666667,15.3966667 C28.8202381,15.5516667 28.922619,15.81 28.8714286,16.0166667 C28.8202381,16.2233333 28.7178571,16.43 28.5130952,16.585 L25.3392857,18.5483333 C25.2369048,18.6 25.0833333,18.6516667 24.9809524,18.6516667 L22.0119048,18.755 Z" id="Shape"></path>
                </g>
            </g>
        </g>
    </g>
</svg>