<?xml version="1.0" encoding="UTF-8"?>
<svg width="15px" height="10px" viewBox="0 0 15 10" version="1.1" xmlns="http://www.w3.org/2000/svg" xmlns:xlink="http://www.w3.org/1999/xlink">
    <!-- Generator: Sketch 63.1 (92452) - https://sketch.com -->
    <title>noun_Travel_152356</title>
    <desc>Created with Sketch.</desc>
    <g id="Page-1" stroke="none" stroke-width="1" fill="none" fill-rule="evenodd">
        <g id="CS_Candidate2020_Job_Details_Search&amp;Matching" transform="translate(-144.000000, -207.000000)">
            <g id="Group-20" transform="translate(144.000000, 199.000000)">
                <g id="noun_Travel_152356" transform="translate(0.000000, 8.000000)">
                    <g id="Group">
                        <path d="M7.14285714,0.0833333333 C8.3278224,0.0833333333 9.49578247,0.464249544 10.4310079,1.14864061 L10.7142857,1.15 C12.5714286,1.06666667 13.7857143,1.46666667 14.1071429,2.3 C14.1607143,2.43333333 14.0892857,2.56666667 13.9464286,2.61666667 C13.9107143,2.63333333 13.8928571,2.63333333 13.8571429,2.63333333 C13.75,2.63333333 13.6428571,2.56666667 13.6071429,2.46666667 C13.3885698,1.91743188 12.4259636,1.61937426 11.0025216,1.64205107 C11.3658686,2.00692999 11.6685098,2.42461929 11.8928571,2.86666667 C11.9642857,2.98333333 11.8928571,3.13333333 11.7678571,3.2 C11.6428571,3.26666667 11.4821429,3.2 11.4107143,3.08333333 C11.11678,2.53465608 10.7056563,2.03285462 10.2097629,1.62331662 C10.168002,1.60643613 10.1323386,1.57825997 10.1055113,1.54407867 L10.1607143,1.58333333 C9.32142857,0.933333333 8.25,0.566666667 7.14285714,0.566666667 C4.53571429,0.566666667 2.41071429,2.55 2.41071429,4.98333333 C2.41071429,6.00062366 2.78211741,6.94217687 3.40488262,7.69351907 C4.25505975,7.66733778 5.27426262,7.52320168 6.42208913,7.23264557 L5.73214286,6.93333333 C5.58928571,6.88333333 5.53571429,6.73333333 5.60714286,6.6 C5.67857143,6.46666667 5.82142857,6.41666667 5.96428571,6.48333333 L7.26785714,7.05 L7.26785714,7.05 C7.41071429,7.1 7.46428571,7.25 7.39285714,7.38333333 L6.78571429,8.58333333 C6.73214286,8.68333333 6.64285714,8.73333333 6.53571429,8.73333333 C6.5,8.73333333 6.46428571,8.73333333 6.42857143,8.71666667 C6.28571429,8.66666667 6.23214286,8.51666667 6.30357143,8.38333333 L6.64424511,7.70034653 C5.63924058,7.9572162 4.69248649,8.10713684 3.84951649,8.16073297 C4.70274411,8.93610469 5.86487575,9.41666667 7.14285714,9.41666667 C8.98214286,9.41666667 10.6607143,8.41666667 11.4464286,6.85 C11.5,6.71666667 11.6607143,6.66666667 11.8035714,6.73333333 C11.9464286,6.78333333 12,6.93333333 11.9285714,7.06666667 C11.0714286,8.8 9.19642857,9.91666667 7.14285714,9.91666667 C5.53340933,9.91666667 4.09321138,9.24403498 3.12716882,8.18335011 L3.16071429,8.18333333 C1.58928571,8.18333333 0.482142857,7.78333333 0.178571429,7.03333333 C-0.139406448,6.22543399 0.486308355,5.18918432 1.95198676,4.15048319 C2.38373002,1.83937726 4.54236273,0.0833333333 7.14285714,0.0833333333 Z M0.678571429,6.86666667 C0.860679448,7.32557887 1.59064569,7.63282412 2.73116043,7.68897122 C2.18982885,6.91667846 1.875,5.9928432 1.875,5 L1.87686169,4.8524308 C0.930528493,5.61941806 0.491486068,6.35737874 0.678571429,6.86666667 Z M9.08928571,3.28333333 C9.75,3.28333333 10.5178571,3.6 11.375,4.2 L13.1964286,3.41666667 C13.3035714,3.36666667 13.4642857,3.35 13.6428571,3.35 C13.9821429,3.35 14.6071429,3.43333333 14.7678571,3.78333333 C14.8392857,3.93333333 14.9107143,4.2 14.5892857,4.45 C14.4285714,4.56666667 14.1785714,4.68333333 13.875,4.81666667 L8.78571429,6.98333333 C8.76190476,6.99444444 8.73809524,6.99814815 8.71428571,6.99938272 L8.67857143,7 C8.64285714,7 8.60714286,7 8.57142857,6.98333333 L6.42857143,6.06666667 C6.32142857,6.01666667 6.25,5.9 6.28571429,5.78333333 C6.32142857,5.66666667 6.41071429,5.58333333 6.53571429,5.58333333 L8.66071429,5.51666667 L9.42857143,5.08333333 L8.23214286,3.88333333 C8.17857143,3.83333333 8.16071429,3.76666667 8.16071429,3.7 C8.16071429,3.63333333 8.19642857,3.56666667 8.25,3.51666667 C8.28571429,3.5 8.55357143,3.28333333 9.08928571,3.28333333 Z M9.05357143,3.8 C8.98214286,3.8 8.91071429,3.8 8.83928571,3.81666667 L10,4.96666667 C10.0535714,5.01666667 10.0892857,5.1 10.0714286,5.16666667 C10.0535714,5.23333333 10.0178571,5.3 9.94642857,5.35 L8.83928571,5.98333333 C8.80357143,6 8.75,6.01666667 8.71428571,6.01666667 L7.67857143,6.05 L8.67857143,6.46666667 L13.625,4.36666667 C13.8928571,4.25 14.2321429,4.11666667 14.2678571,4.03333333 C14.2678571,4.03333333 14.2678571,4.01666667 14.25,4 C14.2142857,3.95 13.9464286,3.86666667 13.6071429,3.86666667 C13.4821429,3.86666667 13.4107143,3.88333333 13.375,3.9 L11.4107143,4.73333333 C11.3214286,4.76666667 11.2142857,4.76666667 11.125,4.7 C10.125,3.95 9.44642857,3.8 9.05357143,3.8 Z" id="Combined-Shape" fill="#0A7BE0" fill-rule="nonzero"></path>
                        <g transform="translate(5.535714, 6.333333)"></g>
                    </g>
                </g>
            </g>
        </g>
    </g>
</svg>