<?xml version="1.0" encoding="UTF-8"?>
<svg width="11px" height="12px" viewBox="0 0 11 12" version="1.1" xmlns="http://www.w3.org/2000/svg" xmlns:xlink="http://www.w3.org/1999/xlink">
    <!-- Generator: Sketch 63.1 (92452) - https://sketch.com -->
    <title>Shape</title>
    <desc>Created with Sketch.</desc>
    <g id="Page-1" stroke="none" stroke-width="1" fill="none" fill-rule="evenodd">
        <g id="CS_Candidate2020_My_Profile_Resume_NoUpload" transform="translate(-262.000000, -1139.000000)" fill="#0A7BE0" fill-rule="nonzero">
            <g id="Group-8" transform="translate(247.000000, 1128.000000)">
                <path d="M20.9888889,13.0441667 L20.9888889,19.9863889 C20.9888889,20.3163889 20.72,20.5852778 20.39,20.5852778 C20.06,20.5852778 19.7911111,20.3163889 19.7911111,19.9863889 L19.7911111,13.0441667 L17.8111111,15.0241667 C17.5544444,15.2319444 17.1755556,15.2075 16.9677778,14.9508333 C16.7722222,14.7308333 16.7844444,14.3886111 16.9677778,14.1686111 L19.9744444,11.1741667 C20.2066667,10.9419444 20.5855556,10.9419444 20.8177778,11.1741667 L23.8122222,14.1686111 C24.0688889,14.3763889 24.0933333,14.7552778 23.8855556,15.0119444 C23.6777778,15.2686111 23.2988889,15.2930556 23.0422222,15.0852778 C23.0177778,15.0608333 22.9933333,15.0486111 22.9811111,15.0241667 L20.9888889,13.0441667 L20.9888889,13.0441667 Z M15,19.9863889 C15,19.6563889 15.2688889,19.3875 15.5988889,19.3875 C15.9288889,19.3875 16.1977778,19.6563889 16.1977778,19.9863889 L16.1977778,21.7830556 L24.5822222,21.7830556 L24.5822222,19.9863889 C24.5822222,19.6563889 24.8511111,19.3875 25.1811111,19.3875 C25.5111111,19.3875 25.78,19.6563889 25.78,19.9863889 L25.78,21.7830556 C25.78,22.4430556 25.2422222,22.9808333 24.5822222,22.9808333 L16.1977778,22.9808333 C15.5377778,22.9808333 15,22.4430556 15,21.7830556 L15,19.9863889 Z" id="Shape"></path>
            </g>
        </g>
    </g>
</svg>