<?xml version="1.0" encoding="UTF-8"?>
<svg width="9px" height="11px" viewBox="0 0 9 11" version="1.1" xmlns="http://www.w3.org/2000/svg" xmlns:xlink="http://www.w3.org/1999/xlink">
    <!-- Generator: Sketch 63.1 (92452) - https://sketch.com -->
    <title>noun_profile_3089489</title>
    <desc>Created with Sketch.</desc>
    <g id="Page-1" stroke="none" stroke-width="1" fill="none" fill-rule="evenodd">
        <g id="TAL_Home_Overlay" transform="translate(-279.000000, -27.000000)" fill="#ACAEC1" fill-rule="nonzero">
            <g id="Group-16" transform="translate(266.000000, 15.000000)">
                <g id="Group-18" transform="translate(0.382381, 0.922254)">
                    <g id="Group-17" transform="translate(0.617619, 1.077746)">
                        <g id="Group-16-Copy">
                            <g id="noun_profile_3089489" transform="translate(12.106725, 10.889345)">
                                <g id="Group" transform="translate(1.579487, 0.000000)">
                                    <circle id="Oval" cx="2.41846154" cy="2.4225641" r="2.2174359"></circle>
                                    <path d="M4.43076923,2.4225641 C4.42461538,3.25538462 3.89948718,4.03282051 3.10564103,4.31384615 C2.30153846,4.59897436 1.40512821,4.35076923 0.859487179,3.69641026 C0.32,3.05025641 0.262564103,2.09641026 0.697435897,1.38051282 C1.13025641,0.666666667 1.99384615,0.281025641 2.81435897,0.449230769 C3.74769231,0.642051282 4.42461538,1.47076923 4.43076923,2.4225641 C4.43282051,2.68717949 4.84307692,2.68717949 4.84103331,2.4225641 C4.83487179,1.40717949 4.19282051,0.496410256 3.24102564,0.143589744 C2.30358974,-0.203076923 1.19794872,0.0964102564 0.562051282,0.867692308 C-0.0861538462,1.65538462 -0.188717949,2.79179487 0.342564103,3.67179487 C0.86974359,4.54153846 1.89948718,4.98871795 2.89435897,4.79589744 C3.8625641,4.60923077 4.65435897,3.79282051 4.80615385,2.81641026 C4.82666667,2.68512821 4.83897436,2.55384615 4.83897436,2.4225641 C4.84103331,2.15794872 4.43076923,2.15794872 4.43076923,2.4225641 Z" id="Path"></path>
                                </g>
                                <g id="Group" transform="translate(0.000000, 5.333333)">
                                    <path d="M7.77435897,3.71692308 L0.223589744,3.71692308 L0.223589744,2.10051282 C0.223589744,1.05846154 1.06871795,0.213333333 2.11076923,0.213333333 L5.88923077,0.213333333 C6.93128205,0.213333333 7.77641026,1.05846154 7.77641026,2.10051282 L7.77641026,3.71692308 L7.77435897,3.71692308 Z" id="Path"></path>
                                    <path d="M7.77435897,3.51179487 C7.52410256,3.51179487 7.27384615,3.51179487 7.02358974,3.51179487 C6.4225641,3.51179487 5.82153846,3.51179487 5.21846154,3.51179487 C4.49025641,3.51179487 3.76410256,3.51179487 3.03589744,3.51179487 C2.41025641,3.51179487 1.7825641,3.51179487 1.15692308,3.51179487 C0.94974359,3.51179487 0.740512821,3.51179487 0.533333333,3.51179487 C0.436923077,3.51179487 0.334358974,3.50358974 0.235897436,3.51179487 C0.231794872,3.51179487 0.227692308,3.51179487 0.223589744,3.51179487 C0.291282051,3.57948718 0.361025641,3.64923077 0.428717949,3.71692308 C0.428717949,3.37641026 0.428717949,3.03794872 0.428717949,2.6974359 C0.428717949,2.30974359 0.395897436,1.90974359 0.525128205,1.53641026 C0.726153846,0.96 1.24307692,0.543589744 1.83794872,0.441025641 C2.07179487,0.4 2.32615385,0.420512821 2.56410256,0.420512821 C3.43384615,0.420512821 4.30358974,0.420512821 5.17333333,0.420512821 C5.40923077,0.420512821 5.64512821,0.418461538 5.87897436,0.420512821 C6.43076923,0.422564103 6.96205128,0.689230769 7.27384615,1.15076923 C7.44410256,1.40307692 7.54871795,1.69641026 7.56512821,2.00205128 C7.57128205,2.12923077 7.56717949,2.25641026 7.56717949,2.38153846 C7.56717949,2.79794872 7.56717949,3.21230769 7.56717949,3.62871795 C7.56717949,3.65948718 7.56717949,3.68820513 7.56717949,3.71897436 C7.56717949,3.98358974 7.9774359,3.98358974 7.9774359,3.71897436 C7.9774359,3.36 7.9774359,3.00102564 7.9774359,2.64 C7.9774359,2.20923077 8.00205128,1.77435897 7.84205128,1.36410256 C7.58769231,0.711794872 7.02358974,0.205128205 6.33435897,0.0594871795 C6.04923077,-3.46944695e-18 5.76,0.0102564103 5.47282051,0.0102564103 C4.57846154,0.0102564103 3.68410256,0.0102564103 2.78974359,0.0102564103 C2.56205128,0.0102564103 2.33641026,0.00820512821 2.10871795,0.0102564103 C1.42153846,0.0143589744 0.785641026,0.350769231 0.38974359,0.910769231 C0.184615385,1.2 0.0676923077,1.53846154 0.0287179487,1.88717949 C0.0123076923,2.03487179 0.0164102564,2.18666667 0.0164102564,2.33435897 C0.0164102564,2.76102564 0.0164102564,3.18974359 0.0164102564,3.61641026 C0.0164102564,3.64923077 0.0164102564,3.68205128 0.0164102564,3.71692308 C0.0164102564,3.82769231 0.110769231,3.92205128 0.221538462,3.92205128 C0.471794872,3.92205128 0.722051282,3.92205128 0.972307692,3.92205128 C1.57333333,3.92205128 2.17435897,3.92205128 2.7774359,3.92205128 C3.50564103,3.92205128 4.23179487,3.92205128 4.96,3.92205128 C5.58564103,3.92205128 6.21333333,3.92205128 6.83897436,3.92205128 C7.14461538,3.92205128 7.45435897,3.93435897 7.75794872,3.92205128 C7.76205128,3.92205128 7.76615385,3.92205128 7.77025641,3.92205128 C8.03897436,3.92205128 8.03897436,3.51179487 7.77435897,3.51179487 Z" id="Path"></path>
                                </g>
                            </g>
                        </g>
                    </g>
                </g>
            </g>
        </g>
    </g>
</svg>