<?xml version="1.0" encoding="UTF-8"?>
<svg width="34px" height="30px" viewBox="0 0 34 30" version="1.1" xmlns="http://www.w3.org/2000/svg" xmlns:xlink="http://www.w3.org/1999/xlink">
    <!-- Generator: Sketch 63.1 (92452) - https://sketch.com -->
    <title>noun_Video Call_126081</title>
    <desc>Created with Sketch.</desc>
    <g id="Page-1" stroke="none" stroke-width="1" fill="none" fill-rule="evenodd">
        <g id="Redesign_My_Profile" transform="translate(-89.000000, -4128.000000)" fill="#0A7BE0" fill-rule="nonzero">
            <g id="Group-4" transform="translate(48.000000, 4129.000000)">
                <g id="noun_Video-Call_126081" transform="translate(42.000000, 0.000000)">
                    <path d="M25.3785714,22.4503401 L25.9678571,22.4503401 L29.8571429,22.4503401 C30.3678571,22.4503401 30.8,22.0163265 30.8,21.5034014 L30.8,2.84081633 C30.8,2.32789116 30.3678571,1.89387755 29.8571429,1.89387755 L2.82857143,1.89387755 C2.31785714,1.89387755 1.88571429,2.32789116 1.88571429,2.84081633 L1.88571429,21.5428571 C1.88571429,22.0557823 2.31785714,22.4897959 2.82857143,22.4897959 L7.07142857,22.4897959 L7.66071429,22.4897959 L25.3785714,22.4503401 Z M32.6857143,2.84081633 L32.6857143,21.5428571 C32.6857143,23.0816327 31.4285714,24.3836735 29.8571429,24.3836735 L25.9678571,24.3836735 L24.0035714,24.3836735 L19.8785714,24.3836735 L19.8785714,27.2639456 L24.0428571,27.2639456 C24.2392857,27.2639456 24.3964286,27.4217687 24.3964286,27.6190476 L24.3964286,28.1714286 C24.3964286,28.3687075 24.2392857,28.5265306 24.0428571,28.5265306 L8.64285714,28.5265306 C8.44642857,28.5265306 8.28928571,28.3687075 8.28928571,28.1714286 L8.28928571,27.5795918 C8.28928571,27.3823129 8.44642857,27.2244898 8.64285714,27.2244898 L12.8071429,27.2244898 L12.8071429,24.3442177 L8.99642857,24.3442177 L7.03214286,24.3442177 L2.82857143,24.3442177 C1.29642857,24.3442177 5.68434189e-14,23.0816327 5.68434189e-14,21.5034014 L5.68434189e-14,2.84081633 C5.68434189e-14,1.26258503 1.25714286,-2.84217094e-14 2.82857143,-2.84217094e-14 L29.8964286,-2.84217094e-14 C31.4285714,-2.84217094e-14 32.6857143,1.26258503 32.6857143,2.84081633 Z" id="Shape" stroke="#FFFFFF" stroke-width="0.2"></path>
                    <path d="M16.4840734,5.38571429 C19.222458,5.38571429 21.45,7.6261489 21.45,10.3571429 C21.45,13.1000031 19.2106216,15.3285714 16.4840734,15.3285714 C13.7715807,15.3285714 11.55,13.0821837 11.55,10.3571429 C11.55,7.60012617 13.7398334,5.38571429 16.4840734,5.38571429 Z M16.4840734,7.04285714 C14.6536399,7.04285714 13.2,8.51281251 13.2,10.3571429 C13.2,12.1694764 14.685366,13.6714286 16.4840734,13.6714286 C18.3027174,13.6714286 19.8,12.1813737 19.8,10.3571429 C19.8,8.54082561 18.3106516,7.04285714 16.4840734,7.04285714 Z" id="Path"></path>
                    <path d="M6.8192796,23.0615557 C13.4651536,16.0609238 19.4322495,16.0609238 25.2146074,23.0206455 L26.4814899,21.9589464 C20.0508438,14.2189364 12.9340274,14.2189364 5.62508052,21.9180361 L6.8192796,23.0615557 Z" id="Path-2"></path>
                </g>
            </g>
        </g>
    </g>
</svg>