<?xml version="1.0" encoding="UTF-8"?>
<svg width="21px" height="15px" viewBox="0 0 21 15" version="1.1" xmlns="http://www.w3.org/2000/svg" xmlns:xlink="http://www.w3.org/1999/xlink">
    <!-- Generator: Sketch 63.1 (92452) - https://sketch.com -->
    <title>noun_Video_1268996</title>
    <desc>Created with Sketch.</desc>
    <g id="Page-1" stroke="none" stroke-width="1" fill="none" fill-rule="evenodd">
        <g id="CS_Candidate2020_Job_Details_Applied_1" transform="translate(-94.000000, -343.000000)" fill="#0A7BE0" fill-rule="nonzero">
            <g id="noun_Video_1268996" transform="translate(94.000000, 343.000000)">
                <path d="M2.60707317,14.452633 L12.3387805,14.452633 C13.7531683,14.452633 14.8997561,13.2799864 14.8997561,11.8334534 L14.8997561,10.7386364 L19.5402439,12.6925443 C19.8562233,12.8253042 20.2161177,12.7882416 20.4998743,12.5937197 C20.7836309,12.3991978 20.953903,12.072816 20.953903,11.7234479 L20.953903,2.94657705 C20.95426,2.59651592 20.7836416,2.2694015 20.4991626,2.07473704 C20.2146836,1.88007257 19.8539363,1.84358195 19.5376829,1.9774806 L14.9023171,3.9287694 L14.9023171,2.83395233 C14.9023171,1.38741938 13.7557292,0.214772727 12.3413415,0.214772727 L2.60963415,0.214772727 C1.19524637,0.214772727 0.0486585366,1.38741938 0.0486585366,2.83395233 L0.0486585366,11.8334534 C0.0486585366,13.2789642 1.19368562,14.4511875 2.60707317,14.452633 Z M19.9295122,2.94657705 L19.9295122,11.7234479 L14.9023171,9.60976996 L14.9023171,5.06549335 L19.9295122,2.94657705 Z M1.07304878,2.83395233 C1.07304878,1.96603256 1.76100148,1.26244457 2.60963415,1.26244457 L12.3413415,1.26244457 C13.1899741,1.26244457 13.8779268,1.96603256 13.8779268,2.83395233 L13.8779268,11.8334534 C13.8779268,12.7013732 13.1899741,13.4049612 12.3413415,13.4049612 L2.60963415,13.4049612 C1.76100148,13.4049612 1.07304878,12.7013732 1.07304878,11.8334534 L1.07304878,2.83395233 Z" id="Shape"></path>
            </g>
        </g>
    </g>
</svg>