<?xml version="1.0" encoding="UTF-8"?>
<svg width="21px" height="15px" viewBox="0 0 21 15" version="1.1" xmlns="http://www.w3.org/2000/svg" xmlns:xlink="http://www.w3.org/1999/xlink">
    <!-- Generator: Sketch 63.1 (92452) - https://sketch.com -->
    <title>noun_Video_1268996</title>
    <desc>Created with Sketch.</desc>
    <g id="Page-1" stroke="none" stroke-width="1" fill="none" fill-rule="evenodd">
        <g id="CS_Candidate2020_Job_Details_Interview_4" transform="translate(-101.000000, -463.000000)" fill="#0A7BE0" fill-rule="nonzero">
            <g id="noun_Video_1268996" transform="translate(101.000000, 463.000000)">
                <path d="M2.60707317,14.6820399 L12.3387805,14.6820399 C13.7531683,14.6820399 14.8997561,13.4907798 14.8997561,12.021286 L14.8997561,10.9090909 L19.5402439,12.8940133 C19.8562233,13.0288805 20.2161177,12.9912295 20.4998743,12.79362 C20.7836309,12.5960105 20.953903,12.264448 20.953903,11.9095344 L20.953903,2.99334812 C20.95426,2.63773046 20.7836416,2.30542374 20.4991626,2.10766937 C20.2146836,1.909915 19.8539363,1.87284516 19.5376829,2.00886918 L14.9023171,3.99113082 L14.9023171,2.8789357 C14.9023171,1.40944191 13.7557292,0.218181818 12.3413415,0.218181818 L2.60963415,0.218181818 C1.19524637,0.218181818 0.0486585366,1.40944191 0.0486585366,2.8789357 L0.0486585366,12.021286 C0.0486585366,13.4897414 1.19368562,14.6805715 2.60707317,14.6820399 Z M19.9295122,2.99334812 L19.9295122,11.9095344 L14.9023171,9.76230599 L14.9023171,5.145898 L19.9295122,2.99334812 Z M1.07304878,2.8789357 C1.07304878,1.99723942 1.76100148,1.28248337 2.60963415,1.28248337 L12.3413415,1.28248337 C13.1899741,1.28248337 13.8779268,1.99723942 13.8779268,2.8789357 L13.8779268,12.021286 C13.8779268,12.9029823 13.1899741,13.6177384 12.3413415,13.6177384 L2.60963415,13.6177384 C1.76100148,13.6177384 1.07304878,12.9029823 1.07304878,12.021286 L1.07304878,2.8789357 Z" id="Shape"></path>
            </g>
        </g>
    </g>
</svg>