<?xml version="1.0" encoding="UTF-8"?>
<svg width="19px" height="15px" viewBox="0 0 19 15" version="1.1" xmlns="http://www.w3.org/2000/svg" xmlns:xlink="http://www.w3.org/1999/xlink">
    <!-- Generator: Sketch 63.1 (92452) - https://sketch.com -->
    <title>noun_Video_1569867 Copy 2</title>
    <desc>Created with Sketch.</desc>
    <g id="Page-1" stroke="none" stroke-width="1" fill="none" fill-rule="evenodd">
        <g id="Redesign_My_Profile" transform="translate(-269.000000, -1146.000000)" fill="#0A7BE0" fill-rule="nonzero">
            <g id="Group-7" transform="translate(-6.000000, 151.000000)">
                <g id="Group-5" transform="translate(30.000000, 986.000000)">
                    <g id="Group-6" transform="translate(236.000000, 0.000000)">
                        <g id="noun_Video_1569867-Copy-2" transform="translate(9.000000, 9.000000)">
                            <path d="M3.67045465,0 C1.64824665,0 0,1.69819697 0,3.78168044 L0,10.4552386 C0,12.5387221 1.64824665,14.236919 3.67045465,14.236919 L15.3295456,14.236919 C17.3517544,14.236919 19,12.5387221 19,10.4552386 L19,3.78168044 C19,1.69819697 17.3517542,0 15.3295456,0 L3.67045465,0 L3.67045465,0 Z M3.67045465,1.33471074 L15.3295456,1.33471074 C16.6564794,1.33471074 17.704546,2.41453623 17.704546,3.78168044 L17.704546,10.4552386 C17.704546,11.8223828 16.6564794,12.9022083 15.3295456,12.9022083 L3.67045465,12.9022083 C2.34352056,12.9022083 1.29545465,11.8223828 1.29545465,10.4552386 L1.29545465,3.78168044 C1.29545465,2.41453623 2.34352056,1.33471074 3.67045465,1.33471074 L3.67045465,1.33471074 Z M7.98863647,4.22658402 L7.98863647,10.010335 L12.7386365,7.11846175 L7.98863647,4.22658402 Z" id="Shape"></path>
                        </g>
                    </g>
                </g>
            </g>
        </g>
    </g>
</svg>