<?xml version="1.0" encoding="UTF-8"?>
<svg width="16px" height="9px" viewBox="0 0 16 9" version="1.1" xmlns="http://www.w3.org/2000/svg" xmlns:xlink="http://www.w3.org/1999/xlink">
    <!-- Generator: Sketch 63.1 (92452) - https://sketch.com -->
    <title>noun_Video_966159</title>
    <desc>Created with Sketch.</desc>
    <g id="Page-1" stroke="none" stroke-width="1" fill="none" fill-rule="evenodd">
        <g id="CS_Candidate2020_My_Jobs_Interview" transform="translate(-333.000000, -247.000000)" fill="#FFFFFF" fill-rule="nonzero">
            <g id="Group-18" transform="translate(323.000000, 239.000000)">
                <g id="noun_Video_966159" transform="translate(10.000000, 8.000000)">
                    <path d="M9.75690449,8.50654488 L1.3118527,8.50654488 C0.635428654,8.50654488 0.102488493,7.95310702 0.102488493,7.29718067 L0.102488493,1.3118527 C0.102488493,0.635428654 0.655926352,0.102488493 1.3118527,0.102488493 L9.73640679,0.102488493 C10.4128308,0.102488493 10.945771,0.655926352 10.945771,1.3118527 L10.945771,7.27668297 C10.9662687,7.95310702 10.4128308,8.50654488 9.75690449,8.50654488 Z" id="Path"></path>
                    <path d="M11.7861766,2.48022152 L11.7861766,6.12881185 L15.1682969,8.03509781 C15.3117808,8.11708861 15.4757624,8.01460012 15.4757624,7.85061853 L15.4757624,0.758414845 C15.4757624,0.594433257 15.3117808,0.512442463 15.1682969,0.573935558 L11.7861766,2.48022152 Z" id="Path"></path>
                </g>
            </g>
        </g>
    </g>
</svg>