<?xml version="1.0" encoding="UTF-8"?>
<svg width="13px" height="10px" viewBox="0 0 13 10" version="1.1" xmlns="http://www.w3.org/2000/svg" xmlns:xlink="http://www.w3.org/1999/xlink">
    <!-- Generator: Sketch 63.1 (92452) - https://sketch.com -->
    <title>Shape</title>
    <desc>Created with Sketch.</desc>
    <g id="Page-1" stroke="none" stroke-width="1" fill="none" fill-rule="evenodd">
        <g id="CS_Candidate2020_Job_Details_Search&amp;Matching" transform="translate(-24.000000, -208.000000)" fill="#0A7BE0" fill-rule="nonzero">
            <g id="Group-15" transform="translate(24.000000, 199.000000)">
                <path d="M1.32954545,9 C0.619164295,9 0,9.63672812 0,10.40625 L0,17.59375 C0,18.3632719 0.619164295,19 1.32954545,19 L11.6704545,19 C12.3808357,19 13,18.3632719 13,17.59375 L13,10.40625 C13,9.63672812 12.3808357,9 11.6704545,9 L1.32954545,9 Z M1.32954545,9.625 L11.6704545,9.625 C12.0148485,9.625 12.4090909,10.0247394 12.4090909,10.40625 L12.4090909,13.0625 L0.590909091,13.0625 L0.590909091,10.40625 C0.590909091,10.0247394 0.985151523,9.625 1.32954545,9.625 Z M2.06818182,11.1875 C1.8234193,11.1875 1.625,11.3973666 1.625,11.65625 C1.625,11.9151334 1.8234193,12.125 2.06818182,12.125 C2.31294434,12.125 2.51136364,11.9151334 2.51136364,11.65625 C2.51136364,11.3973666 2.31294434,11.1875 2.06818182,11.1875 Z M10.9318182,11.1875 C10.6870557,11.1875 10.4886364,11.3973666 10.4886364,11.65625 C10.4886364,11.9151334 10.6870557,12.125 10.9318182,12.125 C11.1765807,12.125 11.375,11.9151334 11.375,11.65625 C11.375,11.3973666 11.1765807,11.1875 10.9318182,11.1875 Z M3.66548295,11.34375 C3.55991215,11.3489617 3.46499205,11.413356 3.41648648,11.5126703 C3.36798091,11.6119847 3.37326107,11.7311267 3.43033751,11.8252064 C3.48741395,11.9192861 3.58761299,11.9740064 3.69318182,11.96875 L9.30681818,11.96875 C9.4133692,11.970343 9.51247729,11.9111317 9.56619234,11.8137891 C9.61990738,11.7164464 9.61990738,11.5960536 9.56619234,11.4987109 C9.51247729,11.4013683 9.4133692,11.342157 9.30681818,11.34375 L3.69318182,11.34375 C3.68395394,11.343292 3.67471083,11.343292 3.66548295,11.34375 Z M0.590909091,13.6875 L12.4090909,13.6875 L12.4090909,17.59375 C12.4090909,17.9752606 12.0148485,18.375 11.6704545,18.375 L1.32954545,18.375 C0.985151523,18.375 0.590909091,17.9752606 0.590909091,17.59375 L0.590909091,13.6875 Z M1.625,14.3125 C1.45327355,14.3125 1.28794723,14.4699217 1.23721591,14.5957031 C1.18648459,14.7214845 1.18181818,14.8290187 1.18181818,14.9375 L1.18181818,17.125 C1.18181818,17.2334811 1.18648489,17.3410155 1.23721591,17.4667969 C1.28794708,17.5925783 1.4532734,17.75 1.625,17.75 L3.98863636,17.75 C4.16036297,17.75 4.32568928,17.5925783 4.37642045,17.4667969 C4.42715162,17.3410155 4.43181818,17.2334811 4.43181818,17.125 L4.43181818,14.9375 C4.43181818,14.8290187 4.42715177,14.7214845 4.37642045,14.5957031 C4.32568914,14.4699217 4.16036282,14.3125 3.98863636,14.3125 L1.625,14.3125 Z M1.77272727,14.9375 L3.84090909,14.9375 L3.84090909,17.125 L1.77272727,17.125 L1.77272727,14.9375 Z M5.5859375,14.9375 C5.48036669,14.9427117 5.3854466,15.007106 5.33694103,15.1064203 C5.28843546,15.2057347 5.29371562,15.3248767 5.35079206,15.4189564 C5.4078685,15.5130361 5.50806754,15.5677564 5.61363636,15.5625 L11.2272727,15.5625 C11.3338237,15.564093 11.4329318,15.5048817 11.4866469,15.4075391 C11.5403619,15.3101964 11.5403619,15.1898036 11.4866469,15.0924609 C11.4329318,14.9951183 11.3338237,14.935907 11.2272727,14.9375 L5.61363636,14.9375 C5.60440849,14.937042 5.59516538,14.937042 5.5859375,14.9375 Z M5.5859375,16.5 C5.48036669,16.5052117 5.3854466,16.569606 5.33694103,16.6689203 C5.28843546,16.7682347 5.29371562,16.8873767 5.35079206,16.9814564 C5.4078685,17.0755361 5.50806754,17.1302564 5.61363636,17.125 L11.2272727,17.125 C11.3338237,17.126593 11.4329318,17.0673817 11.4866469,16.9700391 C11.5403619,16.8726964 11.5403619,16.7523036 11.4866469,16.6549609 C11.4329318,16.5576183 11.3338237,16.498407 11.2272727,16.5 L5.61363636,16.5 C5.60440849,16.499542 5.59516538,16.499542 5.5859375,16.5 Z" id="Shape"></path>
            </g>
        </g>
    </g>
</svg>