<?xml version="1.0" encoding="UTF-8"?>
<svg width="35px" height="25px" viewBox="0 0 35 25" version="1.1" xmlns="http://www.w3.org/2000/svg" xmlns:xlink="http://www.w3.org/1999/xlink">
    <!-- Generator: Sketch 63.1 (92452) - https://sketch.com -->
    <title>Shape</title>
    <desc>Created with Sketch.</desc>
    <g id="Page-1" stroke="none" stroke-width="1" fill="none" fill-rule="evenodd">
        <g id="Redesign_My_Profile" transform="translate(-270.000000, -3848.000000)" fill="#0A7BE0" fill-rule="nonzero">
            <g id="Group-11" transform="translate(230.000000, 3848.000000)">
                <path d="M43.5795455,0 C41.6669808,0 40,1.59182031 40,3.515625 L40,21.484375 C40,23.4081797 41.6669808,25 43.5795455,25 L71.4204545,25 C73.3330192,25 75,23.4081797 75,21.484375 L75,3.515625 C75,1.59182031 73.3330192,0 71.4204545,0 L43.5795455,0 Z M43.5795455,1.5625 L71.4204545,1.5625 C72.347669,1.5625 73.4090909,2.56184844 73.4090909,3.515625 L73.4090909,10.15625 L41.5909091,10.15625 L41.5909091,3.515625 C41.5909091,2.56184844 42.652331,1.5625 43.5795455,1.5625 Z M45.5681818,5.46875 C44.9092058,5.46875 44.375,5.99341641 44.375,6.640625 C44.375,7.28783359 44.9092058,7.8125 45.5681818,7.8125 C46.2271578,7.8125 46.7613636,7.28783359 46.7613636,6.640625 C46.7613636,5.99341641 46.2271578,5.46875 45.5681818,5.46875 Z M69.4318182,5.46875 C68.7728422,5.46875 68.2386364,5.99341641 68.2386364,6.640625 C68.2386364,7.28783359 68.7728422,7.8125 69.4318182,7.8125 C70.0907942,7.8125 70.625,7.28783359 70.625,6.640625 C70.625,5.99341641 70.0907942,5.46875 69.4318182,5.46875 Z M49.868608,5.859375 C49.5843789,5.87240437 49.3288248,6.03338991 49.1982328,6.28167579 C49.0676409,6.52996167 49.0818567,6.82781685 49.2355241,7.06301601 C49.3891914,7.29821518 49.6589581,7.43501603 49.9431818,7.421875 L65.0568182,7.421875 C65.3436863,7.42585759 65.6105158,7.27782934 65.7551332,7.03447271 C65.8997506,6.79111607 65.8997506,6.49013393 65.7551332,6.24677729 C65.6105158,6.00342066 65.3436863,5.85539241 65.0568182,5.859375 L49.9431818,5.859375 C49.9183375,5.85823008 49.8934522,5.85823008 49.868608,5.859375 Z M41.5909091,11.71875 L73.4090909,11.71875 L73.4090909,21.484375 C73.4090909,22.4381516 72.347669,23.4375 71.4204545,23.4375 L43.5795455,23.4375 C42.652331,23.4375 41.5909091,22.4381516 41.5909091,21.484375 L41.5909091,11.71875 Z M44.375,13.28125 C43.9126595,13.28125 43.4675502,13.6748043 43.3309659,13.9892578 C43.1943816,14.3037113 43.1818182,14.5725469 43.1818182,14.84375 L43.1818182,20.3125 C43.1818182,20.5837027 43.1943824,20.8525387 43.3309659,21.1669922 C43.4675498,21.4814457 43.9126591,21.875 44.375,21.875 L50.7386364,21.875 C51.2009772,21.875 51.6460865,21.4814457 51.7826705,21.1669922 C51.9192544,20.8525387 51.9318182,20.5837027 51.9318182,20.3125 L51.9318182,14.84375 C51.9318182,14.5725469 51.9192548,14.3037113 51.7826705,13.9892578 C51.6460861,13.6748043 51.2009768,13.28125 50.7386364,13.28125 L44.375,13.28125 Z M44.7727273,14.84375 L50.3409091,14.84375 L50.3409091,20.3125 L44.7727273,20.3125 L44.7727273,14.84375 Z M55.0390625,14.84375 C54.7548334,14.8567794 54.4992793,15.0177649 54.3686874,15.2660508 C54.2380955,15.5143367 54.2523113,15.8121919 54.4059786,16.047391 C54.559646,16.2825902 54.8294126,16.419391 55.1136364,16.40625 L70.2272727,16.40625 C70.5141409,16.4102326 70.7809703,16.2622043 70.9255878,16.0188477 C71.0702052,15.7754911 71.0702052,15.4745089 70.9255878,15.2311523 C70.7809703,14.9877957 70.5141409,14.8397674 70.2272727,14.84375 L55.1136364,14.84375 C55.0887921,14.8426051 55.0639068,14.8426051 55.0390625,14.84375 Z M55.0390625,18.75 C54.7548334,18.7630294 54.4992793,18.9240149 54.3686874,19.1723008 C54.2380955,19.4205867 54.2523113,19.7184419 54.4059786,19.953641 C54.559646,20.1888402 54.8294126,20.325641 55.1136364,20.3125 L70.2272727,20.3125 C70.5141409,20.3164826 70.7809703,20.1684543 70.9255878,19.9250977 C71.0702052,19.6817411 71.0702052,19.3807589 70.9255878,19.1374023 C70.7809703,18.8940457 70.5141409,18.7460174 70.2272727,18.75 L55.1136364,18.75 C55.0887921,18.7488551 55.0639068,18.7488551 55.0390625,18.75 Z" id="Shape"></path>
            </g>
        </g>
    </g>
</svg>