<?xml version="1.0" encoding="UTF-8"?>
<svg width="18px" height="19px" viewBox="0 0 18 19" version="1.1" xmlns="http://www.w3.org/2000/svg" xmlns:xlink="http://www.w3.org/1999/xlink">
    <!-- Generator: Sketch 63.1 (92452) - https://sketch.com -->
    <title>noun_web_1040200</title>
    <desc>Created with Sketch.</desc>
    <g id="Page-1" stroke="none" stroke-width="1" fill="none" fill-rule="evenodd">
        <g id="CS_Candidate2020_Job_Details_Search&amp;Matching" transform="translate(-324.000000, -18.000000)" fill="#1070E7" fill-rule="nonzero">
            <g id="Group-18" transform="translate(324.000000, 18.000000)">
                <g id="noun_web_1040200" transform="translate(-0.000000, 0.000000)">
                    <path d="M10.5561348,13.8788411 L11.207748,16.4944688 C10.9210382,17.0282704 10.5821993,17.562072 10.2172959,18.0424934 C9.77419886,18.1225637 9.33110184,18.1492537 8.8619403,18.1492537 C8.34064969,18.1492537 7.84542362,18.0958736 7.35019754,18.0158033 C6.49006804,16.8147498 5.83845478,15.4001756 5.39535777,13.8788411 L10.5561348,13.8788411 Z M11.2859416,9.71518876 C11.3380707,9.74187884 11.3641352,9.74187884 11.4162643,9.76856892 L12.875878,10.8361721 L13.8402656,11.5568042 L15.5605246,12.8112379 L16.5770413,13.5585601 C16.9419447,13.8254609 16.7855575,14.4126427 16.3424605,14.4393327 L14.7785887,14.519403 L15.2738147,15.3201054 L16.5249122,17.2684811 C16.7073639,17.5353819 16.6291703,17.909043 16.3424605,18.0691835 C16.2903314,18.0958736 16.2642669,18.1225637 16.2121378,18.1225637 L16.1860733,18.1225637 L16.1860733,18.1225637 C16.1600088,18.1225637 16.1078797,18.1492537 16.0818152,18.1492537 L16.0557507,18.1492537 L16.0557507,18.1492537 C16.0036216,18.1492537 15.9775571,18.1492537 15.925428,18.1225637 L15.8993635,18.1225637 L15.8993635,18.1225637 C15.8732989,18.1225637 15.8472344,18.0958736 15.8211699,18.0958736 C15.8211699,18.0958736 15.7951054,18.0958736 15.7951054,18.0691835 C15.7690408,18.0424934 15.7429763,18.0424934 15.7169118,18.0158033 C15.7169118,18.0158033 15.6908472,17.9891133 15.6908472,17.9891133 C15.6647827,17.9624232 15.6387182,17.9357331 15.6126536,17.8823529 L15.039234,17.0015803 L13.8142011,15.1332748 L13.2147169,16.6812994 C13.1886523,16.7346795 13.1625878,16.7880597 13.1365233,16.8147498 C13.1365233,16.8147498 13.124939,16.826612 13.1172162,16.8345202 C13.0843942,16.8681299 13.0583297,16.89482 13.0322651,16.89482 C13.0062006,16.89482 13.0062006,16.9215101 12.9801361,16.9215101 C12.9540716,16.9215101 12.928007,16.9482002 12.9019425,16.9482002 L12.6412972,16.9482002 L12.6412972,16.9482002 C12.6152327,16.9482002 12.5891681,16.9215101 12.5631036,16.89482 C12.5631036,16.89482 12.5370391,16.89482 12.5370391,16.8681299 C12.5196627,16.8503366 12.4907021,16.8325432 12.4656029,16.8068416 L12.4327809,16.7613696 L12.4327809,16.7613696 L12.3545874,16.6012291 L12.3545874,16.6012291 L11.9114903,14.9464442 L11.8072322,14.5727831 L10.7385865,10.2489903 C10.7385865,10.1956102 10.7125219,10.1689201 10.7385865,10.1155399 L10.7385865,10.0888499 L10.7385865,10.0888499 C10.7385865,10.0621598 10.7385865,10.0354697 10.764651,10.0087796 L10.764651,9.98208955 L10.764651,9.98208955 C10.7820274,9.96429617 10.7878195,9.94650278 10.797473,9.92080122 L10.8167801,9.87532924 L10.8167801,9.87532924 L10.8949737,9.795259 L10.8949737,9.795259 C10.8949737,9.795259 10.9210382,9.795259 10.9210382,9.76856892 C10.9471027,9.74187884 10.9731673,9.74187884 10.9992318,9.74187884 L11.0252963,9.74187884 L11.0252963,9.74187884 C11.0513608,9.74187884 11.1034899,9.71518876 11.1295544,9.71518876 L11.2859416,9.71518876 L11.2859416,9.71518876 Z M4.32671203,13.8788411 C4.69161545,15.213345 5.21290606,16.4677788 5.86451932,17.6154522 C3.9618086,16.9215101 2.39793679,15.5870061 1.35535558,13.8788411 L4.32671203,13.8788411 Z M9.77419886,9.60842845 C9.66994074,9.90201932 9.66994074,10.1956102 9.74813433,10.5158911 L10.321554,12.8112379 L5.13471247,12.8112379 C4.90013169,11.7703248 4.79587357,10.7027217 4.74374451,9.60842845 L9.77419886,9.60842845 Z M3.72722783,9.60842845 C3.75329236,10.7027217 3.88361501,11.7703248 4.09213126,12.8112379 L0.781935909,12.8112379 C0.364903424,11.823705 0.0781935909,10.7561018 0.0260645303,9.60842845 L3.72722783,9.60842845 Z M17.7238806,9.60842845 C17.645687,10.6493415 17.4111062,11.6635645 17.0462028,12.5710272 L13.9966528,10.3290606 C14.0227173,10.0888499 14.0227173,9.84863916 14.0227173,9.60842845 L17.7238806,9.60842845 Z M12.5891681,5.3380158 C12.8237489,6.37892888 12.928007,7.44653205 12.9801361,8.54082529 L4.74374451,8.54082529 C4.76980904,7.44653205 4.92619622,6.37892888 5.160777,5.3380158 L12.5891681,5.3380158 Z M4.09213126,5.3380158 C3.88361501,6.37892888 3.72722783,7.44653205 3.7011633,8.54082529 L0.0260645303,8.54082529 C0.0781935909,7.39315189 0.364903424,6.32554873 0.781935909,5.3380158 L4.09213126,5.3380158 Z M16.9419447,5.3380158 C17.3850417,6.32554873 17.645687,7.39315189 17.7238806,8.54082529 L14.0227173,8.54082529 C13.9966528,7.44653205 13.8663301,6.37892888 13.6578139,5.3380158 L16.9419447,5.3380158 Z M11.8854258,0.53380158 C13.762072,1.22774363 15.3259438,2.56224759 16.368525,4.27041264 L13.4232331,4.27041264 C13.0583297,2.93590869 12.5370391,1.68147498 11.8854258,0.53380158 Z M8.8619403,5.80260218e-13 C9.3832309,5.80260218e-13 9.87845698,0.053380158 10.3736831,0.133450395 C11.2338126,1.33450395 11.8854258,2.74907814 12.3285228,4.27041264 L5.44748683,4.27041264 C5.91664838,2.72238806 6.59432616,1.33450395 7.50658472,0.106760316 C7.94968174,0.026690079 8.39277875,5.80260218e-13 8.8619403,5.80260218e-13 Z M5.96877744,0.507111501 C5.29109965,1.6547849 4.74374451,2.93590869 4.35277656,4.27041264 L1.35535558,4.27041264 C2.42400132,2.53555751 4.04000219,1.17436348 5.96877744,0.507111501 Z" id="Combined-Shape"></path>
                </g>
            </g>
        </g>
    </g>
</svg>